<svg width="125" height="125" viewBox="0 0 125 125" fill="none" xmlns="http://www.w3.org/2000/svg">
<g clip-path="url(#clip0)">
<path d="M109.863 41.5364L53.0198 23.9089C50.813 23.2246 48.4668 24.4602 47.7825 26.667L26.4329 95.5122C26.1545 96.4099 26.1939 97.3242 26.4863 98.1479C26.9143 99.3467 27.8831 100.339 29.1921 100.745L86.0352 118.373C88.2419 119.057 90.5867 117.826 91.2712 115.619L112.621 46.7739C113.305 44.5669 112.07 42.2207 109.863 41.5364Z" fill="#6280FF"/>
<path d="M107.032 44.2458L53.8189 27.7441C52.4161 27.3091 50.9278 28.093 50.4927 29.4958L30.2684 94.7129C29.8348 96.1111 30.6185 97.5994 32.0213 98.0344L85.2342 114.536C86.6368 114.971 88.1253 114.187 88.5604 112.784L108.783 47.572C109.218 46.1692 108.434 44.6809 107.032 44.2458Z" fill="white"/>
<path d="M56.0576 30.2807C54.6398 29.841 53.1281 30.6369 52.6884 32.0549C52.2487 33.4729 53.0449 34.9843 54.4626 35.424C55.8803 35.8637 57.392 35.0678 57.8317 33.6499C58.2714 32.2319 57.4753 30.7204 56.0576 30.2807Z" fill="#6280FF"/>
<path d="M64.0063 32.7456C62.5886 32.3059 61.0769 33.1018 60.6372 34.5197C60.1975 35.9377 60.9936 37.4492 62.4113 37.8889C63.829 38.3286 65.3408 37.5327 65.7805 36.1147C66.2204 34.6965 65.4243 33.1853 64.0063 32.7456Z" fill="#6280FF"/>
<path d="M71.955 35.2109C70.5373 34.7712 69.0256 35.5671 68.5859 36.9851C68.1462 38.403 68.9423 39.9145 70.3601 40.3542C71.7778 40.7939 73.2895 39.998 73.7292 38.58C74.1689 37.1621 73.3728 35.6506 71.955 35.2109Z" fill="#6280FF"/>
<path d="M79.9038 37.6757C78.486 37.2361 76.9743 38.0319 76.5346 39.4499C76.0949 40.8679 76.8911 42.3794 78.3088 42.8191C79.7265 43.2588 81.2382 42.4629 81.6779 41.0449C82.1176 39.6269 81.3215 38.1154 79.9038 37.6757Z" fill="#6280FF"/>
<path d="M87.8525 40.1406C86.4348 39.7009 84.923 40.4968 84.4833 41.9148C84.0436 43.3327 84.8398 44.8442 86.2575 45.2839C87.6752 45.7236 89.187 44.9277 89.6267 43.5097C90.0664 42.0918 89.2702 40.5803 87.8525 40.1406Z" fill="#6280FF"/>
<path d="M95.8012 42.6054C94.3835 42.1657 92.8718 42.9616 92.4321 44.3796C91.9924 45.7976 92.7885 47.309 94.2062 47.7487C95.624 48.1884 97.1357 47.3925 97.5754 45.9746C98.0151 44.5566 97.219 43.0451 95.8012 42.6054Z" fill="#6280FF"/>
<path d="M103.75 45.0708C102.332 44.6311 100.821 45.427 100.381 46.8449C99.9411 48.2629 100.737 49.7744 102.155 50.2141C103.573 50.6538 105.084 49.8579 105.524 48.4399C105.964 47.0219 105.168 45.5105 103.75 45.0708Z" fill="#6280FF"/>
<path d="M55.0562 33.5097C55.6949 33.7079 56.3734 33.3505 56.5714 32.7119L59.1527 24.3879C59.3507 23.7492 58.9935 23.0707 58.3548 22.8725C57.7161 22.6745 57.0377 23.0317 56.8394 23.6706L54.2581 31.9946C54.0604 32.6332 54.4175 33.3117 55.0562 33.5097Z" fill="#FF8EDE"/>
<path d="M63.0048 35.9745C63.6437 36.1728 64.322 35.8154 64.5202 35.1767L67.1015 26.8527C67.2995 26.214 66.9423 25.5356 66.3037 25.3373C65.665 25.1393 64.9865 25.4965 64.7883 26.1354L62.207 34.4594C62.009 35.0981 62.3661 35.7763 63.0048 35.9745Z" fill="#FF8EDE"/>
<path d="M70.9536 38.4399C71.5922 38.6379 72.2707 38.2807 72.4689 37.642L75.0502 29.3181C75.2482 28.6794 74.8911 28.0009 74.2524 27.8027C73.6135 27.6047 72.9352 27.9619 72.737 28.6008L70.1557 36.9247C69.9577 37.5634 70.3149 38.2419 70.9536 38.4399Z" fill="#FF8EDE"/>
<path d="M78.9023 40.9047C79.541 41.1027 80.2194 40.7455 80.4177 40.1069L82.999 31.7829C83.197 31.1442 82.8398 30.4658 82.2011 30.2675C81.5624 30.0695 80.884 30.4267 80.6857 31.0656L78.1044 39.3896C77.9064 40.0283 78.2636 40.7065 78.9023 40.9047Z" fill="#FF8EDE"/>
<path d="M86.851 43.3696C87.4897 43.5676 88.1682 43.2104 88.3664 42.5717L90.9477 34.2477C91.1459 33.6088 90.7885 32.9306 90.1498 32.7324C89.5109 32.5344 88.8327 32.8915 88.6345 33.5305L86.0532 41.8544C85.8552 42.4931 86.2123 43.1716 86.851 43.3696Z" fill="#FF8EDE"/>
<path d="M94.7997 45.8344C95.4384 46.0324 96.1169 45.6752 96.3149 45.0366L98.8962 36.7126C99.0944 36.0737 98.737 35.3954 98.0983 35.1972C97.4597 34.9992 96.7812 35.3564 96.5832 35.9951L94.0019 44.319C93.8039 44.9579 94.1611 45.6362 94.7997 45.8344Z" fill="#FF8EDE"/>
<path d="M102.748 48.2997C103.387 48.4977 104.066 48.1406 104.264 47.5019L106.845 39.1779C107.043 38.539 106.686 37.8608 106.047 37.6625C105.408 37.4645 104.73 37.8217 104.532 38.4604L101.951 46.7844C101.753 47.423 102.11 48.1015 102.748 48.2997Z" fill="#FF8EDE"/>
<g opacity="0.18">
<path opacity="0.18" d="M111.742 49.6069L91.271 115.619C90.5867 117.826 88.2419 119.057 86.0349 118.372L29.1921 100.745C27.8831 100.339 26.9143 99.3467 26.4863 98.1477C36.0317 91.2007 52.2783 98.5247 70.075 104.172C76.6133 106.246 83.0605 105.41 86.915 99.2742C93.834 88.2605 97.387 71.6707 101.681 58.8599C104.145 51.5105 109.139 49.9172 111.742 49.6069Z" fill="#000E3F"/>
</g>
<path d="M112.819 43.3237C112.229 42.2068 111.235 41.3821 110.029 41.0078L107.667 40.2769L107.907 39.5049C108.287 38.2827 107.597 36.9785 106.374 36.5984C106.152 36.5339 105.919 36.4988 105.69 36.4988C104.667 36.4988 103.772 37.1538 103.468 38.1304L103.228 38.8965L99.7194 37.8088L99.9591 37.0427C100.141 36.4521 100.082 35.8203 99.7953 35.2708C99.5028 34.7209 99.0175 34.3176 98.4269 34.1362C98.2047 34.0659 97.9706 34.031 97.7369 34.031C96.7135 34.031 95.8243 34.686 95.5204 35.6685L95.2806 36.4346L91.7719 35.3469L92.0118 34.575C92.193 33.9844 92.1346 33.3584 91.848 32.8088C91.5555 32.259 91.0702 31.8555 90.4796 31.6685C90.2575 31.604 90.0233 31.5691 89.7897 31.5691C88.7662 31.5691 87.8771 32.2241 87.5731 33.2007L87.3334 33.9668L83.8187 32.8789L84.0585 32.1128C84.4384 30.8906 83.754 29.5864 82.5319 29.2063C82.3041 29.1362 82.0756 29.1011 81.8419 29.1011C80.8185 29.1011 79.9293 29.7561 79.6256 30.7385L79.3856 31.5046L75.8712 30.4111L76.1105 29.645C76.4908 28.4229 75.8065 27.1187 74.5844 26.7385C74.3558 26.6743 74.1281 26.6392 73.8939 26.6392C72.8705 26.6392 71.9818 27.2942 71.6776 28.2708L71.4384 29.0369L67.9232 27.9492L68.163 27.1831C68.5433 25.9609 67.8529 24.6567 66.6307 24.2766C66.4086 24.2065 66.1749 24.1714 65.9467 24.1714C64.9232 24.1714 64.0289 24.8262 63.7245 25.8088L63.4904 26.5691L59.9757 25.4814L60.2157 24.7153C60.3966 24.1248 60.3385 23.499 60.0519 22.9492C59.7594 22.3994 59.2741 21.9961 58.6835 21.8088C58.4613 21.7446 58.2272 21.7095 57.9992 21.7095C56.9757 21.7095 56.0809 22.3645 55.777 23.3411L55.5372 24.1072L53.1864 23.3762C50.6832 22.6042 48.0282 24.0078 47.2504 26.5051L25.9049 95.3486C25.5949 96.3311 25.6183 97.3662 25.9633 98.3369C26.4664 99.7346 27.6127 100.834 29.0277 101.279L85.8712 118.905C86.3331 119.045 86.8068 119.121 87.2806 119.121C88.0407 119.121 88.7953 118.934 89.4794 118.571C90.6022 117.981 91.4269 116.992 91.8009 115.782L113.153 46.938C113.527 45.7273 113.41 44.4465 112.819 43.3237ZM104.533 38.458C104.69 37.9434 105.17 37.6101 105.69 37.6101C105.807 37.6101 105.93 37.6277 106.047 37.6626C106.684 37.8613 107.042 38.5398 106.849 39.1772L106.609 39.9492L106.281 41.0078L104.264 47.499C104.106 48.0195 103.626 48.3528 103.106 48.3528C102.988 48.3528 102.866 48.3352 102.749 48.3001C102.111 48.1011 101.755 47.4229 101.954 46.7854L103.965 40.2881L104.293 39.2297L104.533 38.458ZM96.5851 35.9959C96.7428 35.4753 97.2223 35.1421 97.7369 35.1421C97.8597 35.1421 97.9769 35.1597 98.0995 35.1948C98.7369 35.3936 99.0939 36.072 98.8944 36.7153L98.6552 37.4814L98.3273 38.5398L96.3158 45.0371C96.152 45.5576 95.6779 45.8909 95.1576 45.8909C95.0404 45.8909 94.9176 45.8733 94.8007 45.8325C94.1632 45.6394 93.8007 44.9612 93.9999 44.3179L96.017 37.8267L96.3449 36.7622L96.5851 35.9959ZM88.6371 33.5281C88.7953 33.0134 89.275 32.6802 89.7897 32.6802C89.9125 32.6802 90.0294 32.6978 90.1522 32.7327C90.7897 32.9316 91.1459 33.6099 90.9471 34.2473L90.7072 35.0134L90.3798 36.0779L88.3678 42.5691C88.2045 43.0896 87.7247 43.4229 87.2101 43.4229C87.0929 43.4229 86.9703 43.4053 86.8532 43.3701C86.2101 43.1714 85.8532 42.4929 86.0519 41.8555L88.0697 35.3582L88.3976 34.2996L88.6371 33.5281ZM80.684 31.0662C80.8478 30.5457 81.327 30.2124 81.8422 30.2124C81.9586 30.2124 82.0814 30.23 82.1986 30.2651C82.8422 30.4641 83.1986 31.1423 82.9999 31.7856L82.7601 32.5518L82.433 33.6104L80.4152 40.1077C80.2577 40.6282 79.778 40.9614 79.2633 40.9614C79.1461 40.9614 79.0233 40.9438 78.9008 40.9031C78.2633 40.7102 77.9064 40.0315 78.1051 39.3884L80.1171 32.897L80.4442 31.8328L80.684 31.0662ZM72.7365 28.5981C72.9003 28.0835 73.3739 27.7502 73.8942 27.7502C74.0111 27.7502 74.1342 27.7678 74.2511 27.803C74.8886 28.002 75.2511 28.6802 75.0524 29.3176L74.8124 30.0837L74.4852 31.148L72.4677 37.6394C72.3095 38.1599 71.8302 38.4932 71.3158 38.4932C71.193 38.4932 71.0761 38.4756 70.9533 38.4404C70.3158 38.2415 69.9589 37.5632 70.1578 36.9258L72.1698 30.4285L72.4972 29.364L72.7365 28.5981ZM64.7889 26.1362C64.9467 25.6157 65.4264 25.2825 65.9467 25.2825C66.0636 25.2825 66.1864 25.3001 66.3036 25.3352C66.941 25.5339 67.298 26.2124 67.1049 26.8557L66.8651 27.6218L66.5372 28.6863L64.5201 35.1777C64.3619 35.6982 63.8827 36.0315 63.3619 36.0315C63.2448 36.0315 63.122 36.0139 63.0055 35.9729C62.3676 35.78 62.0111 35.0957 62.2098 34.4583L64.2213 27.967L64.5492 26.9026L64.7889 26.1362ZM56.8417 23.6682C56.9994 23.1536 57.4791 22.8203 57.9994 22.8203C58.1166 22.8203 58.2335 22.8379 58.3563 22.873C58.9935 23.0718 59.3507 23.7502 59.1513 24.3877L58.912 25.1538L58.5841 26.2183L56.5726 32.7097C56.4088 33.2302 55.9347 33.5635 55.4144 33.5635C55.2973 33.5635 55.1747 33.5459 55.0575 33.5107C54.4201 33.312 54.0575 32.6335 54.2562 31.9961L56.2738 25.499L56.6017 24.4346L56.8417 23.6682ZM112.088 46.6101L90.7428 115.454C90.4562 116.378 89.8243 117.138 88.965 117.588C88.1112 118.039 87.1288 118.126 86.1986 117.84L29.3556 100.214C28.2557 99.8748 27.3961 99.0501 27.0101 97.9624C26.7474 97.2197 26.7299 96.4302 26.9633 95.6758L48.3151 26.832C48.7943 25.2764 50.2328 24.2764 51.7828 24.2764C52.1398 24.2764 52.4962 24.3291 52.8532 24.4402L55.2101 25.1711L53.1981 31.6626C52.8178 32.8906 53.5026 34.189 54.7247 34.5691C54.9528 34.6392 55.1806 34.6743 55.4147 34.6743C56.4381 34.6743 57.3268 34.0193 57.631 33.0427L59.6488 26.5454L63.1576 27.6331L61.1456 34.1304C60.9645 34.7209 61.0172 35.3525 61.3095 35.9023C61.5961 36.4463 62.0817 36.8499 62.6779 37.0369C62.9 37.1069 63.1342 37.1421 63.3622 37.1421C64.3856 37.1421 65.2804 36.4814 65.5844 35.5046L67.5963 29.0134L71.111 30.1011L69.0934 36.5984C68.9122 37.189 68.9706 37.8147 69.2572 38.3645C69.5497 38.9141 70.035 39.3176 70.6256 39.499C70.8478 39.5691 71.0819 39.6042 71.316 39.6042C72.3395 39.6042 73.2282 38.9492 73.5326 37.9727L75.5441 31.4753L79.0587 32.5688L77.0472 39.0603C76.86 39.6509 76.9181 40.2827 77.205 40.8323C77.4974 41.376 77.9828 41.7798 78.5734 41.9668C78.796 42.0371 79.0297 42.072 79.2638 42.072C80.2872 42.072 81.1759 41.4111 81.4801 40.4346L83.4916 33.9431L87.0062 35.0308L84.9948 41.5222C84.8075 42.1187 84.8663 42.7446 85.1586 43.2942C85.4447 43.844 85.9301 44.2473 86.5211 44.4287C86.7491 44.499 86.9769 44.5339 87.2111 44.5339C88.2345 44.5339 89.1232 43.8789 89.4276 42.9023L91.4452 36.405L94.954 37.4929L92.942 43.99C92.5617 45.2124 93.2465 46.5164 94.4686 46.8965C94.6964 46.9666 94.9244 47.0017 95.1586 47.0017C96.182 47.0017 97.0768 46.3408 97.3749 45.3643L99.3927 38.8728L102.901 39.9607L100.89 46.458C100.51 47.6802 101.2 48.9785 102.422 49.3586C102.644 49.429 102.878 49.4639 103.106 49.4639C104.129 49.4639 105.024 48.8088 105.328 47.8323L107.34 41.3352L109.697 42.0662C111.609 42.657 112.684 44.698 112.088 46.6101Z" fill="#000E3F"/>
<path d="M100.283 56.9324C100.229 56.9324 100.174 56.9243 100.119 56.9072L52.354 42.0952C52.061 42.0044 51.897 41.6931 51.988 41.4002C52.0789 41.1074 52.3906 40.9424 52.6831 41.0342L100.448 55.8462C100.741 55.937 100.905 56.2483 100.814 56.5413C100.74 56.7795 100.52 56.9324 100.283 56.9324Z" fill="#000E3F"/>
<path d="M98.3732 63.092C98.319 63.092 98.2636 63.0839 98.2086 63.0668L50.4447 48.2543C50.1518 48.1635 49.9879 47.8522 50.0788 47.5592C50.1696 47.2665 50.4814 47.1017 50.7738 47.1933L98.538 62.0058C98.831 62.0966 98.9948 62.4079 98.904 62.7008C98.8302 62.9391 98.6103 63.092 98.3732 63.092Z" fill="#000E3F"/>
<path d="M96.4634 69.2513C96.4092 69.2513 96.3538 69.2432 96.2988 69.2261L48.5342 54.4141C48.2412 54.3233 48.0772 54.012 48.1682 53.719C48.259 53.4261 48.5708 53.2613 48.8633 53.3531L96.6279 68.1651C96.9209 68.2559 97.0847 68.5672 96.9941 68.8601C96.9202 69.0987 96.7004 69.2513 96.4634 69.2513Z" fill="#000E3F"/>
<path d="M94.5526 75.4108C94.4984 75.4108 94.443 75.4027 94.3881 75.3857L46.6234 60.5734C46.3305 60.4826 46.1667 60.1713 46.2575 59.8783C46.3483 59.5854 46.6606 59.4206 46.9525 59.5121L94.7172 74.3244C95.0102 74.4152 95.1742 74.7265 95.0834 75.0194C95.0094 75.2582 94.7897 75.4108 94.5526 75.4108Z" fill="#000E3F"/>
<path d="M92.6435 81.5702C92.5893 81.5702 92.5338 81.5621 92.4789 81.545L44.7143 66.733C44.4213 66.6422 44.2575 66.3309 44.3483 66.038C44.4391 65.745 44.7509 65.58 45.0434 65.672L92.808 80.4842C93.101 80.5751 93.2648 80.8863 93.1742 81.1793C93.1002 81.4173 92.8805 81.5702 92.6435 81.5702Z" fill="#000E3F"/>
<path d="M90.7328 87.7298C90.6786 87.7298 90.6232 87.7217 90.5683 87.7046L42.8036 72.8921C42.5107 72.8013 42.3468 72.49 42.4377 72.197C42.529 71.9041 42.8407 71.7393 43.1327 71.8311L90.8974 86.6436C91.1903 86.7344 91.3542 87.0457 91.2636 87.3386C91.1896 87.5769 90.9699 87.7298 90.7328 87.7298Z" fill="#000E3F"/>
<path d="M88.8227 93.8893C88.7685 93.8893 88.713 93.8812 88.6581 93.8641L40.894 79.0519C40.601 78.9611 40.4372 78.6498 40.528 78.3568C40.6188 78.0638 40.9306 77.8988 41.2231 77.9908L88.9872 92.8028C89.2802 92.8937 89.444 93.2049 89.3534 93.4979C89.2795 93.7367 89.0595 93.8893 88.8227 93.8893Z" fill="#000E3F"/>
<path d="M86.9125 100.049C86.8583 100.049 86.8029 100.041 86.748 100.024L38.9833 85.2111C38.6903 85.1202 38.5265 84.809 38.6173 84.516C38.7082 84.223 39.0207 84.058 39.3124 84.15L87.0771 98.9625C87.37 99.0533 87.5338 99.3646 87.4433 99.6576C87.3693 99.8959 87.1496 100.049 86.9125 100.049Z" fill="#000E3F"/>
<path d="M85.0023 106.208C84.9482 106.208 84.8927 106.2 84.8378 106.183L37.0732 91.3712C36.7802 91.2803 36.6164 90.9691 36.7072 90.6761C36.7975 90.3831 37.1105 90.2195 37.4023 90.3101L85.1669 105.122C85.4599 105.213 85.6237 105.524 85.5331 105.817C85.4594 106.055 85.2394 106.208 85.0023 106.208Z" fill="#000E3F"/>
<path d="M65.9429 83.1118L59.6885 89.5369L7.9314 40.6169L5.46313 38.2837L5.06201 37.9041L12.8457 29.9077L13.2334 30.301L15.635 32.7029L17.6055 34.6797L22.6067 39.6926L64.4123 81.5793L65.9429 83.1118Z" fill="#6280FF"/>
<path d="M75.2087 98.4067C74.9468 98.676 74.53 98.7358 74.1804 98.5452L69.1941 95.4568L59.6753 89.5562L59.6885 89.5369L65.9426 83.1118L65.9617 83.0981L72.1033 92.4683L75.3196 97.375C75.4194 97.5471 75.46 97.7363 75.438 97.9182C75.416 98.1003 75.3372 98.2749 75.2087 98.4067Z" fill="#FF8EDE"/>
<path d="M48.6768 58.2364C48.4392 58.4806 48.1257 58.6053 47.8108 58.608C47.4944 58.6122 47.1777 58.4962 46.9351 58.2599L25.9954 37.8773C25.5364 37.4305 24.802 37.4403 24.3552 37.8993L22.6084 39.694L17.605 34.6803L20.2454 31.9679C21.1086 31.0809 22.5269 31.0633 23.4124 31.9252L48.6531 56.4947C49.1401 56.9686 49.1521 57.7479 48.6768 58.2364Z" fill="#FF8EDE"/>
<path d="M13.2335 30.3012L5.46326 38.2839L2.3302 35.341L2.25867 35.2714C0.0311309 33.103 -0.0252656 29.528 2.15393 27.2892C2.22888 27.2123 2.30628 27.1381 2.38391 27.0636C2.43762 27.0143 2.49378 26.9675 2.54749 26.9235C2.57166 26.8989 2.59558 26.8793 2.62512 26.86C2.67102 26.819 2.71912 26.7802 2.77014 26.7443C2.80481 26.714 2.84265 26.6865 2.88538 26.6586C2.93372 26.62 2.9845 26.5839 3.03577 26.5483C3.05994 26.529 3.08679 26.5124 3.11365 26.4958C3.18372 26.4516 3.25086 26.4101 3.318 26.3683C3.39856 26.3183 3.48206 26.2712 3.56555 26.2294C3.63001 26.196 3.69226 26.1655 3.75965 26.1347C4.01551 26.0092 4.27429 25.9081 4.54407 25.8285C4.62244 25.8032 4.69519 25.7831 4.77381 25.7631C4.78186 25.7602 4.78992 25.7573 4.80091 25.7573C4.87366 25.7372 4.94959 25.7199 5.02503 25.7026C5.24134 25.6564 5.46326 25.621 5.68543 25.6071C5.76648 25.5951 5.85071 25.5915 5.93714 25.59C6.19178 25.5759 6.44959 25.5805 6.71009 25.6042C6.82386 25.6135 6.9408 25.6308 7.0575 25.6481C7.16614 25.663 7.27503 25.6833 7.38636 25.7062C7.38904 25.7089 7.3971 25.7114 7.40271 25.7114C8.43274 25.933 9.41053 26.446 10.2074 27.2485L13.2335 30.3012Z" fill="#FF8EDE"/>
<path opacity="0.5" d="M61.0942 82.7006C59.0478 80.9445 57.0624 79.1266 55.0983 77.2873C53.1303 75.4516 51.1984 73.5795 49.2736 71.7004C47.36 69.8095 45.4543 67.9106 43.5844 65.9753C41.7106 64.0439 39.8588 62.0902 38.068 60.0746C37.8742 59.8564 37.8937 59.5216 38.1122 59.3278C38.3127 59.1498 38.6105 59.1518 38.8085 59.3222C40.8534 61.0793 42.8371 62.8986 44.7992 64.7404C46.7651 66.578 48.695 68.4523 50.6173 70.3344C52.528 72.2282 54.432 74.1291 56.2997 76.0666C58.1713 78.0002 60.0216 79.9555 61.8112 81.9723C61.9989 82.184 61.9797 82.5077 61.768 82.6955C61.5736 82.8671 61.2856 82.8654 61.0942 82.7006Z" fill="white"/>
<path d="M72.1033 92.4678L69.1953 95.4561L74.1816 98.5444C74.5305 98.7336 74.9482 98.6748 75.209 98.4067C75.3386 98.2737 75.416 98.1016 75.4363 97.9185C75.4585 97.7375 75.418 97.5479 75.3186 97.376L72.1033 92.4678Z" fill="#FC09B2"/>
<path d="M15.635 32.7029L7.9314 40.6169L5.46313 38.2837L5.06201 37.9041L12.8457 29.9077L13.2334 30.301L15.635 32.7029Z" fill="#FC09B2"/>
<path d="M29.2435 54.8848C29.2952 53.5696 28.0062 52.2517 26.7852 51.9424C25.5765 51.636 24.6563 52.6753 25.5025 54.1653C26.6615 56.2066 29.1763 56.5908 29.2435 54.8848Z" fill="#FC09B2"/>
<path d="M18.0461 43.9853C19.3594 43.8981 20.7114 45.1513 21.0534 46.3634C21.3921 47.5634 20.3782 48.5114 18.8657 47.7057C16.7944 46.602 16.3425 44.0983 18.0461 43.9853Z" fill="#FC09B2"/>
<g opacity="0.18">
<path opacity="0.18" d="M60.3252 88.8835L59.6887 89.5374L7.93164 40.6172L5.46313 38.2839L5.06201 37.9043L7.48193 35.4185C7.48193 35.4238 7.48755 35.4292 7.49023 35.4319C7.83545 35.907 8.76538 36.9192 10.1482 38.3401C11.8445 40.093 14.2188 42.4575 17.0044 45.1958C17.9165 46.0945 18.8809 47.0332 19.875 48.0007C21.5537 49.6455 23.3362 51.3752 25.1765 53.1506C26.1323 54.0757 27.1074 55.0142 28.0852 55.9604C40.5134 67.9299 54.27 80.9248 56.1738 82.5906C58.1218 84.2937 60.6497 86.2141 60.3252 88.8835Z" fill="#000E3F"/>
</g>
<g opacity="0.5">
<path opacity="0.5" d="M7.82947 35.8527L5.46302 38.2839L2.3302 35.341L2.25867 35.2714C0.0311309 33.103 -0.0252656 29.528 2.15393 27.2892C2.22888 27.2123 2.30628 27.1381 2.38391 27.0636C2.43762 27.0143 2.49378 26.9675 2.54749 26.9235C2.57166 26.8989 2.59558 26.8793 2.62512 26.86C2.67102 26.819 2.71912 26.7802 2.77014 26.7443C2.80481 26.714 2.84265 26.6865 2.88538 26.6586C2.93372 26.62 2.9845 26.5839 3.03577 26.5483C3.05994 26.529 3.08679 26.5124 3.11365 26.4958C3.18372 26.4516 3.25086 26.4101 3.318 26.3683C3.39856 26.3183 3.48206 26.2712 3.56555 26.2294C3.63001 26.196 3.69226 26.1655 3.75965 26.1347C4.01551 26.0092 4.27429 25.9081 4.54407 25.8285C4.62244 25.8032 4.69519 25.7831 4.77381 25.7631C4.78186 25.7602 4.78992 25.7573 4.80091 25.7573C4.87366 25.7372 4.94959 25.7199 5.02503 25.7026C5.24134 25.6564 5.46326 25.621 5.68543 25.6071C5.76648 25.5951 5.85071 25.5915 5.93714 25.59C6.19178 25.5759 6.44959 25.5805 6.71009 25.6042C6.82386 25.6135 6.9408 25.6308 7.0575 25.6481C7.16614 25.663 7.27503 25.6833 7.38636 25.7062C7.38904 25.7089 7.3971 25.7114 7.40271 25.7114C7.66687 27.215 7.07141 28.9091 6.3075 30.3427C5.09656 32.6198 6.18079 33.6271 7.49012 35.4313C7.57044 35.5417 7.68372 35.684 7.82947 35.8527Z" fill="#FC09B2"/>
</g>
<path d="M26.2256 49.2043C25.7869 49.6809 25.1194 49.9831 24.5191 49.967C24.0823 49.9575 23.7237 49.7903 23.4534 49.4697C22.7835 48.674 23.1382 47.521 23.8121 46.8403C24.0279 46.622 24.0262 46.2702 23.8082 46.0544C23.5911 45.8388 23.2388 45.841 23.023 46.0583C22.003 47.0888 21.5096 48.8857 22.6038 50.1853C23.0813 50.7527 23.7352 51.0613 24.4954 51.0781C24.5159 51.0783 24.5364 51.0786 24.5572 51.0786C25.4561 51.0786 26.4036 50.6523 27.0438 49.9565C27.2518 49.7307 27.2369 49.3791 27.0113 49.1716C26.7857 48.9643 26.4346 48.9785 26.2256 49.2043Z" fill="#000E3F"/>
<path d="M22.1237 45.1843C22.7421 45.1843 23.4098 44.8747 23.8786 44.3679C24.0871 44.1425 24.0734 43.791 23.8483 43.583C23.6222 43.3747 23.2726 43.3874 23.0631 43.6135C22.8044 43.893 22.3979 44.0842 22.102 44.0727C21.8993 44.0668 21.8044 43.9794 21.7506 43.9138C21.484 43.5893 21.7079 42.9951 22.0675 42.6308C22.2834 42.4125 22.2812 42.0607 22.0629 41.8454C21.8446 41.6298 21.4928 41.6318 21.277 41.8503C20.5558 42.5808 20.1913 43.7663 20.8915 44.6188C21.1789 44.9689 21.5968 45.1696 22.0692 45.1838C22.0873 45.184 22.1054 45.1843 22.1237 45.1843Z" fill="#000E3F"/>
<path d="M31.274 50.8106C31.053 50.5978 30.7005 50.6058 30.4888 50.8268C30.1343 51.1966 29.5459 51.4366 29.2146 51.1783C29.148 51.1266 29.0576 51.0345 29.0462 50.8316C29.0291 50.525 29.2073 50.1246 29.4798 49.8585C29.699 49.6441 29.7032 49.2923 29.4888 49.0726C29.2735 48.8531 28.9217 48.849 28.7029 49.0636C28.1946 49.5604 27.9011 50.2623 27.937 50.8949C27.9639 51.3661 28.1751 51.7787 28.5327 52.056C28.8462 52.2992 29.198 52.4041 29.5545 52.4041C30.189 52.4041 30.8355 52.0709 31.2906 51.5963C31.5032 51.3746 31.4956 51.023 31.274 50.8106Z" fill="#000E3F"/>
<path d="M75.7931 98.5459C75.8959 98.376 75.9662 98.1858 75.9901 97.9861C76.0272 97.6816 75.9615 97.3738 75.785 97.0705L66.4269 82.7939C66.3822 82.7263 66.3207 82.6743 66.2509 82.6343L23.3881 39.6892L24.7535 38.2866C24.8661 38.1709 25.0167 38.1062 25.1786 38.1038C25.3368 38.1094 25.4921 38.1624 25.6075 38.2751L46.5475 58.6577C46.8832 58.9846 47.3248 59.1636 47.7914 59.1636C47.7994 59.1636 47.8073 59.1636 47.8158 59.1636C48.2926 59.1589 48.7399 58.9675 49.0746 58.6235C49.4081 58.2812 49.588 57.8298 49.5812 57.352C49.5748 56.875 49.3824 56.4292 49.0409 56.0962L23.7999 31.5269C22.695 30.4514 20.9222 30.4758 19.8473 31.5798L17.6041 33.8845L10.6019 26.8569C10.59 26.845 10.5756 26.8357 10.5636 26.8237C10.3859 26.6475 10.1976 26.4866 10.0033 26.3347C9.94739 26.2913 9.89075 26.2495 9.83362 26.2083C9.63269 26.0618 9.42542 25.9255 9.21009 25.8052C9.19763 25.7983 9.18616 25.79 9.17347 25.7832C8.9303 25.6499 8.67762 25.5371 8.41907 25.438C8.38416 25.4246 8.34876 25.4126 8.31336 25.3999C8.05628 25.3066 7.79431 25.2278 7.52527 25.1697C7.52405 25.1694 7.52356 25.1689 7.52234 25.1687C7.52185 25.1687 7.52185 25.1687 7.52112 25.1687C7.27332 25.115 7.02137 25.075 6.76551 25.052C6.69861 25.0457 6.63196 25.0464 6.56507 25.0422C6.44349 25.0352 6.32239 25.0244 6.19959 25.0244C6.18933 25.0244 6.17835 25.0244 6.16761 25.0247C6.13733 25.0249 6.10755 25.0291 6.07679 25.0295C5.9552 25.0315 5.8346 25.04 5.71424 25.0493C5.60584 25.0576 5.49842 25.0684 5.39148 25.0823C5.26477 25.0986 5.13904 25.1162 5.01453 25.1404C4.90491 25.1614 4.79749 25.189 4.69007 25.2158C4.57581 25.2444 4.46057 25.2688 4.34729 25.3042C4.14295 25.3679 3.94178 25.4434 3.74524 25.5281C3.66248 25.5637 3.58313 25.6067 3.50135 25.6462C3.36585 25.7117 3.2323 25.7803 3.10218 25.8557C3.02503 25.9004 2.94983 25.9478 2.87439 25.9959C2.73499 26.085 2.59974 26.1804 2.46668 26.281C2.41004 26.324 2.35242 26.365 2.297 26.4104C2.10852 26.5637 1.92517 26.7251 1.7533 26.9021C0.411747 28.2803 -0.157589 30.1279 0.0365027 31.905C0.186649 33.2874 0.799442 34.6272 1.87146 35.6702L59.2089 89.8474C59.2533 89.9192 59.3095 89.9834 59.3829 90.0288L68.9005 95.926C68.9017 95.9268 68.9022 95.928 68.9035 95.9285L70.9777 97.2126L73.9154 99.033C74.1337 99.1521 74.3722 99.2099 74.6083 99.2099C74.9789 99.2099 75.3422 99.0671 75.6078 98.7942C75.6078 98.7942 75.6078 98.7942 75.6078 98.7939L75.6083 98.7937C75.6569 98.7439 75.7001 98.6892 75.7401 98.6323C75.7435 98.6274 75.7482 98.6235 75.7516 98.6186C75.7672 98.5957 75.7787 98.5701 75.7931 98.5459ZM74.8114 98.0193C74.7218 98.1106 74.5756 98.1262 74.4745 98.0723L70.0765 95.3481L72.0189 93.3523L74.8385 97.655C74.8761 97.7205 74.8934 97.79 74.8849 97.8569C74.8798 97.9065 74.8546 97.9446 74.829 97.9814C74.8204 97.9927 74.8204 98.0098 74.8114 98.0193ZM60.5526 89.4463L63.611 86.3044L65.8749 83.979L71.3951 92.3999L69.109 94.749L60.5526 89.4463ZM8.72351 40.6011L15.6481 33.4878L17.1781 35.0212C17.1908 35.0376 17.1969 35.0571 17.2118 35.072L22.2152 40.0857C22.2438 40.1145 22.2763 40.1411 22.3099 40.1653L65.1632 83.1169L59.6732 88.7571L8.72351 40.6011ZM2.55262 27.6765C2.79309 27.4282 3.05457 27.2085 3.33216 27.0178C4.16297 26.4492 5.14319 26.1411 6.17347 26.1357C6.18201 26.1357 6.19129 26.1355 6.19983 26.1355C6.24085 26.1355 6.28089 26.1404 6.32215 26.1414C6.45813 26.145 6.59412 26.1487 6.73059 26.1633C6.73621 26.1638 6.74207 26.1653 6.74768 26.166C6.92688 26.186 7.10681 26.2151 7.28626 26.2544C7.50965 26.3022 7.72669 26.3684 7.93958 26.4453C7.96643 26.4551 7.99378 26.4641 8.02063 26.4744C8.23377 26.5557 8.44153 26.6492 8.641 26.7583C8.65247 26.7644 8.66321 26.772 8.67469 26.7783C8.84998 26.876 9.01795 26.9875 9.18177 27.1057C9.22962 27.1406 9.27723 27.1755 9.32386 27.2124C9.48084 27.3347 9.63221 27.4648 9.77503 27.606C9.78699 27.6177 9.80017 27.6274 9.81165 27.6392L12.0675 29.9131L5.04529 37.127L2.71985 34.9419L2.64783 34.8716C1.77356 34.0208 1.2721 32.9294 1.14466 31.8025C0.979374 30.3386 1.44641 28.8135 2.55262 27.6765ZM12.8507 30.7017L14.8546 32.7097L7.91639 39.8376L5.85535 37.8882L12.8507 30.7017ZM20.6434 32.355C21.2911 31.6909 22.3602 31.675 23.025 32.323L48.2655 56.8923C48.3951 57.0186 48.4681 57.1873 48.4706 57.3677C48.4728 57.5481 48.4049 57.719 48.2787 57.8484C48.2787 57.8486 48.2787 57.8486 48.2787 57.8486C48.1525 57.9783 47.9845 58.0508 47.8036 58.0525C47.6173 58.053 47.4523 57.9873 47.3234 57.8616L26.3832 37.4792C26.0604 37.1648 25.6368 36.9927 25.1874 36.9927C25.1793 36.9927 25.1715 36.9927 25.1639 36.9929C24.7052 36.9988 24.277 37.1831 23.9579 37.5115L22.6036 38.9021L18.389 34.6719L20.6434 32.355Z" fill="#000E3F"/>
<path d="M41.196 23.6823L38.768 22.958C38.6129 22.9118 38.4452 22.9448 38.3192 23.0463L36.3461 24.6359C36.029 24.8915 35.5566 24.6723 35.5465 24.2653L35.485 21.7324C35.4811 21.5707 35.3979 21.4213 35.2624 21.3327L33.1408 19.9475C32.7997 19.7248 32.8622 19.2077 33.2462 19.0725L35.6361 18.2311C35.7887 18.1774 35.9052 18.0522 35.9474 17.8959L36.6093 15.4501C36.7157 15.0571 37.2267 14.9565 37.474 15.2802L39.0126 17.2934C39.1108 17.4218 39.266 17.4938 39.4274 17.4858L41.9579 17.3596C42.3647 17.3393 42.6181 17.7944 42.3869 18.1296L40.9477 20.215C40.8559 20.3481 40.8354 20.518 40.893 20.6691L41.7951 23.0368C41.9406 23.4172 41.5863 23.7988 41.196 23.6823Z" fill="#FDD502"/>
<path d="M121.076 101.706L119.272 99.9263C119.156 99.8128 118.993 99.763 118.834 99.7935L116.346 100.271C115.946 100.347 115.631 99.9322 115.814 99.5682L116.948 97.3028C117.021 97.1583 117.017 96.9871 116.939 96.8455L115.716 94.6265C115.52 94.2698 115.817 93.8426 116.22 93.9034L118.725 94.2825C118.885 94.3067 119.047 94.2508 119.158 94.1326L120.89 92.2838C121.169 91.9866 121.667 92.1378 121.733 92.5396L122.147 95.0394C122.173 95.199 122.276 95.3353 122.423 95.4041L124.717 96.4805C125.085 96.6536 125.096 97.1744 124.734 97.3616L122.484 98.5274C122.341 98.6019 122.243 98.7422 122.223 98.9026L121.908 101.417C121.858 101.821 121.366 101.992 121.076 101.706Z" fill="#FDD502"/>
<path d="M108.097 116.399L106.355 114.993C106.244 114.903 106.095 114.874 105.959 114.914L103.813 115.552C103.468 115.655 103.155 115.317 103.284 114.981L104.083 112.89C104.134 112.756 104.116 112.606 104.035 112.489L102.765 110.645C102.561 110.349 102.785 109.947 103.145 109.965L105.38 110.079C105.523 110.086 105.66 110.023 105.747 109.909L107.108 108.132C107.327 107.847 107.778 107.936 107.872 108.283L108.454 110.445C108.492 110.583 108.594 110.693 108.729 110.741L110.84 111.486C111.179 111.606 111.234 112.063 110.932 112.26L109.057 113.481C108.937 113.56 108.864 113.691 108.86 113.834L108.803 116.072C108.794 116.432 108.376 116.625 108.097 116.399Z" fill="#FDD502"/>
<path d="M115.584 83.9343L113.885 82.9973C113.776 82.9375 113.645 82.935 113.534 82.9902L111.799 83.8589C111.52 83.9985 111.202 83.7578 111.261 83.4514L111.627 81.5456C111.65 81.4241 111.612 81.2986 111.525 81.2104L110.163 79.8286C109.944 79.6064 110.075 79.2297 110.384 79.1909L112.31 78.9502C112.433 78.9348 112.54 78.8598 112.597 78.75L113.49 77.0273C113.634 76.7505 114.033 76.7583 114.165 77.0408L114.989 78.7976C115.042 78.9097 115.146 78.9888 115.268 79.009L117.183 79.3262C117.49 79.3772 117.606 79.7588 117.379 79.9722L115.962 81.2988C115.872 81.3835 115.829 81.5073 115.847 81.6296L116.137 83.5483C116.184 83.8569 115.857 84.0847 115.584 83.9343Z" fill="#FDD502"/>
<path d="M76.028 19.4203L74.3852 18.3874C74.2802 18.3215 74.1498 18.3115 74.0358 18.3603L72.2536 19.1281C71.967 19.2516 71.6635 18.9929 71.7397 18.6904L72.2143 16.8088C72.2445 16.6887 72.2138 16.5615 72.132 16.4682L70.851 15.0104C70.6452 14.7761 70.7973 14.4074 71.1086 14.3864L73.0448 14.2565C73.1684 14.2482 73.2799 14.1796 73.3432 14.0732L74.3337 12.4045C74.4928 12.1362 74.8906 12.1672 75.0068 12.4565L75.7287 14.2577C75.7748 14.3727 75.8744 14.4577 75.9953 14.4848L77.8886 14.9113C78.1928 14.9799 78.2866 15.3676 78.047 15.5676L76.5571 16.8107C76.4618 16.8901 76.412 17.0112 76.4235 17.1345L76.603 19.0668C76.632 19.3774 76.2922 19.5864 76.028 19.4203Z" fill="#FDD502"/>
<path d="M57.1045 12.9741L55.3969 12.0517C55.2878 11.9929 55.157 11.9914 55.0466 12.0478L53.3188 12.9313C53.0412 13.0734 52.7209 12.8354 52.7773 12.5285L53.1269 10.6196C53.1491 10.4977 53.1101 10.3727 53.0224 10.2853L51.6482 8.91522C51.4272 8.695 51.5549 8.31707 51.864 8.27557L53.7873 8.018C53.9101 8.00164 54.0171 7.92571 54.073 7.81536L54.9514 6.08489C55.0925 5.80682 55.4914 5.81121 55.6264 6.09246L56.4656 7.84222C56.519 7.95403 56.6242 8.03216 56.7466 8.0512L58.6638 8.35198C58.9719 8.40032 59.091 8.78094 58.8652 8.99627L57.4604 10.3351C57.3706 10.4206 57.3288 10.5446 57.3484 10.6669L57.6548 12.5832C57.7043 12.8915 57.3789 13.1222 57.1045 12.9741Z" fill="#FDD502"/>
</g>
<defs>
<clipPath id="clip0">
<rect width="125" height="125" fill="white"/>
</clipPath>
</defs>
</svg>
