<svg width="200" height="200" viewBox="0 0 200 200" fill="none" xmlns="http://www.w3.org/2000/svg">
<path d="M68.416 63.2917L117.835 150.16C118.516 151.357 118.095 152.887 116.891 153.573L54.7434 188.929C53.5391 189.614 52.0082 189.193 51.3273 187.997L1.90781 101.128C1.22695 99.9312 1.64727 98.4007 2.85195 97.7152L65 62.3597C66.2043 61.6745 67.7352 62.0952 68.416 63.2917Z" fill="white"/>
<path opacity="0.18" d="M114.013 143.442L117.835 150.16C118.516 151.357 118.095 152.887 116.891 153.573L54.7434 188.928C53.5391 189.614 52.0082 189.193 51.3273 187.996L1.90781 101.128C1.22695 99.9312 1.64727 98.4007 2.85195 97.7151L8.0582 94.7534C21.6078 114.651 41.6801 142.302 65.4023 147.554C79.8062 150.721 99.8832 147.425 114.013 143.442Z" fill="#000E3F"/>
<path d="M43.4932 147.637C43.2178 147.637 42.9514 147.493 42.8053 147.237C42.5901 146.858 42.7225 146.375 43.1018 146.159L86.0596 121.696C86.4397 121.481 86.9213 121.614 87.1373 121.993C87.3526 122.372 87.2201 122.855 86.8408 123.071L43.883 147.534C43.7592 147.603 43.6252 147.637 43.4932 147.637Z" fill="#000E3F"/>
<path d="M48.5986 156.603C48.3232 156.603 48.0568 156.459 47.9103 156.203C47.695 155.824 47.8275 155.341 48.2068 155.125L91.1638 130.664C91.5439 130.45 92.0255 130.582 92.2419 130.961C92.4572 131.34 92.3247 131.822 91.9454 132.039L48.9884 156.5C48.865 156.569 48.731 156.603 48.5986 156.603Z" fill="#000E3F"/>
<path d="M38.3906 138.668C38.1153 138.668 37.8492 138.525 37.7028 138.269C37.4875 137.889 37.6199 137.407 37.9992 137.191L80.957 112.728C81.3371 112.513 81.818 112.646 82.0352 113.025C82.2504 113.404 82.118 113.887 81.7387 114.103L38.7805 138.565C38.6571 138.635 38.5231 138.668 38.3906 138.668Z" fill="#000E3F"/>
<path d="M33.2881 129.7C33.0131 129.7 32.7463 129.556 32.6002 129.3C32.385 128.921 32.5174 128.438 32.8967 128.222L75.8545 103.76C76.2358 103.544 76.7154 103.678 76.9322 104.056C77.1475 104.436 77.015 104.918 76.6357 105.134L33.678 129.596C33.5545 129.666 33.4205 129.7 33.2881 129.7Z" fill="#000E3F"/>
<path d="M28.187 120.731C27.9116 120.731 27.6456 120.587 27.4991 120.331C27.2839 119.952 27.4163 119.469 27.7956 119.253L70.7534 94.791C71.1335 94.5757 71.6144 94.7089 71.8316 95.0875C72.0468 95.4668 71.9144 95.9492 71.5351 96.1656L28.5769 120.628C28.4534 120.698 28.3191 120.731 28.187 120.731Z" fill="#000E3F"/>
<path d="M23.085 111.763C22.81 111.763 22.5432 111.619 22.3971 111.363C22.1819 110.984 22.3143 110.501 22.6936 110.285L65.6514 85.8227C66.0326 85.6075 66.5123 85.7407 66.7295 86.1192C66.9447 86.4985 66.8123 86.9809 66.433 87.1973L23.4748 111.659C23.3514 111.729 23.2174 111.763 23.085 111.763Z" fill="#000E3F"/>
<path d="M17.9834 102.794C17.708 102.794 17.4416 102.65 17.2955 102.394C17.0803 102.015 17.2127 101.532 17.592 101.316L60.5498 76.854C60.9299 76.6387 61.4108 76.7719 61.628 77.1504C61.8432 77.5297 61.7108 78.0122 61.3315 78.2286L18.3737 102.691C18.2498 102.76 18.1158 102.794 17.9834 102.794Z" fill="#000E3F"/>
<path d="M53.7041 165.569C53.4287 165.569 53.1623 165.426 53.0162 165.17C52.801 164.79 52.9334 164.308 53.3127 164.092L96.2705 139.629C96.6506 139.415 97.1315 139.547 97.3486 139.926C97.5639 140.305 97.4315 140.788 97.0522 141.004L54.094 165.466C53.9705 165.536 53.8365 165.569 53.7041 165.569Z" fill="#000E3F"/>
<path d="M67.1172 169.805C66.8422 169.805 66.5754 169.662 66.4293 169.406C66.2141 169.026 66.3465 168.544 66.7258 168.328L93.0696 153.327C93.4508 153.113 93.9305 153.245 94.1477 153.624C94.3629 154.003 94.2305 154.485 93.8512 154.701L67.5074 169.702C67.3836 169.772 67.2492 169.805 67.1172 169.805Z" fill="#000E3F"/>
<path d="M66.2395 62.0308C67.1109 62.0308 67.9567 62.4847 68.416 63.2917L117.835 150.16C118.516 151.357 118.095 152.887 116.891 153.573L54.7434 188.929C54.3512 189.152 53.9242 189.258 53.5039 189.258C52.6324 189.258 51.7867 188.804 51.3277 187.997L1.90822 101.128C1.22736 99.9312 1.64767 98.4007 2.85236 97.7156L65 62.3597C65.3918 62.1367 65.8188 62.0308 66.2395 62.0308ZM66.2399 60.45C65.5332 60.45 64.8344 60.6351 64.2184 60.9855L2.07033 96.3414C1.1215 96.8812 0.439467 97.7574 0.149233 98.8093C-0.141392 99.8621 -0.00467366 100.963 0.534389 101.91L49.9531 188.778C50.6762 190.049 52.0363 190.838 53.5031 190.838C54.2094 190.838 54.9086 190.653 55.5246 190.303L117.672 154.947C118.621 154.407 119.304 153.531 119.594 152.479C119.884 151.426 119.748 150.325 119.209 149.378L69.7899 62.5101C69.0668 61.2394 67.7067 60.45 66.2399 60.45Z" fill="#000E3F"/>
<path d="M114.327 25.2371L142.814 121.032C143.207 122.352 142.451 123.748 141.123 124.143L72.5879 144.524C71.2598 144.919 69.8641 144.163 69.4715 142.843L40.9836 47.0476C40.591 45.7277 41.3469 44.332 42.675 43.9371L111.21 23.5562C112.538 23.1613 113.934 23.9172 114.327 25.2371Z" fill="white"/>
<path d="M63.2799 61.4163C64.7967 58.2237 69.5061 56.6968 72.796 57.4835C76.0526 58.262 76.9452 61.8815 73.0749 64.3706C67.7733 67.7796 61.3124 65.5577 63.2799 61.4163Z" fill="#FF8EDE"/>
<path d="M103.505 49.4542C100.49 47.6093 95.7112 48.9038 93.3862 51.3601C91.0842 53.7917 92.3143 57.3109 96.9159 57.2804C103.219 57.239 107.415 51.8476 103.505 49.4542Z" fill="#FF8EDE"/>
<path opacity="0.18" d="M140.611 113.624L142.814 121.032C143.207 122.352 142.451 123.748 141.123 124.143L72.5879 144.524C71.2598 144.919 69.8641 144.163 69.4715 142.843L40.9836 47.0477C40.591 45.7278 41.3469 44.3321 42.675 43.9372L48.4164 42.2297C57.1137 64.6766 70.4109 96.1516 92.3301 106.633C105.644 112.976 125.946 114.307 140.611 113.624Z" fill="#000E3F"/>
<path d="M71.1472 101.778C70.8066 101.778 70.4917 101.556 70.3894 101.213C70.2652 100.794 70.5031 100.355 70.9214 100.23L118.3 86.1198C118.723 85.9937 119.158 86.2335 119.283 86.6519C119.408 87.0706 119.169 87.5101 118.751 87.6355L71.373 101.745C71.2968 101.767 71.221 101.778 71.1472 101.778Z" fill="#000E3F"/>
<path d="M74.0925 111.667C73.7519 111.667 73.437 111.446 73.3347 111.103C73.2105 110.684 73.4484 110.244 73.8667 110.119L121.245 96.0085C121.67 95.8851 122.105 96.1222 122.229 96.5401C122.353 96.9593 122.115 97.3983 121.697 97.5237L74.3187 111.634C74.2425 111.657 74.1663 111.667 74.0925 111.667Z" fill="#000E3F"/>
<path d="M68.2068 91.8877C67.8661 91.8877 67.5513 91.6662 67.449 91.3233C67.3247 90.9045 67.5626 90.4651 67.981 90.3397L115.358 76.2292C115.781 76.1022 116.217 76.344 116.342 76.7612C116.466 77.1803 116.228 77.6194 115.81 77.7448L68.4325 91.8553C68.3568 91.8772 68.2806 91.8877 68.2068 91.8877Z" fill="#000E3F"/>
<path d="M77.0378 121.556C76.6972 121.556 76.3824 121.334 76.28 120.991C76.1558 120.572 76.3937 120.133 76.812 120.008L124.189 105.897C124.611 105.771 125.048 106.011 125.173 106.429C125.297 106.848 125.059 107.287 124.641 107.413L77.2636 121.523C77.1878 121.545 77.112 121.556 77.0378 121.556Z" fill="#000E3F"/>
<path d="M89.1452 128.716C88.8046 128.716 88.4898 128.494 88.3874 128.151C88.2632 127.732 88.5011 127.293 88.9195 127.168L117.973 118.515C118.398 118.392 118.833 118.629 118.957 119.047C119.081 119.466 118.843 119.905 118.425 120.031L89.371 128.683C89.2952 128.705 89.2191 128.716 89.1452 128.716Z" fill="#000E3F"/>
<path d="M82.394 58.3264C81.4659 58.3264 80.5354 58.1025 79.6354 57.6553C77.6038 56.6459 75.9569 54.5783 75.3378 52.2576C75.2257 51.8361 75.4764 51.4029 75.8979 51.29C76.3159 51.1842 76.7538 51.4275 76.8655 51.8502C77.3632 53.7158 78.7268 55.4389 80.3385 56.2396C81.1905 56.6639 82.5296 57.0361 84.0718 56.4064C87.0409 55.1908 87.7467 51.6049 86.9018 48.8482C86.7741 48.431 87.0085 47.9889 87.4268 47.8611C87.8405 47.7357 88.2862 47.9678 88.4139 48.3861C89.4628 51.8115 88.5073 56.2986 84.6702 57.8689C83.9237 58.1736 83.1596 58.3264 82.394 58.3264Z" fill="#000E3F"/>
<path d="M94.345 47.0406C93.8122 47.0406 93.2751 46.9129 92.7501 46.657C91.4173 46.0086 90.272 44.5371 89.8321 42.909C89.7185 42.4875 89.9681 42.0531 90.3888 41.9395C90.8079 41.8273 91.2446 42.0746 91.3583 42.4961C91.6794 43.6844 92.5165 44.7852 93.4419 45.2359C93.995 45.5051 94.5392 45.5297 95.0564 45.3109C96.5259 44.6883 96.7943 42.6309 96.3001 41.0133C96.1732 40.5953 96.4075 40.1539 96.8247 40.0262C97.2501 39.8973 97.6857 40.1336 97.8118 40.5508C98.5068 42.8293 97.9947 45.7828 95.6736 46.7664C95.2411 46.9496 94.795 47.0406 94.345 47.0406Z" fill="#000E3F"/>
<path d="M67.7288 54.9425C65.5429 54.9425 63.7921 52.9347 63.1878 50.8468C63.0671 50.4269 63.3085 49.9894 63.7277 49.8675C64.1449 49.7476 64.5851 49.9894 64.707 50.4074C65.1773 52.0331 66.5206 53.6077 68.096 53.3281C68.6499 53.2284 69.091 52.9109 69.4077 52.3824C69.9363 51.4991 70.0359 50.1198 69.6558 48.9499C69.5206 48.5355 69.7476 48.089 70.1628 47.9538C70.5784 47.8206 71.0238 48.0456 71.1589 48.4609C71.68 50.0644 71.5257 51.9222 70.7636 53.1937C70.2105 54.1183 69.3839 54.7031 68.3745 54.8839C68.1558 54.9234 67.9406 54.9425 67.7288 54.9425Z" fill="#000E3F"/>
<path d="M111.927 23.4511C113.008 23.4511 114.005 24.1542 114.326 25.237L142.814 121.032C143.207 122.352 142.451 123.748 141.122 124.143L72.5877 144.524C72.3491 144.595 72.108 144.629 71.8709 144.629C70.7905 144.629 69.7936 143.926 69.4717 142.843L40.9838 47.0479C40.5916 45.728 41.3471 44.3323 42.6756 43.937L111.21 23.5562C111.449 23.4851 111.69 23.4511 111.927 23.4511ZM111.927 21.8706C111.532 21.8706 111.139 21.928 110.759 22.0409L42.2245 42.4218C40.0635 43.0644 38.8268 45.3417 39.4682 47.4979L67.9561 143.294C68.4666 145.01 70.0764 146.21 71.8705 146.21C72.2651 146.21 72.658 146.152 73.0381 146.039L141.573 125.658C142.619 125.348 143.481 124.648 144.003 123.689C144.524 122.73 144.64 121.626 144.33 120.582L115.842 24.7866C115.331 23.0694 113.721 21.8706 111.927 21.8706Z" fill="#000E3F"/>
<path d="M170.503 75.5404C170.376 75.4861 170.232 75.4501 170.087 75.4228C169.934 75.3955 169.771 75.3865 169.599 75.3865C169.582 75.3865 169.561 75.39 169.544 75.3904C169.434 75.3916 169.315 75.4029 169.197 75.4134C169.105 75.422 169.013 75.4306 168.918 75.4439C168.781 75.463 168.641 75.4869 168.496 75.5166C168.405 75.5349 168.311 75.5576 168.218 75.5794C168.069 75.615 167.922 75.649 167.766 75.6935C167.523 75.7623 167.273 75.84 167.016 75.9279C166.6 76.0724 166.167 76.2349 165.724 76.4248C165.426 76.5513 165.128 76.6775 164.83 76.822C163.927 77.2376 163.014 77.7072 162.156 78.1771C161.867 78.3396 161.587 78.4931 161.316 78.656C161.181 78.7283 161.045 78.8095 160.91 78.8908C160.513 79.1255 160.133 79.3517 159.79 79.5681C159.555 79.7126 159.329 79.8572 159.122 79.9927C158.914 80.1283 158.724 80.2548 158.552 80.372C158.209 80.6068 157.929 80.8146 157.731 80.9685C157.252 81.3568 157.179 82.0525 157.559 82.5404C157.785 82.8115 158.11 82.956 158.435 82.956C158.679 82.956 158.923 82.8748 159.131 82.7123C159.429 82.4685 159.836 82.1791 160.332 81.863C160.531 81.7365 160.739 81.6009 160.956 81.4654C161.94 80.8603 163.141 80.1826 164.334 79.5595C164.731 79.3517 165.129 79.1529 165.517 78.9634C165.644 78.9001 165.779 78.8369 165.906 78.7826C166.158 78.6654 166.402 78.5478 166.646 78.4396C167.856 77.9068 168.868 77.5544 169.401 77.5544C169.473 77.5544 169.537 77.5634 169.591 77.5724C170.196 77.8435 169.763 78.5568 168.48 83.2904C167.821 85.7205 166.845 89.2884 164.831 96.1716C156.331 97.6712 153.937 107.644 157.929 110.968C158.58 111.51 159.311 111.781 160.034 111.781C160.748 111.781 161.452 111.519 162.057 110.995C162.97 110.209 163.358 108.917 163.638 107.968C170.774 84.0943 170.431 84.2388 171.768 79.8306C172.011 79.0181 172.761 76.5431 170.503 75.5404ZM161.606 103.615C160.928 106 160.395 107.897 160.061 108.095C160.016 108.077 159.853 107.969 159.682 107.653C159.519 107.346 159.04 106.226 159.618 104.365C160.223 102.396 161.597 101.167 162.464 100.652C162.129 101.781 161.849 102.757 161.606 103.615Z" fill="#F1A040"/>
<path d="M171.144 74.095C170.693 73.8961 170.177 73.8059 169.599 73.8059C167.594 73.8059 164.703 75.0254 162.156 76.3805C159.609 77.7356 157.405 79.2168 156.745 79.7407C155.589 80.6711 155.4 82.3692 156.33 83.5254C156.845 84.1668 157.613 84.5372 158.434 84.5372C159.04 84.5372 159.645 84.3204 160.115 83.9411C161.632 82.7215 165.562 80.5899 167.865 79.6325C167.829 79.75 167.793 79.8762 167.757 80.0028C167.549 80.7434 167.278 81.6829 166.952 82.8754C166.338 85.1426 165.417 88.5211 163.574 94.8258C158.516 96.1086 155.761 100.056 154.848 103.47C153.909 107.002 154.704 110.336 156.917 112.178C157.838 112.946 158.922 113.361 160.033 113.361C161.144 113.361 162.201 112.955 163.086 112.196C164.351 111.103 164.83 109.486 165.155 108.42C170.069 91.9711 171.442 86.9215 172.255 83.9047C172.625 82.5407 172.87 81.6375 173.276 80.2825C174.495 76.2719 172.463 74.6821 171.144 74.095ZM171.768 79.8309C170.431 84.2391 170.774 84.0946 163.638 107.969C163.358 108.917 162.97 110.209 162.057 110.995C161.452 111.519 160.747 111.781 160.034 111.781C159.311 111.781 158.579 111.51 157.929 110.968C153.936 107.644 156.33 97.6711 164.831 96.1719C166.845 89.2891 167.82 85.7208 168.48 83.2907C169.762 78.5575 170.196 77.8438 169.591 77.5727C169.536 77.5637 169.473 77.5547 169.401 77.5547C168.868 77.5547 167.856 77.9071 166.646 78.4399C166.402 78.5481 166.158 78.6657 165.905 78.7829C165.779 78.8372 165.643 78.9004 165.517 78.9637C165.128 79.1536 164.731 79.352 164.334 79.5598C163.141 80.1833 161.94 80.8606 160.955 81.4657C160.738 81.6012 160.531 81.7364 160.332 81.8633C159.835 82.1793 159.429 82.4684 159.131 82.7126C158.923 82.8751 158.679 82.9563 158.435 82.9563C158.11 82.9563 157.784 82.8118 157.559 82.5407C157.179 82.0528 157.252 81.3575 157.73 80.9688C157.929 80.8153 158.209 80.6075 158.552 80.3723C158.724 80.2551 158.922 80.1196 159.121 79.993C159.329 79.8575 159.555 79.7129 159.79 79.5684C160.133 79.3516 160.512 79.1168 160.909 78.8911C161.045 78.8098 161.181 78.7286 161.316 78.6563C161.587 78.4938 161.867 78.3309 162.156 78.1774C163.014 77.7079 163.926 77.2379 164.83 76.8223C165.128 76.6778 165.426 76.5512 165.724 76.425C166.167 76.2352 166.6 76.0727 167.016 75.9282C167.274 75.8383 167.522 75.7633 167.766 75.6938C167.921 75.6501 168.069 75.6149 168.217 75.5797C168.311 75.5575 168.405 75.5352 168.495 75.5168C168.64 75.4872 168.781 75.4633 168.917 75.4442C169.013 75.4305 169.105 75.4215 169.196 75.4137C169.315 75.4028 169.433 75.3922 169.544 75.3907C169.736 75.3887 169.922 75.3938 170.087 75.4231C170.231 75.45 170.376 75.4864 170.502 75.5407C172.761 76.543 172.011 79.018 171.768 79.8309Z" fill="#1E1A33"/>
<path d="M163.53 98.8362C162.193 98.4386 159.113 100.634 158.101 103.895C157.415 106.126 157.875 107.878 158.526 108.782C158.932 109.342 159.465 109.658 160.007 109.667H160.052C161.533 109.667 161.904 108.348 163.132 104.039C163.43 102.991 163.783 101.745 164.216 100.273C164.262 100.119 164.279 99.9835 164.279 99.857C164.279 99.3152 163.927 98.9628 163.53 98.8362ZM161.606 103.615C160.928 106 160.395 107.896 160.061 108.095C160.016 108.077 159.853 107.969 159.682 107.653C159.519 107.346 159.04 106.225 159.619 104.365C160.224 102.396 161.597 101.167 162.464 100.652C162.129 101.781 161.849 102.757 161.606 103.615Z" fill="#1E1A33"/>
<path d="M164.18 51.8467L161.606 61.3674C161.371 61.2229 161.118 61.1053 160.847 61.033L157.297 60.0666C157.026 59.9944 156.746 59.9674 156.475 59.9854L159.058 50.4557C159.275 49.6424 160.124 49.1549 160.937 49.3807L163.096 49.9588C163.909 50.1846 164.397 51.0244 164.18 51.8467Z" fill="white"/>
<path d="M127.853 171.804L129.557 165.503C129.574 165.442 129.595 165.387 129.621 165.334C129.732 165.389 129.847 165.432 129.964 165.463L131.324 165.831C131.447 165.865 131.568 165.885 131.691 165.895C131.687 165.954 131.678 166.011 131.661 166.073L129.957 172.373C129.8 172.955 129.197 173.297 128.621 173.141C128.039 172.983 127.696 172.385 127.853 171.804Z" fill="white"/>
<path d="M162.717 64.2761L137.117 158.915C136.828 159.981 135.925 160.712 134.904 160.848C134.561 160.893 134.218 160.875 133.866 160.776L130.325 159.818C129.972 159.728 129.665 159.566 129.395 159.358C128.572 158.725 128.166 157.632 128.455 156.567L154.055 61.937C154.362 60.7988 155.356 60.0402 156.476 59.9859C156.747 59.9679 157.027 59.9948 157.298 60.0671L160.848 61.0335C161.119 61.1058 161.372 61.2234 161.607 61.3679C162.536 61.982 163.024 63.1468 162.717 64.2761Z" fill="white"/>
<path d="M160.939 49.3768L163.094 49.9597C163.913 50.1811 164.398 51.0261 164.176 51.8444L163.311 55.0444L158.188 53.6589L159.054 50.4589C159.275 49.6405 160.12 49.1554 160.939 49.3768Z" fill="#8E8C99"/>
<path d="M128.454 162.833L129.394 159.358C129.661 159.569 129.973 159.725 130.32 159.819L133.867 160.778C134.214 160.872 134.563 160.894 134.899 160.847L133.96 164.322C133.684 165.34 132.71 165.99 131.691 165.894C131.567 165.885 131.447 165.864 131.324 165.831L129.964 165.463C129.846 165.431 129.732 165.388 129.621 165.334C128.691 164.909 128.177 163.857 128.454 162.833Z" fill="#8E8C99"/>
<path d="M129.394 159.359L130.927 153.691C130.977 153.506 131.048 153.333 131.144 153.179C131.618 152.359 132.601 151.921 133.558 152.18L134.917 152.548C134.985 152.566 135.045 152.589 135.11 152.612C135.962 152.927 136.508 153.747 136.504 154.629C136.509 154.81 136.483 154.996 136.433 155.18L134.9 160.848C134.563 160.895 134.215 160.873 133.868 160.779L130.32 159.819C129.974 159.725 129.662 159.569 129.394 159.359Z" fill="#8E8C99"/>
<path d="M157.298 60.0694L160.848 61.0295C162.26 61.4111 163.096 62.8662 162.714 64.2779L159.752 75.2295L151.088 72.8862L154.05 61.9346C154.432 60.5229 155.887 59.6873 157.298 60.0694Z" fill="#F1A040"/>
<path d="M128.455 156.57L132.938 139.997L141.599 142.339L137.116 158.913C136.827 159.981 135.926 160.716 134.9 160.847C134.563 160.894 134.215 160.872 133.868 160.778L130.32 159.818C129.973 159.725 129.661 159.568 129.394 159.358C128.57 158.721 128.167 157.633 128.455 156.57Z" fill="#F1A040"/>
<path d="M132.25 142.54L131.558 145.097L140.22 147.44L140.911 144.883L132.25 142.54Z" fill="#F1A040"/>
<path d="M130.87 147.636L130.179 150.193L138.84 152.536L139.532 149.979L130.87 147.636Z" fill="#F1A040"/>
<path d="M129.491 152.734L128.8 155.291L137.461 157.633L138.153 155.076L129.491 152.734Z" fill="#F1A040"/>
<path d="M133.628 137.442L132.936 139.999L141.598 142.341L142.289 139.784L133.628 137.442Z" fill="#F1A040"/>
<path d="M157.299 60.0694L160.849 61.0295C162.26 61.4111 163.096 62.8662 162.714 64.2779L160.526 72.3666L151.862 70.0233L154.05 61.9346C154.432 60.5229 155.887 59.6873 157.299 60.0694Z" fill="#F1A040"/>
<path opacity="0.5" d="M136.638 133.723C138.386 126.257 140.436 118.879 142.561 111.523C144.716 104.175 146.947 96.8504 149.483 89.6144C149.576 89.3488 149.867 89.209 150.133 89.302C150.38 89.3887 150.518 89.65 150.46 89.8996C148.705 97.3633 146.645 104.738 144.508 112.091C142.341 119.435 140.101 126.757 137.557 133.991C137.469 134.241 137.196 134.372 136.946 134.284C136.713 134.202 136.584 133.957 136.638 133.723Z" fill="white"/>
<path opacity="0.25" d="M152.631 67.1843L154.051 61.9359C154.358 60.7999 155.357 60.0374 156.476 59.9859C156.745 59.9687 157.026 59.9964 157.3 60.0706L160.847 61.03C161.121 61.1042 161.372 61.2203 161.601 61.3722C162.536 61.9792 163.02 63.1429 162.713 64.2788L137.116 158.914C136.827 159.982 135.926 160.717 134.899 160.848C134.562 160.895 134.214 160.873 133.867 160.779L132.815 160.494C133.167 159.262 133.536 157.987 133.915 156.673C134.159 155.838 134.406 154.992 134.657 154.129C134.804 153.629 134.953 153.123 135.11 152.612C135.206 152.278 135.302 151.944 135.4 151.604C135.649 150.771 135.904 149.921 136.153 149.064C136.401 148.236 136.654 147.392 136.902 146.54C137.153 145.701 137.406 144.857 137.655 144C137.904 143.166 138.156 142.327 138.41 141.477C138.66 140.639 138.907 139.793 139.163 138.937C146.219 115.133 154.248 87.0949 154.044 73.6851C154.026 72.5277 153.944 71.4785 153.799 70.5503C153.578 69.1273 153.194 67.9906 152.631 67.1843Z" fill="#1E1A33"/>
<path d="M165.4 49.8957C164.984 49.173 164.307 48.6492 163.503 48.4324L161.353 47.8543C161.082 47.782 160.811 47.7461 160.54 47.7461C159.131 47.7461 157.893 48.6945 157.532 50.0492L155.201 58.6395C153.919 59.082 152.898 60.148 152.528 61.5211L126.928 156.16C126.585 157.443 126.856 158.77 127.633 159.8L126.928 162.42C126.576 163.702 126.937 165.03 127.805 165.942L126.323 171.389C126.143 172.076 126.233 172.798 126.585 173.421C126.946 174.036 127.516 174.479 128.211 174.668C128.437 174.732 128.671 174.759 128.907 174.759C130.108 174.759 131.165 173.946 131.481 172.789L132.962 167.324C134.173 166.963 135.148 165.996 135.483 164.732L136.187 162.121C137.371 161.643 138.292 160.613 138.644 159.321L164.244 64.6918C164.614 63.3187 164.271 61.8914 163.376 60.8527L165.698 52.2531C165.923 51.4582 165.815 50.6094 165.4 49.8957ZM129.954 172.374C129.828 172.862 129.385 173.178 128.907 173.178C128.807 173.178 128.717 173.169 128.618 173.142C128.039 172.98 127.696 172.384 127.85 171.805L129.187 166.864C129.304 166.918 129.421 166.955 129.548 166.991L130.912 167.361C131.038 167.388 131.165 167.415 131.291 167.442L129.954 172.374ZM133.955 164.326C133.847 164.741 133.612 165.094 133.314 165.355C132.926 165.708 132.42 165.907 131.887 165.907C131.823 165.907 131.76 165.898 131.688 165.898C131.571 165.889 131.444 165.862 131.327 165.834L129.963 165.464C129.846 165.428 129.728 165.392 129.619 165.337C129.068 165.085 128.662 164.615 128.49 164.055C128.355 163.675 128.336 163.251 128.454 162.836L128.96 160.957C129.258 161.128 129.574 161.255 129.908 161.345L133.458 162.303C133.792 162.393 134.135 162.447 134.47 162.456L133.955 164.326ZM162.717 64.2762L137.117 158.915C137.072 159.078 137.018 159.231 136.937 159.375C136.548 160.188 135.771 160.73 134.904 160.848C134.787 160.866 134.669 160.875 134.552 160.875C134.326 160.875 134.1 160.839 133.866 160.775L130.325 159.818C129.972 159.728 129.665 159.565 129.394 159.357C128.699 158.825 128.301 157.966 128.374 157.072C128.383 156.9 128.41 156.738 128.455 156.566L154.055 61.9367C154.154 61.5574 154.335 61.2141 154.588 60.934C155.039 60.3742 155.726 60.0219 156.476 59.9855C156.53 59.9855 156.584 59.9766 156.629 59.9766C156.855 59.9766 157.081 60.0125 157.298 60.0668L160.848 61.0332C161.119 61.1055 161.371 61.223 161.607 61.3676C162.212 61.7648 162.636 62.4062 162.763 63.1199C162.834 63.4992 162.825 63.8875 162.717 64.2762ZM164.18 51.8469L162.021 59.8047C161.777 59.6691 161.524 59.5789 161.262 59.5066L157.712 58.5402C157.45 58.477 157.179 58.4227 156.908 58.4047L159.058 50.4559C159.239 49.7785 159.862 49.3266 160.539 49.3266C160.666 49.3266 160.801 49.3445 160.937 49.3805L163.096 49.9586C163.909 50.1848 164.397 51.0246 164.18 51.8469Z" fill="#1E1A33"/>
<path d="M26.627 22.7406C25.547 21.6035 24.5774 20.6718 24.1743 19.6949C23.7743 18.7258 24.9251 17.8617 25.6872 18.4476C26.9348 19.4058 28.302 21.5707 28.6817 21.4269C29.0559 21.2851 28.8891 20.7738 28.8938 20.4172C28.92 18.4347 28.7723 17.2242 29.0243 15.9293C29.2153 14.9465 30.8216 15.084 31.0196 15.9351C31.2102 16.7566 31.1067 17.6781 31.1673 21.925C31.1872 23.3324 32.3169 22.2703 33.8528 21.2597C34.7247 20.6863 36.0696 20.2898 36.4993 21.2359C36.8536 22.0164 36.1653 22.491 35.4591 22.9855C31.7403 25.5894 31.661 24.8558 36.9899 26.3347C37.9688 26.6062 39.1489 27.0254 38.8052 28.0144C38.4544 29.0234 37.3134 28.6008 35.0063 28.0804C34.7028 28.0121 34.4188 27.8437 34.1141 27.8C33.4411 27.7031 32.8122 27.3539 32.1067 27.4488C31.9911 28.2785 32.7184 28.7207 33.0044 29.3672C33.4626 30.4031 34.3309 30.8879 34.0899 32.0679C33.9962 32.5273 33.527 32.8172 33.1012 32.6429C31.0216 31.7914 30.5485 28.3414 29.6622 30.2574C28.5173 32.7336 28.3434 33.3488 27.6618 34.275C27.0184 35.1492 25.7856 34.5761 25.9887 33.5191C26.3259 31.7668 28.063 28.7988 27.7235 28.4691C27.37 28.1254 24.247 30.9144 23.0341 30.9558C22.1571 30.9855 21.7634 30.2246 22.1766 29.5761C22.8048 28.591 23.3559 28.4008 25.8227 26.6801C26.0145 26.5465 26.2938 26.4136 26.1888 26.1179C26.095 25.8535 25.7997 25.8332 25.5602 25.798C24.3473 25.6203 21.6079 25.259 21.4821 25.2234C20.2962 24.8879 20.4614 22.9789 21.8141 23.1195C26.5157 23.6082 27.7622 24.2156 26.5993 22.7668C26.6083 22.7582 26.6177 22.7492 26.627 22.7406Z" fill="#F1A040"/>
<path d="M70.4206 15.2073C69.3202 13.9811 67.7663 12.4725 68.7651 11.7073C69.4608 11.1737 69.9702 11.8132 70.6088 12.5483C70.9748 12.9694 71.8811 14.269 72.1272 14.1839C72.4635 14.0671 72.2553 13.8909 72.3799 10.9175C72.4163 10.0471 72.4916 9.04793 73.3526 9.17214C74.5276 9.34168 74.2116 9.76238 74.1432 14.6475C74.1268 15.796 75.0729 14.9557 76.3487 14.1671C77.0729 13.7194 78.1791 13.4276 78.5077 14.2089C78.7791 14.855 78.2026 15.2268 77.6186 15.6116C74.5256 17.6495 74.4772 17.0491 78.7897 18.3784C79.5819 18.6225 80.5346 18.9917 80.2311 19.7901C79.7073 21.1698 76.0151 19.0428 74.7815 19.1741C74.6678 19.8479 75.251 20.2257 75.469 20.7596C75.819 21.6151 76.5159 22.0288 76.292 22.9874C76.0588 23.9862 74.9182 23.3093 74.3315 22.446C72.819 20.2221 73.3288 20.3268 71.5772 23.7421C71.2264 24.4257 70.7284 25.2378 70.0498 24.8905C69.3194 24.5167 69.6932 23.6565 70.0479 22.8311C71.6217 19.1682 72.1444 19.1589 68.2991 21.4757C66.6014 22.4987 65.542 21.0139 67.742 19.6428C71.0104 17.6061 70.7733 17.8897 66.9174 17.2452C66.5549 17.1846 65.3206 17.1686 65.5741 16.0214C65.6674 15.5987 65.9963 15.3409 66.487 15.4057C70.3065 15.9124 71.3123 16.4397 70.3975 15.2288C70.4049 15.2218 70.4127 15.2143 70.4206 15.2073Z" fill="#F1A040"/>
<path d="M162.168 160.28C161.923 158.651 161.454 156.537 162.71 156.447C163.584 156.384 163.658 157.198 163.787 158.163C163.861 158.716 163.904 160.3 164.156 160.364C164.502 160.451 164.425 160.189 166.163 157.775C166.672 157.068 167.285 156.274 167.935 156.852C168.824 157.639 168.328 157.817 165.585 161.859C164.94 162.81 166.192 162.628 167.692 162.671C168.543 162.695 169.627 163.059 169.472 163.893C169.343 164.582 168.657 164.575 167.958 164.575C164.254 164.577 164.544 164.049 167.415 167.53C167.942 168.17 168.535 169.002 167.842 169.502C166.646 170.366 164.731 166.56 163.629 165.991C163.164 166.492 163.443 167.128 163.332 167.694C163.154 168.601 163.509 169.329 162.795 170.007C162.051 170.713 161.47 169.52 161.455 168.477C161.415 165.787 161.783 166.155 158.442 168.044C157.773 168.422 156.911 168.827 156.535 168.164C156.13 167.45 156.915 166.937 157.665 166.443C160.994 164.249 161.436 164.528 156.95 164.349C154.969 164.27 154.901 162.447 157.492 162.512C161.342 162.608 160.988 162.714 158.122 160.055C157.852 159.805 156.83 159.113 157.673 158.294C157.983 157.993 158.4 157.958 158.774 158.282C161.686 160.806 162.236 161.8 162.138 160.285C162.147 160.284 162.158 160.282 162.168 160.28Z" fill="#F1A040"/>
<path d="M5.27169 63.5545C3.81622 63.4189 2.56426 63.3596 1.68223 62.9213C0.807232 62.4865 1.08458 61.1744 1.97911 61.1178C3.44161 61.0252 5.73028 61.7057 5.9084 61.3717C6.08419 61.0428 5.65333 60.7861 5.43809 60.533C4.24083 59.1256 3.39434 58.3666 2.77715 57.3033C2.3084 56.4963 3.52012 55.6076 4.18067 56.0838C4.81739 56.5424 5.30528 57.2475 7.95801 60.1971C8.83536 61.1725 8.97676 59.7342 9.43497 58.0826C9.69512 57.1451 10.3959 56.0424 11.2775 56.4428C12.0068 56.774 11.8115 57.533 11.6205 58.3088C10.608 62.417 10.1018 61.951 14.7494 59.7205C15.6029 59.3111 16.6885 58.8811 17.0537 59.7861C17.4361 60.7342 16.2815 61.1588 14.4279 62.1623C14.1732 62.3002 13.8701 62.3564 13.6295 62.5127C13.0975 62.8576 12.442 62.9979 12.0053 63.4975C12.433 64.1506 13.2147 64.015 13.8119 64.2936C14.7693 64.7393 15.6756 64.5475 16.2303 65.5232C16.4463 65.9033 16.2947 66.3943 15.8889 66.533C13.9084 67.2104 11.4588 65.0795 12.0119 66.9682C12.8635 69.8729 13.6557 71.6295 12.4721 71.9615C11.5693 72.215 11.2154 71.2033 10.8725 70.2361C9.34708 65.9334 9.78848 65.5068 8.3545 70.4565C7.74356 72.5658 5.66856 72.2647 6.46544 69.3514C7.62715 65.1033 7.64278 65.5326 3.91387 67.9811C3.67129 68.14 3.44317 68.3299 3.1834 68.4525C2.14629 68.9439 1.08926 67.5041 2.12598 66.7725C5.71114 64.2416 6.98301 63.8979 5.26778 63.59C5.26973 63.5783 5.27051 63.5662 5.27169 63.5545Z" fill="#F1A040"/>
<path d="M193.084 86.1514C193.187 87.7955 193.473 89.9424 192.214 89.9244C191.338 89.9123 191.334 89.0943 191.288 88.1221C191.262 87.5651 191.356 85.9834 191.11 85.8979C190.773 85.7811 190.828 86.0483 188.888 88.3053C188.32 88.9658 187.642 89.7037 187.043 89.0729C186.226 88.2115 186.734 88.0772 189.815 84.2854C190.539 83.394 189.276 83.4674 187.786 83.2959C186.94 83.1987 185.891 82.7424 186.117 81.9256C186.304 81.2502 186.987 81.3154 187.684 81.3752C191.374 81.692 191.04 82.1932 188.479 78.478C188.009 77.7955 187.489 76.9155 188.222 76.4768C189.488 75.7186 191.069 79.6756 192.118 80.3369C192.625 79.8783 192.401 79.2205 192.56 78.6662C192.816 77.778 192.525 77.0213 193.295 76.408C194.097 75.7686 194.573 77.0069 194.498 78.0479C194.307 80.7303 193.972 80.3326 197.463 78.7373C198.162 78.4182 199.056 78.0893 199.374 78.7819C199.716 79.528 198.889 79.9717 198.1 80.3998C194.594 82.2994 194.179 81.9834 198.632 82.5471C200.599 82.7959 200.51 84.6178 197.934 84.3307C194.107 83.9041 194.468 83.8283 197.096 86.7236C197.343 86.9959 198.301 87.7733 197.392 88.5166C197.057 88.7904 196.639 88.7889 196.294 88.4342C193.61 85.6697 193.147 84.6326 193.115 86.1498C193.105 86.1502 193.094 86.1506 193.084 86.1514Z" fill="#F1A040"/>
<path d="M192.853 127.646C193.911 128.654 194.857 129.476 195.278 130.366C195.695 131.25 194.664 132.108 193.927 131.598C192.722 130.764 191.347 128.812 191.001 128.964C190.659 129.113 190.838 129.582 190.85 129.914C190.918 131.76 191.112 132.88 190.938 134.097C190.806 135.021 189.304 134.968 189.08 134.185C188.865 133.43 188.919 132.574 188.664 128.615C188.58 127.306 187.578 128.348 186.195 129.36C185.41 129.935 184.177 130.366 183.733 129.506C183.366 128.794 183.989 128.319 184.62 127.828C187.961 125.232 188.069 125.911 183.039 124.782C182.115 124.574 180.996 124.239 181.271 123.303C181.558 122.321 182.727 122.704 184.804 123.064C185.089 123.114 185.362 123.257 185.648 123.284C186.279 123.343 186.88 123.639 187.532 123.517C187.602 122.74 186.904 122.362 186.607 121.773C186.132 120.83 185.302 120.419 185.471 119.31C185.537 118.878 185.96 118.586 186.365 118.728C188.339 119.424 188.941 122.614 189.678 120.789C190.809 117.981 191.276 116.112 192.411 116.585C193.276 116.945 192.927 117.958 192.597 118.93C191.128 123.252 190.518 123.314 194.71 120.317C196.497 119.04 197.939 120.562 195.508 122.355C191.964 124.969 192.218 124.623 196.662 125.012C196.951 125.037 197.247 125.03 197.527 125.094C198.646 125.351 198.583 127.136 197.316 127.068C192.934 126.833 191.722 126.315 192.878 127.619C192.869 127.628 192.861 127.637 192.853 127.646Z" fill="#F1A040"/>
</svg>
