<svg width="68" height="60" viewBox="0 0 68 60" fill="none" xmlns="http://www.w3.org/2000/svg">
<path d="M66.1404 41.4268C66.118 41.5391 66.091 41.6557 66.0686 41.768C65.8665 42.7377 65.6061 43.7031 65.2873 44.6595C64.1199 48.2021 62.1936 51.5608 59.5447 54.0527C57.7575 55.7454 55.6338 57.0385 53.1869 57.721C52.3112 57.9634 51.4313 58.1833 50.5467 58.3809C42.9316 60.0693 34.9529 60.0736 26.8933 59.957C23.3057 59.903 19.6644 59.719 16.1891 58.9109C15.0083 58.637 13.8453 58.2912 12.7094 57.8557C6.82746 55.6016 3.17702 51.0353 1.37203 45.589C1.03523 44.5742 0.765866 43.5281 0.554822 42.464C0.294389 41.1574 0.132736 39.8239 0.0519934 38.4678C0.00715506 37.7089 -0.00633065 36.9502 0.00260329 36.1868C0.0519928 32.6486 0.240617 28.9355 0.828741 25.2985C1.54261 20.8219 2.84023 16.4622 5.17502 12.6635C9.10377 6.2697 16.5392 2.34551 23.6469 0.68413C23.822 0.639291 23.9881 0.58535 24.1632 0.567482C36.6544 -0.80194 49.6351 -0.034126 58.7003 6.69634C63.59 10.3333 65.9832 16.5879 66.8587 23.2779C67.685 29.5462 67.1732 36.2004 66.1404 41.4268Z" fill="#FFCC58"/>
<path d="M58.045 10.7744C58.5507 12.307 59.1223 13.9349 60.4062 14.9125C60.5905 15.0528 60.8064 15.1824 61.0372 15.1625C61.5115 15.1216 61.6998 14.5232 61.6919 14.047C61.6654 12.4456 60.7585 10.9314 59.7333 9.75344C58.611 8.46392 57.4794 9.05997 58.045 10.7744Z" fill="#FFEAE6"/>
<path d="M61.9052 20.2339C62.1934 21.1048 62.4682 21.9805 62.7812 22.8431C63.0427 23.563 63.3016 24.6379 63.84 25.206C63.9639 25.3366 64.1564 25.4187 64.3271 25.3618C64.5837 25.2761 64.656 24.9515 64.6658 24.6811C64.7015 23.6839 64.5243 22.6332 64.3364 21.6559C64.0519 20.176 63.6785 18.1202 62.497 17.0748C61.9861 16.6227 61.3408 16.8017 61.2102 17.5181C61.0644 18.3173 61.6028 19.3268 61.8492 20.0658C61.8679 20.1218 61.8866 20.1777 61.9052 20.2339Z" fill="#FFEAE6"/>
<g opacity="0.13">
<g opacity="0.13">
<path opacity="0.13" d="M59.5445 54.0525C57.7574 55.7453 55.6336 57.0383 53.1868 57.7209C52.3111 57.9633 51.4311 58.1832 50.5465 58.3808C42.9314 60.0691 34.9527 60.0735 26.8931 59.9569C23.3056 59.9029 19.6642 59.7189 16.1889 58.9108C15.0081 58.6368 13.8452 58.2911 12.7092 57.8555C6.82733 55.6015 3.17688 51.0352 1.37189 45.5889C1.0351 44.5741 0.765731 43.528 0.554688 42.4639C1.15191 43.0835 1.78049 43.6716 2.43604 44.224C4.73493 46.1996 7.35713 47.816 10.1005 49.1001C13.2121 50.5503 16.4809 51.6009 19.8169 52.4407C21.7612 52.9301 23.7278 53.3478 25.6945 53.7294C32.5461 55.0584 39.5146 55.9835 46.4967 55.8218C47.1838 55.8038 47.8707 55.777 48.5578 55.7365C52.2662 55.5299 55.9615 54.9955 59.5445 54.0525Z" fill="#5A314E"/>
</g>
</g>
<path d="M19.1051 46.2305C21.157 42.7107 19.9669 38.194 16.4471 36.1421C12.9273 34.0903 8.41058 35.2803 6.35874 38.8001C4.3069 42.32 5.49694 46.8367 9.01676 48.8885C12.5366 50.9404 17.0533 49.7503 19.1051 46.2305Z" fill="#FF6969"/>
<path d="M61.0301 46.0185C63.6214 42.8743 63.1732 38.2248 60.029 35.6335C56.8849 33.0422 52.2354 33.4904 49.6441 36.6346C47.0528 39.7788 47.501 44.4283 50.6452 47.0196C53.7893 49.6108 58.4388 49.1626 61.0301 46.0185Z" fill="#FF6969"/>
<path d="M11.0098 34.54C8.73365 34.14 6.6576 33.3732 5.28717 31.8831C4.16419 30.662 3.8193 29.0566 4.08513 27.5569C5.33993 20.4746 18.2195 20.0212 24.8016 22.0478C28.8389 23.291 31.0338 30.5305 26.7913 33.4431C24.9607 34.7 21.2944 35.044 19.0429 35.01C16.6363 34.9739 13.6849 35.0103 11.0098 34.54Z" fill="#FFEAE6"/>
<path d="M23.7953 22.8823C23.7897 22.88 23.7844 22.8776 23.7788 22.8753C20.5887 21.5006 16.085 21.5348 12.6641 22.2725C9.44486 22.9668 6.62662 24.6649 6.13475 27.4408C5.90702 28.726 6.2042 30.1033 7.16552 31.1511C8.34295 32.43 10.1225 33.0864 12.0758 33.4315C14.3727 33.8352 16.905 33.8013 18.9703 33.8321C20.0628 33.8507 22.2681 33.6332 23.6347 33.3588C22.9513 32.0583 22.7662 31.7222 21.9145 30.1524C23.2655 31.2155 23.8189 31.6688 25.0542 32.8122C25.2588 32.7136 25.4479 32.6057 25.6178 32.4885C29.3256 29.9402 27.7834 24.6137 23.7953 22.8823Z" fill="#5A314E"/>
<path d="M44.5851 33.9964C42.3089 33.5868 40.2327 32.8018 38.8623 31.2761C37.7393 30.0261 37.3946 28.3824 37.6603 26.8468C38.9151 19.5956 51.7946 19.1314 58.3767 21.2064C62.414 22.4791 64.6089 29.8912 60.3665 32.8735C58.5359 34.1603 54.8696 34.5124 52.618 34.4777C50.2118 34.4404 47.2604 34.4777 44.5851 33.9964Z" fill="#FFEAE6"/>
<path d="M57.37 22.0609C57.3645 22.0586 57.3591 22.0561 57.3535 22.0537C54.1634 20.6462 49.6595 20.6812 46.2388 21.4366C43.0194 22.1474 40.2013 23.886 39.7095 26.728C39.4817 28.0437 39.7789 29.454 40.7402 30.5268C41.9177 31.8362 43.6972 32.5083 45.6505 32.8616C47.9474 33.2749 50.4797 33.2402 52.545 33.2717C53.6375 33.2906 55.5849 33.191 56.9515 32.9101C56.2683 31.5786 56.2834 31.4404 55.5487 29.8038C56.8347 30.9979 57.1148 31.2427 58.3502 32.4132C58.5549 32.3122 59.0228 32.0159 59.1925 31.896C62.9003 29.287 61.3581 23.8336 57.37 22.0609Z" fill="#5A314E"/>
<path d="M25.3152 42C25.2791 42 25.2424 41.9919 25.2065 41.9744C25.043 41.8944 24.9594 41.654 25.0195 41.4374C25.2613 40.5641 25.8048 39.8408 26.5104 39.4525C27.216 39.0646 27.9855 39.0652 28.6223 39.4563C28.773 39.5482 28.9167 39.6601 29.0601 39.7722C29.2431 39.9155 29.4157 40.0504 29.5954 40.1316C30.2318 40.4208 30.9183 40.0489 31.6445 39.6549C32.381 39.2556 33.1434 38.8433 33.9486 39.0596C34.4337 39.1904 34.8439 39.5309 35.2409 39.8599C35.6591 40.207 36.0541 40.5348 36.4843 40.5679C36.9507 40.6038 37.4012 40.289 37.8759 39.9563C38.2431 39.698 38.623 39.4312 39.0451 39.302C40.2489 38.9343 41.5655 39.8888 41.9815 41.4314C42.0401 41.6493 41.9548 41.8883 41.7912 41.9664C41.6275 42.0442 41.4466 41.9309 41.3882 41.7137C41.0817 40.5769 40.0753 39.8484 39.187 40.117C38.8451 40.2222 38.5175 40.452 38.1706 40.6962C37.6405 41.0682 37.0953 41.4507 36.4475 41.4038C35.8565 41.3574 35.3739 40.9572 34.9071 40.5697C34.5416 40.2664 34.1966 39.9803 33.8237 39.88C33.2037 39.7105 32.5623 40.0614 31.883 40.4296C31.0815 40.8637 30.2524 41.3114 29.3923 40.9238C29.1518 40.8148 28.9429 40.6513 28.7405 40.4935C28.6152 40.3955 28.4899 40.2962 28.3582 40.2157C27.8814 39.9242 27.2957 39.9276 26.7521 40.2256C26.2086 40.5247 25.7928 41.0715 25.6114 41.7262C25.564 41.8955 25.4434 42 25.3152 42Z" fill="#5A314E"/>
<path d="M11.0682 16.035C10.8514 16.035 10.6758 15.8594 10.6758 15.6426V3.39535C10.6758 3.17857 10.8514 3.00293 11.0682 3.00293C11.285 3.00293 11.4606 3.17857 11.4606 3.39535V15.6426C11.4606 15.8596 11.285 16.035 11.0682 16.035Z" fill="white"/>
<path d="M16.805 16.035C16.5882 16.035 16.4126 15.8594 16.4126 15.6426V3.39535C16.4126 3.17857 16.5882 3.00293 16.805 3.00293C17.0218 3.00293 17.1974 3.17857 17.1974 3.39535V15.6426C17.1974 15.8596 17.0218 16.035 16.805 16.035Z" fill="white"/>
<path d="M13.9745 17.6833C13.7577 17.6833 13.582 17.5077 13.582 17.2909V0.791102C13.582 0.574327 13.7577 0.398682 13.9745 0.398682C14.1912 0.398682 14.3669 0.574327 14.3669 0.791102V17.2911C14.3669 17.5079 14.1912 17.6833 13.9745 17.6833Z" fill="white"/>
</svg>
