<svg width="68" height="60" viewBox="0 0 68 60" fill="none" xmlns="http://www.w3.org/2000/svg">
<path d="M66.6402 41.4267C66.6178 41.5389 66.5908 41.6557 66.5683 41.7679C66.3662 42.7377 66.1059 43.703 65.7871 44.6594C64.6197 48.202 62.6935 51.5606 60.0444 54.0524C58.2574 55.7451 56.1336 57.0382 53.6867 57.7207C52.8111 57.9632 51.931 58.1832 51.0466 58.3808C43.4315 60.0691 35.4527 60.0735 27.3932 59.9568C23.8057 59.9029 20.1643 59.7188 16.689 58.9106C15.5081 58.6368 14.3452 58.2911 13.2093 57.8554C7.32738 55.6015 3.67708 51.0352 1.87201 45.5888C1.53523 44.574 1.26594 43.5279 1.05486 42.4637C0.794509 41.1571 0.632696 39.8236 0.552044 38.4675C0.507161 37.7087 0.493663 36.95 0.502606 36.1866C0.552044 32.6485 0.740684 28.9353 1.32888 25.2983C2.04277 20.8218 3.34047 16.462 5.67518 12.6635C9.60388 6.2697 17.0393 2.34556 24.147 0.684249C24.3222 0.639367 24.4882 0.585542 24.6633 0.567488C37.1546 -0.801922 50.1351 -0.0342011 59.2004 6.69642C64.09 10.3332 66.4833 16.5879 67.3588 23.278C68.1848 29.5461 67.6728 36.2003 66.6402 41.4267Z" fill="#FFCC58"/>
<path d="M61.4797 15.3646C61.7028 16.9631 61.9734 18.667 63.0616 19.8587C63.2178 20.0296 63.407 20.1958 63.6374 20.2176C64.1114 20.2623 64.4038 19.7072 64.4814 19.2374C64.7423 17.6573 64.1212 16.0051 63.3236 14.6625C62.4504 13.1929 61.2303 13.5767 61.4797 15.3646Z" fill="#FFEAE6"/>
<path d="M63.583 25.3624C63.7106 26.2708 63.824 27.1816 63.9775 28.0863C64.1058 28.8414 64.168 29.9454 64.5959 30.6006C64.6943 30.7513 64.8691 30.8665 65.0473 30.8412C65.3151 30.8031 65.4445 30.4965 65.5023 30.2323C65.7161 29.2575 65.7301 28.1921 65.7202 27.197C65.7053 25.6901 65.7063 23.6005 64.7312 22.3605C64.3094 21.8241 63.6426 21.8849 63.3858 22.566C63.0993 23.3261 63.4482 24.4158 63.5582 25.1869C63.5665 25.2454 63.5748 25.304 63.583 25.3624Z" fill="#FFEAE6"/>
<g opacity="0.13">
<g opacity="0.13">
<path opacity="0.13" d="M60.0442 54.0526C58.2572 55.7452 56.1334 57.0384 53.6865 57.7209C52.811 57.9634 51.9309 58.1834 51.0464 58.381C43.4313 60.0693 35.4526 60.0737 27.393 59.9569C23.8055 59.9031 20.1642 59.719 16.6888 58.9108C15.5079 58.6369 14.345 58.2912 13.2091 57.8556C7.32721 55.6017 3.67691 51.0353 1.87184 45.5889C1.53506 44.5742 1.26577 43.528 1.05469 42.4639C1.65182 43.0834 2.28051 43.6716 2.93602 44.2239C5.23496 46.1995 7.85702 47.816 10.6004 49.1C13.7119 50.5502 16.9807 51.6009 20.3167 52.4405C22.261 52.93 24.2275 53.3474 26.1942 53.7291C33.046 55.0582 40.0144 55.983 46.9964 55.8213C47.6834 55.8033 48.3703 55.7765 49.0574 55.7361C52.7659 55.5298 56.4611 54.9954 60.0442 54.0526Z" fill="#5A314E"/>
</g>
</g>
<path d="M11.1705 21.3209C7.7177 22.1783 5.11525 25.4724 4.98418 29.2254C4.83334 33.5417 7.71224 36.6934 11.4316 37.9214C14.3432 38.8828 17.4304 39.1537 20.4831 39.0798C23.4382 39.0083 26.5612 38.3689 28.2139 35.534C30.046 32.3918 29.1752 28.6632 26.6558 26.3185C22.6983 22.6355 16.4844 20.0011 11.1705 21.3209Z" fill="#FFEAE6"/>
<path d="M27.0386 34.9129C26.116 36.4882 24.692 37.2973 23.1119 37.6996L20.2722 37.8323L12.2748 36.7218L8.89956 35.1588C7.33356 33.7348 6.34484 31.7287 6.42989 29.316C6.54817 25.9852 8.85695 23.0661 11.9227 22.3044C14.695 21.6184 17.7372 22.1389 20.4907 23.3501C20.1406 24.1448 19.7953 24.935 19.4452 25.7297C19.2891 26.0894 19.1282 26.4488 18.972 26.8132C19.3128 26.624 19.6485 26.4301 19.9797 26.2218C20.8738 25.6682 21.7303 25.0579 22.5818 24.4381C23.7077 25.1146 24.7486 25.8952 25.6523 26.7374C27.8903 28.8193 28.6614 32.1216 27.0386 34.9129Z" fill="#5A314E"/>
<path d="M23.1115 37.6996C22.1605 37.9408 21.1576 38.0308 20.1783 38.0545C17.472 38.1254 14.7327 37.8842 12.1543 37.0325C10.9336 36.6303 9.81705 35.9916 8.89923 35.159C8.64374 34.6622 8.48284 34.1181 8.42131 33.56C8.26996 32.1548 8.80463 30.693 9.82642 29.7135C9.642 30.144 9.79796 30.5887 10.153 30.8963C10.5078 31.204 11.0613 31.2512 11.4635 31.0052C11.8325 30.7782 12.0408 30.357 12.1211 29.9313C12.2015 29.5055 12.173 29.0702 12.173 28.6397C12.173 27.9065 12.2583 27.1635 12.5468 26.487C12.8354 25.8104 13.3368 25.2096 14.0087 24.9115C13.985 25.5077 14.0417 26.0707 14.127 26.6619C14.1789 27.0261 14.2594 27.3999 14.4344 27.7217C14.6095 28.0481 14.898 28.3321 15.2577 28.4266C15.726 28.5497 16.237 28.3225 16.5634 27.963C16.8946 27.6034 17.0648 27.1304 17.1785 26.6573C17.3488 25.9571 17.4103 25.2333 17.3631 24.5188C18.0963 24.8406 18.825 25.2237 19.4449 25.7299C19.634 25.8813 19.8139 26.0422 19.9795 26.222C20.1167 26.3688 20.2492 26.5295 20.3674 26.6997C21.0865 27.7217 21.309 29.1742 20.6323 30.2244C20.2775 30.7826 19.6719 31.2795 19.7239 31.9372C19.7332 32.0555 19.7665 32.1785 19.8374 32.2731C20.0076 32.5049 20.3531 32.5382 20.6134 32.4245C20.8784 32.311 21.0724 32.0838 21.2427 31.8567C21.5834 31.3932 21.8767 30.8869 22.1037 30.3523C23.1587 31.4971 23.9252 32.9213 24.0624 34.473C24.1618 35.6131 23.8306 36.8244 23.1115 37.6996Z" fill="#FF6969"/>
<path d="M56.1345 20.5208C59.5871 21.3783 62.1896 24.6724 62.3208 28.4253C62.4716 32.7417 59.5927 35.8933 55.8734 37.1213C52.9618 38.0828 49.8746 38.3536 46.8217 38.2798C43.8666 38.2082 40.7436 37.5689 39.0909 34.7341C37.2588 31.5917 38.1296 27.8634 40.6492 25.5186C44.6066 21.8354 50.8205 19.2011 56.1345 20.5208Z" fill="#FFEAE6"/>
<path d="M40.2666 34.1128C41.1892 35.6882 42.6132 36.4973 44.1934 36.8993L47.141 36.7964L55.117 35.5524L58.4057 34.3588C59.9717 32.9347 60.9606 30.9287 60.8753 28.5159C60.7571 25.1852 58.4483 22.2661 55.3826 21.5044C52.6102 20.8183 49.568 21.3389 46.8146 22.55C47.1647 23.3448 47.51 24.1349 47.86 24.9297C48.0162 25.2893 48.1771 25.6488 48.3332 26.0132C47.9925 25.8238 47.6565 25.63 47.3254 25.4218C46.4313 24.8682 45.575 24.2578 44.7233 23.6381C43.5973 24.3146 42.5565 25.0954 41.6528 25.9373C39.4149 28.0193 38.6439 31.3215 40.2666 34.1128Z" fill="#5A314E"/>
<path d="M44.1936 36.8997C45.1445 37.141 46.1475 37.2309 47.1269 37.2546C49.8331 37.3255 52.5724 37.0843 55.1509 36.2326C56.3716 35.8305 57.4881 35.1917 58.4059 34.3591C58.6614 33.8623 58.8223 33.3182 58.8838 32.76C59.0352 31.3549 58.5007 29.8931 57.4787 28.9137C57.6633 29.3443 57.5072 29.7891 57.1523 30.0966C56.7975 30.4041 56.2441 30.4514 55.8418 30.2055C55.4728 29.9785 55.2647 29.5573 55.1843 29.1316C55.1038 28.7058 55.1323 28.2705 55.1323 27.84C55.1323 27.1067 55.0471 26.3638 54.7585 25.6873C54.47 25.0107 53.9683 24.4099 53.2966 24.1118C53.3203 24.7078 53.2636 25.2709 53.1784 25.8624C53.1262 26.2266 53.0459 26.6004 52.8707 26.9221C52.6957 27.2485 52.4071 27.5325 52.0475 27.6271C51.5791 27.7501 51.0681 27.5229 50.7416 27.1635C50.4104 26.8039 50.2401 26.3307 50.1266 25.8577C49.9564 25.1576 49.8948 24.4337 49.942 23.7192C49.2088 24.0409 48.4802 24.4242 47.8603 24.9304C47.6711 25.0817 47.4913 25.2426 47.3256 25.4224C47.1884 25.569 47.056 25.7299 46.9377 25.9002C46.2186 26.9221 45.9962 28.3746 46.6728 29.4249C47.0277 29.9831 47.6333 30.4799 47.5813 31.1376C47.5717 31.2559 47.5387 31.379 47.4678 31.4736C47.2973 31.7054 46.952 31.7384 46.6919 31.6249C46.4271 31.5114 46.2331 31.2842 46.0627 31.0572C45.722 30.5936 45.4286 30.0874 45.2016 29.5527C44.1466 30.6976 43.3801 32.1218 43.2429 33.6736C43.1434 34.8132 43.4745 36.0245 44.1936 36.8997Z" fill="#FF6969"/>
<path d="M23.8196 21.6847C23.7695 21.6847 23.7185 21.676 23.6687 21.6571C20.9683 20.6297 18.176 19.7557 15.3698 19.0598C15.1426 19.0032 15.0039 18.7736 15.0605 18.5463C15.1169 18.3191 15.3482 18.182 15.574 18.2366C18.4132 18.941 21.2381 19.8249 23.9702 20.8644C24.1891 20.9478 24.299 21.1927 24.2157 21.4113C24.1514 21.5809 23.9903 21.6847 23.8196 21.6847Z" fill="#5A314E"/>
<path d="M42.9669 21.7928C42.7962 21.7928 42.6351 21.6889 42.5708 21.5195C42.4875 21.3008 42.5974 21.0559 42.8163 20.9725C45.5491 19.9332 48.374 19.0488 51.2125 18.3452C51.439 18.29 51.6698 18.4277 51.726 18.6549C51.7826 18.8821 51.6439 19.1118 51.4167 19.1684C48.6111 19.8638 45.8189 20.7375 43.1178 21.7652C43.068 21.7838 43.017 21.7928 42.9669 21.7928Z" fill="#5A314E"/>
<path d="M32.6998 42.1619C32.6425 42.1619 32.584 42.1503 32.5283 42.1256C32.3142 42.0307 32.2176 41.7804 32.3122 41.5664C32.9017 40.2342 33.9942 39.1105 35.3095 38.4833C36.6255 37.8564 38.186 37.7156 39.5925 38.0967C39.8185 38.1577 39.952 38.3907 39.8908 38.6169C39.8296 38.8429 39.5963 38.9771 39.3706 38.9152C38.1564 38.5861 36.8094 38.7072 35.6743 39.2489C34.5391 39.7901 33.5963 40.7602 33.0875 41.9096C33.0175 42.0678 32.8625 42.1619 32.6998 42.1619Z" fill="#5A314E"/>
<path d="M31.2911 37.8325L26.4541 42.3326C25.6008 41.5931 24.3484 41.1506 23.2241 41.0491C22.0995 40.9475 20.8991 41.3553 20.2039 42.245C19.5085 43.1347 19.4382 44.5146 20.1718 45.373C20.6187 45.8957 21.2954 46.18 21.9761 46.2773C21.383 46.6083 20.8168 46.9243 20.2814 47.3426C19.3714 48.0536 18.5278 48.9294 18.1836 50.0318C17.8397 51.1342 18.124 52.4948 19.0883 53.1302C19.847 53.6301 20.8655 53.589 21.7032 53.2372C22.5409 52.8854 23.2331 52.2642 23.8866 51.633C23.5199 52.6337 23.5431 53.7194 23.5994 54.7836C23.6565 55.8632 23.9668 56.9818 24.7348 57.7426C25.893 58.8904 27.9001 58.895 29.2351 57.9589C30.5704 57.0229 31.2501 55.3345 31.2381 53.7039C31.2301 52.6155 30.9496 51.5495 30.6709 50.4974C31.5749 51.2691 32.9127 51.4512 34.0412 51.0779C35.341 50.6479 36.1615 49.116 35.7994 47.7958C35.6062 47.0912 35.1359 46.4938 34.6122 45.9843C33.289 44.697 31.5465 43.8482 29.7173 43.5999C30.3946 41.5866 30.7509 39.8865 31.2911 37.8325Z" fill="#FFEAE6"/>
</svg>
