<svg width="71" height="70" viewBox="0 0 71 70" fill="none" xmlns="http://www.w3.org/2000/svg">
<path d="M13.7732 54.5824L13.7345 57.8289L13.7281 58.4092L12.4256 59.4859L12.4321 58.8959L12.4739 55.5915L8.5957 54.6437L9.67893 53.583L13.7732 54.5824Z" fill="#A44043"/>
<path d="M15.9141 52.8803L15.8754 56.0719L15.869 56.6425L14.5665 57.7161L14.573 57.139L14.6117 53.8893L10.4077 52.8642L11.4942 51.8003L15.9141 52.8803Z" fill="#A44043"/>
<path d="M17.671 51.3716L17.6323 54.6309L17.6259 55.1339L16.3234 56.2073L16.3299 55.698L16.3686 52.3807L12.1646 51.3554L13.251 50.2915L17.671 51.3716Z" fill="#A44043"/>
<path d="M12.4323 58.8959L13.7347 57.8289L13.7283 58.4092L12.4258 59.4859L12.4323 58.8959Z" fill="#8E2B37"/>
<path d="M14.5729 57.1391L15.8753 56.072L15.8689 56.6426L14.5664 57.7162L14.5729 57.1391Z" fill="#8E2B37"/>
<path d="M17.6322 54.6309L17.6258 55.1338L16.3232 56.2073L16.3298 55.6979L17.6322 54.6309Z" fill="#8E2B37"/>
<path d="M10.2157 58.0404C10.0791 58.0404 9.94329 57.9826 9.84765 57.8705C9.6743 57.6675 9.69847 57.3623 9.90163 57.1888L55.4476 18.3374C55.6508 18.1642 55.9561 18.1887 56.1293 18.3917C56.3026 18.5947 56.2785 18.8998 56.0753 19.0733L10.5293 57.9247C10.4383 58.0024 10.3268 58.0404 10.2157 58.0404Z" fill="#4F021B"/>
<path d="M60.3099 18.9101C60.1037 18.7006 59.8876 18.4974 59.6587 18.2944C55.3354 14.4709 51.2186 13.5779 47.6464 14.0582C44.8352 14.4322 42.3624 15.6604 40.3926 16.979C38.8095 18.0409 37.3845 19.3032 36.0243 20.6092C35.9179 20.7091 35.8276 20.7929 35.7535 20.8574C35.7213 20.8058 35.6826 20.7478 35.6406 20.68C35.5698 20.5705 35.4858 20.4414 35.3859 20.2932C35.331 20.2125 35.2763 20.1287 35.2151 20.0417C32.9261 16.6984 25.1726 6.96561 14.7111 11.3081C13.6186 11.7694 12.5521 12.3303 11.5905 13.0265C7.26721 16.1633 6.29031 20.9508 7.22213 26.3315C7.22213 26.3347 7.22213 26.3378 7.22539 26.3411C7.42573 27.5252 7.72482 28.7057 8.07329 29.8583C11.2248 39.6744 17.3166 48.3163 23.5738 56.3651C23.7159 56.5451 23.86 56.719 23.9929 56.8906C24.1318 57.0641 24.2725 57.2284 24.399 57.3967C25.8961 59.2265 27.0437 60.6191 28.4804 62.1874C28.5338 62.1998 28.5864 62.21 28.6738 62.2261C29.3024 62.3422 31.5333 62.8257 31.5333 62.8257C31.5333 62.8257 31.4824 62.8162 31.5333 62.8257C32.9647 62.2099 35.6599 60.6206 38.6548 58.4476C38.7644 58.3638 38.874 58.2864 38.9837 58.209C44.7545 53.9793 52.2551 47.5458 57.4197 40.6886C57.5776 40.4758 57.7855 40.2197 57.9402 40.0069L59.4248 33.9033L63.3661 28.0108C63.7691 24.6711 62.9277 21.5505 60.3099 18.9101Z" fill="#F44770"/>
<path d="M57.7372 18.8165C54.3909 15.0768 50.8993 13.8936 47.6464 14.0581C47.2466 14.0775 46.8501 14.116 46.4567 14.1774C41.7015 14.8867 37.5845 18.2654 35.3859 20.2932C34.6605 20.9604 34.1448 21.4827 33.8804 21.7149C32.7198 19.8805 25.2597 7.5878 14.7853 11.2825C14.7736 11.2868 14.7273 11.3017 14.7111 11.3083C13.802 11.6339 12.8671 12.082 11.916 12.6688C4.11085 17.466 5.03304 26.1833 9.01449 34.9781L14.4942 40.0667L15.7364 46.5777C15.9008 46.8195 16.0653 47.0549 16.2297 47.2902C21.952 55.437 28.4354 62.1427 28.4386 62.1427C32.7232 60.2696 46.7536 50.6271 54.8164 40.0171C55.0421 39.7173 55.2646 39.4207 55.4837 39.1209C58.3401 35.1749 60.3163 31.1191 60.6194 27.3054C60.6227 27.2442 60.6291 27.1829 60.6291 27.1249C60.8257 24.1521 59.9876 21.328 57.7372 18.8165Z" fill="#F8627F"/>
<path d="M63.3662 28.0112C63.3437 28.1949 63.3179 28.3819 63.2888 28.5689C63.1082 29.6843 62.7955 30.8191 62.3701 31.9701C62.3572 32.0088 62.3443 32.0442 62.3281 32.0797C61.3803 34.6975 59.8457 37.37 57.9403 40.0071C57.9178 39.9975 57.8953 39.9879 57.8695 39.9781C57.1731 39.6975 56.4703 39.3172 55.745 39.1656C55.6612 39.1462 55.5742 39.1302 55.4839 39.1204C54.5296 38.9818 53.4077 39.1269 52.4792 39.2171C50.2675 39.4362 48.1108 39.9587 45.9604 40.468C37.3139 42.5152 28.6191 44.3206 19.8695 45.8777C19.2086 45.9938 18.5348 46.0711 17.8805 46.2259C17.5097 46.313 16.9552 46.4225 16.4233 46.4999H16.4136C16.1783 46.5354 15.9461 46.5612 15.7365 46.5773C15.7075 46.5386 15.6817 46.4968 15.6528 46.4581C15.2047 45.8069 14.7598 45.1428 14.3213 44.469C14.0215 44.0177 13.7313 43.5599 13.4444 43.1021C13.3895 43.0184 13.3348 42.9346 13.2832 42.8507C13.1961 42.7089 13.1091 42.5702 13.0253 42.4283C12.9157 42.2574 12.8125 42.0834 12.7093 41.9125C11.4358 39.8007 10.2721 37.6312 9.20816 35.4066C9.14039 35.2647 9.07589 35.1197 9.01465 34.9778C9.32738 34.9456 9.64011 34.9133 9.95285 34.8778C20.5014 33.7366 30.5082 32.2956 40.6152 29.1877C44.5516 27.9723 49.5035 26.8117 53.6752 26.6634C56.5413 26.5602 58.6045 26.6473 60.6292 27.1244C61.5093 27.334 62.3862 27.6176 63.3179 27.9916C63.3341 27.9983 63.3502 28.0048 63.3662 28.0112Z" fill="#FFE3B2"/>
<path d="M63.3658 28.0113C63.3433 28.195 63.3175 28.382 63.2884 28.569C63.1078 29.6844 62.795 30.8192 62.3696 31.9702C62.3567 32.0089 62.3438 32.0443 62.3276 32.0798C61.3798 34.6976 59.8452 37.3701 57.9399 40.0072C57.9174 39.9976 57.8948 39.9879 57.869 39.9781C57.1727 39.6976 56.4698 39.3172 55.7445 39.1657C55.6607 39.1463 55.5737 39.1303 55.4834 39.1205C58.3398 35.1745 60.316 31.1187 60.6191 27.305C60.6224 27.2437 60.6287 27.1825 60.6287 27.1245C61.5088 27.334 62.3858 27.6177 63.3175 27.9917C63.3336 27.9984 63.3498 28.0049 63.3658 28.0113Z" fill="#FCD18B"/>
<path d="M49.0363 18.2716C49.1757 18.6406 49.5092 18.9195 49.8524 19.1228C50.9668 19.7828 52.2108 20.2671 53.3747 20.8366C53.672 20.9821 53.9831 21.131 54.3141 21.1288C54.7134 21.1261 55.1015 20.8805 55.2749 20.5207C55.5493 19.9518 55.3237 19.3115 54.9974 18.8157C54.6372 18.2685 54.144 17.7925 53.6193 17.404C52.4621 16.5468 50.7229 15.9897 49.4645 16.9658C49.1883 17.1801 48.9834 17.5034 48.9687 17.8527C48.9626 18.0035 48.9877 18.1431 49.0363 18.2716Z" fill="#FFE7E7"/>
<path d="M57.7739 22.3366C57.7739 22.877 57.3358 23.3149 56.7956 23.3149C56.2554 23.3149 55.8174 22.8768 55.8174 22.3366C55.8174 21.7964 56.2554 21.3584 56.7956 21.3584C57.336 21.3584 57.7739 21.7964 57.7739 22.3366Z" fill="#FFE7E7"/>
<path d="M57.298 17.5426C57.1574 17.5426 57.0183 17.4815 56.9226 17.3645C56.7539 17.1572 56.7852 16.8528 56.992 16.6842L62.9184 11.8554C63.1257 11.6868 63.4303 11.7181 63.5989 11.9247C63.7676 12.132 63.7363 12.4364 63.5295 12.605L57.6031 17.4337C57.5134 17.5067 57.4053 17.5426 57.298 17.5426Z" fill="#4F021B"/>
<path d="M67.1897 8.42933C66.4547 11.0085 65.149 13.6746 63.8143 16.0184C63.4211 16.7051 62.8439 17.4723 62.0669 17.3982C61.5963 17.3531 61.2352 16.9888 61.0546 16.5343C60.9546 16.2893 60.9094 16.0184 60.9288 15.7573C60.9837 15.019 61.1989 14.1631 61.605 13.5472C60.5076 13.8902 59.6038 14.0261 58.5109 13.7778C58.1562 13.6972 57.721 13.4651 57.5373 13.146C57.347 12.8203 57.4373 12.3851 57.6566 12.0788C57.8758 11.7757 58.1687 11.4739 58.491 11.2837C61.0702 9.76523 63.9046 8.7259 66.8029 8.0263C66.835 8.01977 66.8674 8.01666 66.8995 8.01977C67.0963 8.03282 67.2479 8.22618 67.1897 8.42933Z" fill="#F44770"/>
<path d="M67.1897 8.4292C66.4546 11.0083 65.149 13.6745 63.8143 16.0183C63.421 16.705 62.8439 17.4722 62.0669 17.3981C61.5962 17.353 61.2352 16.9887 61.0547 16.5343C61.101 16.6509 61.5437 16.7877 61.6607 16.7977C62.6127 16.8792 63.2643 15.6132 63.6821 14.9502C64.911 13.0011 65.7157 10.862 66.593 8.74282C66.6221 8.67283 66.8556 8.01697 66.8993 8.01978C67.0963 8.03269 67.2478 8.22605 67.1897 8.4292Z" fill="#FF8A98"/>
<path d="M58.0888 12.4835C58.0415 12.7574 58.0841 13.0683 58.2868 13.2584C58.3725 13.3388 58.5112 13.3907 58.6044 13.3194C58.7079 13.2402 58.6787 13.0818 58.6624 12.9527C58.6108 12.5419 58.8243 12.1098 59.1822 11.9016C59.3346 11.8128 59.6897 11.644 59.5348 11.4102C59.4353 11.2601 59.1612 11.304 59.0213 11.3496C58.5447 11.5044 58.172 12.0016 58.0888 12.4835Z" fill="#FFD1D0"/>
<path d="M60.2434 11.1696C60.2176 11.2903 60.0987 11.3672 59.978 11.3413C59.8573 11.3153 59.7804 11.1966 59.8063 11.076C59.8321 10.9553 59.9509 10.8784 60.0716 10.9042C60.1923 10.93 60.2692 11.0489 60.2434 11.1696Z" fill="#FFD1D0"/>
<path d="M29.4142 65.2933C24.1415 63.1443 19.8137 58.7792 17.71 53.4883C23.4809 54.7222 28.0849 59.5436 29.4142 65.2933Z" fill="#FFE3B2"/>
<path d="M29.7964 64.7512C33.8592 60.7621 39.5822 58.519 45.2736 58.6846C41.8534 63.4939 35.602 65.8099 29.7964 64.7512Z" fill="#FFE3B2"/>
</svg>
