<svg width="32" height="32" viewBox="0 0 32 32" fill="none" xmlns="http://www.w3.org/2000/svg">
<path d="M17.374 2.52422C17.0027 2.17315 16.511 1.97754 16 1.97754C15.489 1.97754 14.9973 2.17315 14.626 2.52422L4.938 11.6802C4.64136 11.9609 4.40516 12.2992 4.24387 12.6744C4.08258 13.0496 3.9996 13.4538 4 13.8622V25.0022C4.00053 25.7975 4.31684 26.5601 4.87939 27.1223C5.44194 27.6844 6.2047 28.0002 7 28.0002H10C10.7957 28.0002 11.5587 27.6842 12.1213 27.1215C12.6839 26.5589 13 25.7959 13 25.0002V20.0002C13 19.735 13.1054 19.4807 13.2929 19.2931C13.4804 19.1056 13.7348 19.0002 14 19.0002H18C18.2652 19.0002 18.5196 19.1056 18.7071 19.2931C18.8946 19.4807 19 19.735 19 20.0002V25.0002C19 25.7959 19.3161 26.5589 19.8787 27.1215C20.4413 27.6842 21.2044 28.0002 22 28.0002H25C25.7957 28.0002 26.5587 27.6842 27.1213 27.1215C27.6839 26.5589 28 25.7959 28 25.0002V13.8602C27.9999 13.452 27.9164 13.0481 27.7548 12.6733C27.5932 12.2984 27.3568 11.9605 27.06 11.6802L17.374 2.52022V2.52422Z" fill="#FF7B62"/>
</svg>
