<svg width="68" height="60" viewBox="0 0 68 60" fill="none" xmlns="http://www.w3.org/2000/svg">
<path d="M66.1409 41.4265C66.1185 41.5388 66.0915 41.6554 66.0692 41.7677C65.8671 42.7376 65.6067 43.7029 65.2879 44.6593C64.1205 48.2019 62.1942 51.5604 59.5452 54.0524C57.7582 55.7453 55.6343 57.0384 53.1874 57.7208C52.3117 57.9633 51.4317 58.1833 50.5472 58.3809C42.932 60.0692 34.9533 60.0737 26.8936 59.9569C23.3061 59.9031 19.6647 59.7189 16.1893 58.9108C15.0084 58.637 13.8455 58.2913 12.7095 57.8557C6.82763 55.6016 3.17722 51.0354 1.37212 45.5889C1.03544 44.5742 0.765952 43.5279 0.554962 42.4639C0.294529 41.1572 0.1328 39.8237 0.0520255 38.4678C0.00711077 37.7089 -0.00629168 36.9501 0.0025826 36.1869C0.052025 32.6488 0.240559 28.9355 0.828797 25.2985C1.54272 20.8219 2.84036 16.4621 5.1752 12.6635C9.10397 6.26971 16.5395 2.34547 23.6473 0.684169C23.8224 0.639254 23.9885 0.585465 24.1636 0.567536C36.655 -0.802001 49.6355 -0.0341042 58.701 6.6964C63.5908 10.3334 65.9839 16.588 66.8596 23.2781C67.6854 29.5459 67.1736 36.2001 66.1409 41.4265Z" fill="#FFCC58"/>
<path d="M37.5015 3.82646C39.0773 4.17546 40.7685 4.51648 42.2652 3.91285C42.48 3.8261 42.7017 3.70693 42.8026 3.49847C43.0099 3.06979 42.5917 2.60217 42.1786 2.36546C40.7888 1.56932 39.0239 1.57475 37.4874 1.85365C35.8053 2.15864 35.739 3.43599 37.5015 3.82646Z" fill="#FFEAE6"/>
<path d="M47.6047 5.34568C48.5006 5.54327 49.3937 5.75498 50.295 5.92685C51.0474 6.07029 52.1036 6.39719 52.8671 6.22496C53.0428 6.18529 53.2118 6.06178 53.2502 5.88592C53.3079 5.62169 53.0656 5.39349 52.8383 5.24679C51.9994 4.70637 51.0061 4.32115 50.0701 3.98321C48.6528 3.47121 46.695 2.74081 45.1927 3.22165C44.5429 3.42974 44.3668 4.07575 44.9158 4.55424C45.5281 5.08814 46.6709 5.14139 47.4321 5.30765C47.4893 5.32014 47.5471 5.33282 47.6047 5.34568Z" fill="#FFEAE6"/>
<path d="M66.0681 41.3817C66.0462 41.4961 66.0197 41.6105 65.9977 41.7248C65.034 46.2792 62.8382 50.8378 59.4808 53.9971C57.6944 55.6869 55.5733 56.976 53.1312 57.6581C44.7399 59.9991 35.8469 60.0254 26.8616 59.8934C22.061 59.823 17.1721 59.5149 12.6928 57.7945C5.72282 55.1192 1.89011 49.2053 0.552553 42.4199C0.292911 41.113 0.130104 39.7796 0.0510153 38.4245C0.00703431 37.6676 -0.00627561 36.9109 0.00259774 36.1497C0.0510154 32.6119 0.24025 28.9025 0.825505 25.2723C1.53846 20.8017 2.83648 16.4454 5.16862 12.648C9.09373 6.26328 16.5213 2.34261 23.6233 0.683679C23.7949 0.639698 23.9622 0.582407 24.1381 0.564854C36.6129 -0.799327 49.5805 -0.0337117 58.6361 6.68997C63.5205 10.3201 65.9142 16.5685 66.7898 23.2527C67.6127 29.5142 67.1023 36.163 66.0681 41.3817Z" fill="#FFCC58"/>
<path d="M38.3695 3.26546C39.6597 3.56502 41.0445 3.85879 42.2777 3.37599C42.4545 3.30654 42.6376 3.21068 42.7221 3.04035C42.8959 2.69045 42.5566 2.30312 42.2196 2.10541C41.0858 1.4407 39.6375 1.43028 38.3743 1.64632C36.9914 1.883 36.9264 2.9306 38.3695 3.26546Z" fill="#FFEAE6"/>
<path d="M46.6474 4.59604C47.381 4.7656 48.1119 4.94673 48.8501 5.09526C49.4664 5.2191 50.3304 5.4963 50.9583 5.36127C51.1028 5.33021 51.2425 5.23029 51.2754 5.0862C51.325 4.86976 51.1281 4.68053 50.9427 4.55842C50.2589 4.10801 49.4468 3.78374 48.6815 3.49844C47.5228 3.06654 45.9223 2.45081 44.6854 2.83314C44.1505 2.99845 44.0006 3.52719 44.4472 3.92437C44.9453 4.36765 45.8826 4.42089 46.5056 4.56344C46.5531 4.57424 46.6003 4.58504 46.6474 4.59604Z" fill="#FFEAE6"/>
<g opacity="0.1">
<path opacity="0.1" d="M59.481 53.9974C57.6946 55.6872 55.5735 56.9763 53.1314 57.6584C44.7401 59.9994 35.8471 60.0257 26.8618 59.8937C22.0612 59.8233 17.1723 59.5153 12.693 57.7948C5.723 55.1195 1.8903 49.2056 0.552734 42.4202C3.2456 45.2012 6.5679 47.4012 10.0881 49.047C15.0076 51.3441 20.3318 52.6376 25.6651 53.6718C32.5118 55.0006 39.4732 55.9246 46.4476 55.7618C50.8388 55.6563 55.2392 55.1106 59.481 53.9974Z" fill="#5A314E"/>
</g>
<path d="M18.9566 46.7837C22.4464 43.2939 22.4464 37.6358 18.9566 34.146C15.4668 30.6562 9.80867 30.6562 6.31886 34.146C2.82905 37.6358 2.82905 43.2939 6.31886 46.7837C9.80867 50.2735 15.4668 50.2735 18.9566 46.7837Z" fill="#FF6969"/>
<path d="M64.9975 39.8859C66.1316 35.0828 63.1573 30.2697 58.3542 29.1355C53.5511 28.0014 48.738 30.9757 47.6039 35.7788C46.4697 40.5819 49.444 45.395 54.2471 46.5291C59.0502 47.6633 63.8633 44.689 64.9975 39.8859Z" fill="#FF6969"/>
<path d="M23.6762 34.7383C28.4476 32.3227 30.3573 26.4964 27.9417 21.725C25.526 16.9537 19.6998 15.044 14.9284 17.4596C10.157 19.8752 8.24732 25.7015 10.663 30.4728C13.0786 35.2442 18.9048 37.1539 23.6762 34.7383Z" fill="#FFEAE6"/>
<path d="M28.0033 26.0674C28.1271 30.8226 24.3711 34.7797 19.6159 34.9035C14.8607 35.0273 10.9082 31.2711 10.7842 26.5159C10.6604 21.7653 14.412 17.8084 19.1672 17.6844C20.0794 17.6606 20.9637 17.7778 21.7969 18.0225L19.4528 22.7563L24.1619 19.127C26.4155 20.6229 27.9276 23.1592 28.0033 26.0674Z" fill="#5A314E"/>
<path d="M56.5414 30.9119C59.6223 26.5405 58.5762 20.4992 54.2048 17.4183C49.8335 14.3374 43.7922 15.3835 40.7113 19.7549C37.6304 24.1262 38.6765 30.1675 43.0479 33.2484C47.4192 36.3293 53.4605 35.2832 56.5414 30.9119Z" fill="#FFEAE6"/>
<path d="M57.2527 25.1862C57.3739 29.8357 53.7012 33.7049 49.0515 33.8261C44.4019 33.9472 40.5372 30.2744 40.416 25.6248C40.295 20.9797 43.9633 17.1107 48.6128 16.9895C49.5048 16.9663 50.3694 17.0807 51.1842 17.3203L48.8923 21.9488L53.4968 18.4C55.7001 19.8624 57.1787 22.3426 57.2527 25.1862Z" fill="#5A314E"/>
<path d="M13.6107 15.0388C13.5443 15.0388 13.4766 15.0229 13.4138 14.9891C13.21 14.8801 13.1336 14.6267 13.2424 14.4231C14.2737 12.4987 16.7173 11.4905 18.8058 12.1264C19.0265 12.1937 19.1508 12.4274 19.0835 12.6482C19.0163 12.8692 18.7838 12.9936 18.5615 12.9263C16.8705 12.4113 14.8149 13.2593 13.9798 14.8183C13.9041 14.9588 13.76 15.0388 13.6107 15.0388Z" fill="#5A314E"/>
<path d="M53.1239 12.2175C53.0211 12.2175 52.9182 12.1799 52.8372 12.1038C51.5498 10.8918 49.3303 10.7417 47.8916 11.7683C47.7035 11.9021 47.4416 11.8588 47.3083 11.6705C47.1741 11.4826 47.2178 11.2215 47.4055 11.0873C49.1827 9.81978 51.8203 9.99835 53.4104 11.4948C53.5786 11.6531 53.5866 11.9176 53.4284 12.0858C53.3462 12.1733 53.2352 12.2175 53.1239 12.2175Z" fill="#5A314E"/>
<path d="M34.5374 35.3211C32.7912 35.3211 31.0738 34.1634 30.4544 32.525C30.3727 32.3089 30.4817 32.0676 30.6978 31.9859C30.9132 31.9047 31.155 32.0132 31.2367 32.2291C31.7663 33.6301 33.2891 34.5934 34.7839 34.4749C36.2763 34.3543 37.6262 33.1562 37.9237 31.6883C37.9696 31.462 38.1903 31.3135 38.4164 31.3616C38.6431 31.4074 38.7891 31.628 38.7435 31.8544C38.3747 33.6738 36.7015 35.1589 34.851 35.3084C34.7468 35.3169 34.6418 35.3211 34.5374 35.3211Z" fill="#5A314E"/>
</svg>
