<svg width="77" height="76" viewBox="0 0 77 76" fill="none" xmlns="http://www.w3.org/2000/svg">
<circle r="43" transform="matrix(1 0 0 -1 43 43)" fill="white" fill-opacity="0.2"/>
<path d="M65.6921 43.271L64.4877 61.0575L63.7268 69.5626C63.5471 71.5579 61.6177 73.1008 59.2959 73.1008H28.3997C28.0671 73.1008 27.7405 73.0678 27.426 73.0078C25.5566 72.6483 24.1216 71.2703 23.9688 69.5626L23.2049 61.0575L22.0034 43.271L43.8462 21.1797L61.3957 38.9271L65.6921 43.271Z" fill="#6E9E58"/>
<path opacity="0.5" d="M64.7034 36.7108L59.308 31.2554L56.5068 28.4213L56.5937 25.3476L56.6058 24.9343L56.7076 22.0612C56.7286 21.4051 57.3548 20.8779 58.1187 20.8779H62.8582C63.6221 20.8779 64.2452 21.4051 64.2693 22.0612L64.3681 24.9343L64.3801 25.3476L64.7034 36.7108Z" fill="#FF8024"/>
<path d="M32.6464 73.1006H43.8475H55.0485L55.6658 66.825L56.355 57.3736L43.8475 45.8618L31.3398 57.3736L32.0291 66.825L32.6464 73.1006Z" fill="#82C168"/>
<path d="M64.3801 25.3477H56.5938L56.6058 24.9343L56.7076 22.0612C56.7286 21.4051 57.3548 20.8779 58.1187 20.8779H62.8582C63.6221 20.8779 64.2452 21.4051 64.2693 22.0612L64.3681 24.9343L64.3801 25.3477Z" fill="#F6FFFF"/>
<path d="M56.5712 58.8885C56.1463 58.8885 55.7219 58.7253 55.3995 58.3994L43.847 46.7166L32.2946 58.3994C31.6544 59.0466 30.6117 59.0523 29.9644 58.4124C29.3172 57.7725 29.3113 56.7292 29.9512 56.0822L42.087 43.8097C42.5419 43.35 43.1832 43.0864 43.847 43.0864C44.5108 43.0864 45.1522 43.35 45.6068 43.8094L57.743 56.0822C58.3828 56.7292 58.377 57.7725 57.7298 58.4124C57.4084 58.7298 56.9897 58.8885 56.5712 58.8885Z" fill="#F6FFFF"/>
<path d="M38.5731 41.488H49.1219C49.3971 41.488 49.6202 41.2649 49.6202 40.9897V33.233C49.6202 30.1099 47.0884 27.5781 43.9654 27.5781H43.7296C40.6065 27.5781 38.0747 30.1099 38.0747 33.233V40.9897C38.0749 41.2649 38.2979 41.488 38.5731 41.488Z" fill="#82C168"/>
<path d="M71.5641 46.6298C71.1535 47.0341 70.6203 47.2349 70.0901 47.2349C69.5478 47.2349 69.0085 47.0281 68.5981 46.6147L60.8689 38.7985L56.3422 34.2208L43.8464 21.5843L19.0978 46.6147C18.2829 47.4386 16.9556 47.4445 16.1318 46.6298C15.308 45.8149 15.2991 44.4877 16.1138 43.6638L41.1412 18.3549C41.8364 17.6509 42.8218 17.2495 43.8466 17.2495C44.8711 17.2495 45.8568 17.6509 46.5518 18.3549L56.507 28.4209L64.7036 36.7105L71.5791 43.6639C72.394 44.4877 72.3879 45.8149 71.5641 46.6298Z" fill="#F6FFFF"/>
<path d="M50.6355 69.1098H37.0588C36.4798 69.1098 36.0103 68.6404 36.0103 68.0613C36.0103 67.4822 36.4798 67.0127 37.0588 67.0127H50.6355C51.2144 67.0127 51.684 67.4822 51.684 68.0613C51.684 68.6404 51.2145 69.1098 50.6355 69.1098Z" fill="#F6FFFF"/>
<path d="M47.7657 62.439C49.93 60.2746 49.93 56.7654 47.7657 54.601C45.6013 52.4367 42.0921 52.4367 39.9277 54.601C37.7634 56.7654 37.7634 60.2746 39.9277 62.439C42.0921 64.6034 45.6013 64.6034 47.7657 62.439Z" fill="#F6FFFF"/>
<path d="M44.2611 26.9785H43.4332C40.148 26.9785 37.4751 29.6512 37.4751 32.9364V40.2635C37.4751 41.2688 38.2931 42.0865 39.2984 42.0865H48.3959C49.4012 42.0865 50.2188 41.2687 50.2188 40.2635V32.9364C50.219 29.6512 47.5464 26.9785 44.2611 26.9785ZM49.0206 32.9365V33.9335H44.4464V28.1863C46.9845 28.2847 49.0206 30.3746 49.0206 32.9365ZM43.2479 28.1863V33.9335H38.6734V32.9365C38.6736 30.3745 40.7097 28.2847 43.2479 28.1863ZM38.6736 40.2636V35.1318H43.2481V40.8884H39.2986C38.9538 40.8884 38.6736 40.608 38.6736 40.2636ZM48.3959 40.8884H44.4463V35.1318H49.0205V40.2635C49.0206 40.608 48.7403 40.8884 48.3959 40.8884Z" fill="#F6FFFF"/>
<g opacity="0.25">
<path opacity="0.25" d="M59.3081 31.2542C62.8491 27.2007 62.9181 22.6381 62.7862 20.8765H62.8583C63.6222 20.8765 64.2453 21.4037 64.2694 22.0598L64.3682 24.9328L64.3802 25.3462L64.7037 36.7095L59.3081 31.2542Z" fill="#00328D"/>
<path opacity="0.25" d="M65.6923 43.2707L64.4879 61.0572L63.727 69.5623C63.5473 71.5576 61.6179 73.1004 59.2961 73.1004C26.7993 73.0665 28.3434 73.1824 27.4263 73.0075C42.3845 70.9913 59.0085 71.9529 60.3067 52.0795C60.6176 47.32 60.2069 40.3957 61.3961 38.9268L65.6923 43.2707Z" fill="#000E3F"/>
<path opacity="0.25" d="M49.3889 58.5195C49.3889 61.5813 46.9082 64.0618 43.8466 64.0618C42.0161 64.0618 40.3923 63.1751 39.3857 61.8059C39.952 62.0037 40.5602 62.1085 41.1923 62.1085C44.2511 62.1085 46.7346 59.6279 46.7346 56.5662C46.7346 55.3349 46.3331 54.1995 45.653 53.2798C47.828 54.0286 49.3889 56.0928 49.3889 58.5195Z" fill="#00328D"/>
</g>
<path opacity="0.5" d="M26.3434 44.1545C27.013 48.05 27.6235 55.2285 27.4888 59.453C27.4563 60.473 26.1566 60.5873 25.9972 59.5845C25.3176 55.318 25.0486 48.0519 25.2157 44.2537C25.2492 43.4925 26.2151 43.407 26.3434 44.1545Z" fill="#F6FFFF"/>
<path d="M58.3178 15.1447C58.0711 16.695 57.0221 18.682 55.6079 19.4797C54.4718 20.1207 50.9008 18.5789 50.0816 16.8171C49.5495 15.6729 50.1018 14.4193 51.251 14.2746C52.2047 14.1545 53.1874 14.6689 53.9168 15.2841C54.1217 15.4569 54.1778 15.5373 54.2167 15.4146C54.2946 15.1688 54.4683 14.5621 54.6738 14.1978C56.2424 11.4182 58.6713 12.9232 58.3178 15.1447Z" fill="#679556"/>
<path d="M70.4183 31.1082C69.5725 31.848 68.0852 32.4604 66.9419 32.2515C66.0232 32.0837 64.7652 29.5997 65.1215 28.2553C65.353 27.3822 66.231 26.9456 66.9296 27.3923C67.5092 27.763 67.8142 28.4963 67.9336 29.1688C67.9671 29.3577 67.9612 29.4277 68.0389 29.378C68.1944 29.2784 68.5678 29.0242 68.8476 28.9181C70.9837 28.1074 71.6305 30.0479 70.4183 31.1082Z" fill="#679556"/>
<path d="M69.8132 19.1023C68.9721 20.1801 67.3356 21.2526 65.9217 21.265C64.7856 21.2751 62.7133 18.5956 62.831 16.9076C62.9074 15.8112 63.8565 15.0885 64.7935 15.4623C65.571 15.7724 66.1032 16.5785 66.4 17.3546C66.4834 17.5725 66.4924 17.6576 66.5736 17.5804C66.7365 17.4258 67.1244 17.0366 67.4346 16.8456C69.8013 15.3875 71.0185 17.5578 69.8132 19.1023Z" fill="#679556"/>
</svg>
