<svg width="77" height="76" viewBox="0 0 77 76" fill="none" xmlns="http://www.w3.org/2000/svg">
<circle r="43" transform="matrix(1 0 0 -1 43 43)" fill="white" fill-opacity="0.2"/>
<g clip-path="url(#clip0)">
<path d="M20.8008 40.4764L35.8689 46.0034C37.3669 46.5534 39.0443 46.3162 40.3311 45.3728L53.0674 36.0411L53.2772 35.8864C53.9974 35.3578 54.1961 34.3694 53.7315 33.6073L46.8846 22.3633L23.1956 25.7113L21.5818 31.6313L19.7365 38.4119C19.5013 39.2729 19.9626 40.1681 20.8008 40.4764Z" fill="#FF57D9"/>
<path d="M35.6375 30.1051C35.7638 32.5945 36.0584 35.06 36.394 37.5197C36.7465 39.9771 37.1413 42.4286 37.7057 44.8559C37.7348 44.9814 37.879 45.0582 38.0275 45.0275C38.1625 44.9996 38.2546 44.8926 38.2485 44.779C38.1181 42.2904 37.818 39.8255 37.4757 37.3667C37.1166 34.9103 36.7164 32.4596 36.1479 30.0327C36.1202 29.9148 35.9847 29.8427 35.8449 29.8716C35.7184 29.8982 35.6319 29.9987 35.6375 30.1051Z" fill="#000E3F"/>
<g opacity="0.25">
<path opacity="0.25" d="M20.8004 40.4762L35.8685 46.0032C37.3664 46.5532 39.0439 46.3161 40.3307 45.3726L53.0669 36.0409C51.9911 34.7544 50.1678 34.0113 48.4402 34.0237C45.9852 34.0432 43.7026 35.2047 41.5416 36.3675C39.3845 37.5332 37.1467 38.7509 34.6997 38.9055C31.9203 39.0776 29.0917 37.7297 27.4727 35.4638C26.8166 34.5447 26.3349 33.4796 25.502 32.7143C24.4637 31.772 22.986 31.4436 21.5813 31.6311L19.7359 38.4117C19.5009 39.2728 19.9622 40.1679 20.8004 40.4762Z" fill="#000E3F"/>
</g>
<path d="M37.5145 46.5839C36.928 46.5839 36.3378 46.4817 35.7695 46.2731L20.7015 40.7461C19.7171 40.384 19.1828 39.3482 19.4594 38.3365L22.9682 25.4535L23.1553 25.4272L47.0313 22.0527L47.1294 22.2142L53.9766 33.4582C54.5217 34.353 54.2938 35.4967 53.4469 36.1181L53.2376 36.2725L40.5009 45.6049C39.62 46.2503 38.5733 46.5839 37.5145 46.5839ZM20.8995 40.2069L35.9675 45.734C37.3799 46.2528 38.9478 46.0311 40.1612 45.1411L53.1065 35.6553C53.7119 35.2109 53.875 34.3949 53.4863 33.7566L46.7372 22.6742L23.4228 25.9693L20.0135 38.4872C19.8162 39.2092 20.1972 39.9484 20.8995 40.2069Z" fill="#000E3F"/>
<path d="M6.63882 25.6378L34.7936 27.9834C35.3294 28.0254 35.8668 27.9495 36.3701 27.7607L58.3833 19.3771L62.7719 17.7045C63.156 17.5583 63.0764 16.9955 62.6674 16.9651L34.5128 14.6193C33.9764 14.5737 33.439 14.6497 32.9363 14.8422L19.5675 19.9326L6.53431 24.8984C6.15353 25.0406 6.23305 25.6033 6.63882 25.6378Z" fill="#FF57D9"/>
<g opacity="0.25">
<path opacity="0.25" d="M6.63882 25.6379L34.7936 27.9836C35.3294 28.0255 35.8668 27.9496 36.3701 27.7608L58.3833 19.3772C54.6918 19.0564 50.7854 19.8182 47.1546 20.7875C41.5416 22.2836 35.759 24.2193 30.0547 23.1417C26.7242 22.5123 23.6615 20.8884 20.3608 20.1039C20.0982 20.0416 19.8324 19.9835 19.5675 19.9327L6.53431 24.8985C6.15353 25.0407 6.23305 25.6034 6.63882 25.6379Z" fill="#000E3F"/>
</g>
<path d="M34.7177 21.7538C33.2771 21.9572 31.9874 21.5076 31.5805 20.7234C31.5148 20.6053 31.4721 20.4772 31.4526 20.3427C31.4426 20.2836 31.4395 20.2245 31.4395 20.1656C31.4526 19.2173 32.6372 18.3082 34.1993 18.0851C35.8597 17.8521 37.32 18.4821 37.4643 19.4928C37.6087 20.5068 36.3781 21.5175 34.7177 21.7538Z" fill="#000E3F"/>
<path opacity="0.5" d="M38.1762 17.1764C39.5192 17.4131 40.8668 17.5854 42.2162 17.7349C43.5652 17.8887 44.9171 18.0042 46.2695 18.1122C47.6228 18.2082 48.9768 18.296 50.3335 18.3457C51.6899 18.3995 53.0481 18.4302 54.411 18.3959C54.5885 18.3915 54.7287 18.244 54.7242 18.0665C54.7204 17.9108 54.606 17.7836 54.4581 17.758C53.115 17.5237 51.7671 17.3543 50.4175 17.2079C49.0683 17.0576 47.7162 16.9452 46.3634 16.841C45.0098 16.749 43.6556 16.6645 42.2987 16.618C40.9419 16.5674 39.5837 16.5397 38.2205 16.5763C38.0536 16.5807 37.9218 16.7196 37.9264 16.8865C37.9305 17.0329 38.0376 17.1519 38.1762 17.1764Z" fill="white"/>
<path d="M35.0849 28.2823C34.9806 28.2823 34.8763 28.2781 34.7712 28.2697L6.61426 25.9239C6.29445 25.8967 6.05031 25.6641 6.00662 25.3456C5.96336 25.0286 6.13512 24.7408 6.4338 24.6293L32.8339 14.574C33.3806 14.3641 33.9542 14.2843 34.5369 14.3333L62.6911 16.6788C63.0088 16.7025 63.2545 16.9313 63.3006 17.248C63.3473 17.5665 63.176 17.8578 62.874 17.9729L36.4722 28.0287C36.0234 28.1973 35.5584 28.2823 35.0849 28.2823ZM6.66238 25.3515L34.8173 27.6973C35.3137 27.7362 35.8022 27.6672 36.269 27.4916L62.6697 17.4363C62.7309 17.4129 62.7376 17.3662 62.7325 17.331C62.7255 17.282 62.6962 17.255 62.646 17.2516L34.4888 14.9057C33.9918 14.8634 33.5044 14.9322 33.0391 15.1104L6.63639 25.1667C6.58871 25.1846 6.56915 25.2182 6.57586 25.2676C6.58057 25.3029 6.59956 25.3461 6.66238 25.3515Z" fill="#000E3F"/>
<path d="M34.0274 22.0893C33.4358 22.0893 32.8754 21.9842 32.4024 21.7801C31.6904 21.4727 31.2519 20.977 31.1683 20.3842C31.0004 19.1969 32.3139 18.0624 34.1588 17.8013C35.0134 17.6798 35.8502 17.7721 36.5146 18.0585C37.2266 18.3659 37.665 18.8616 37.7487 19.4544C37.8326 20.0469 37.5487 20.6447 36.9497 21.1372C36.3905 21.5967 35.6121 21.9163 34.7577 22.0371C34.5116 22.072 34.2672 22.0893 34.0274 22.0893ZM34.8916 18.3232C34.6785 18.3232 34.4599 18.3387 34.2392 18.3698C32.764 18.5787 31.6181 19.4641 31.7366 20.3041C31.7915 20.6908 32.1084 21.0276 32.6298 21.2527C33.1986 21.4981 33.9258 21.5745 34.6772 21.4687C35.4288 21.3623 36.1062 21.0873 36.5849 20.6938C37.0234 20.3333 37.2348 19.9219 37.18 19.5347C37.1252 19.1479 36.8082 18.8107 36.2868 18.5858C35.8852 18.4123 35.4042 18.3232 34.8916 18.3232Z" fill="#000E3F"/>
<path d="M7.77946 51.9536C7.82257 52.4296 8.32 52.8285 8.77773 52.9948C9.33169 53.1956 9.84796 53.1603 10.1872 53.0271C10.3647 52.957 10.3784 52.908 10.4263 53.1662C10.5528 53.8462 11.0158 54.621 11.7461 54.4937C12.1764 54.4187 12.6295 54.109 12.906 53.8089C12.9654 53.746 12.9997 53.7488 13.0417 53.8146C13.6817 54.8152 15.2165 54.9651 15.7108 54.327C15.7546 54.2699 15.7638 54.211 15.7238 54.1457C15.3616 53.5556 15.2868 53.4648 15.1618 53.1473C15.1548 53.1282 15.1466 53.1098 15.1373 53.0909C15.0919 52.9835 15.0372 52.8787 14.9961 52.7674C14.2171 50.6541 16.6745 45.0229 16.376 42.4483C16.3117 41.9009 16.0507 40.9569 15.8026 40.5927C15.6211 40.3251 15.5583 40.3148 15.2778 40.4262C14.973 40.5474 14.2384 41.0397 13.5683 41.9112C13.3618 42.1802 13.1614 42.485 12.9813 42.8258C11.9661 44.7528 10.6906 50.2095 8.89809 51.2564C7.85898 51.8625 7.75975 51.7326 7.77946 51.9536Z" fill="#FC09B2"/>
<path d="M14.4471 41.9292C13.8129 42.6911 13.4208 43.5854 13.047 44.4672C12.6804 45.3554 12.3789 46.264 12.0796 47.1702C11.8008 48.083 11.5236 48.9947 11.2621 49.9083C11.1327 50.3654 11.0005 50.8213 10.8608 51.2729C10.7288 51.7271 10.5819 52.1756 10.4096 52.6044L10.4059 52.6133C10.3777 52.6834 10.4117 52.7632 10.4818 52.7913C10.5471 52.8176 10.6206 52.7899 10.6533 52.7295C11.1207 51.8653 11.4136 50.9548 11.7254 50.0529C12.0295 49.1486 12.3028 48.2374 12.5997 47.3353C12.874 46.4262 13.1753 45.5278 13.4915 44.6386C13.5669 44.4143 13.6513 44.1949 13.7372 43.9759C13.8186 43.7542 13.911 43.5389 14.0065 43.3251C14.1804 42.887 14.4045 42.4815 14.6488 42.0897L14.6551 42.0796C14.6928 42.0193 14.6742 41.9399 14.6141 41.9024C14.5587 41.8678 14.4876 41.8804 14.4471 41.9292Z" fill="#FF8EDE"/>
<path d="M15.4033 42.3127C15.3808 42.774 15.3378 43.2336 15.2466 43.6924C15.17 44.1519 15.0677 44.6093 14.9587 45.0649C14.7404 45.9767 14.4956 46.8863 14.2316 47.7912L13.4723 50.5223C13.2412 51.4437 12.9633 52.3445 12.8992 53.3362C12.8944 53.4115 12.9515 53.4764 13.0267 53.4814C13.0978 53.486 13.1598 53.4354 13.1705 53.3663L13.1729 53.3511C13.2403 52.9119 13.3869 52.4542 13.5193 52.008C13.6546 51.5577 13.7947 51.1077 13.9386 50.6578C14.2236 49.7573 14.4924 48.849 14.7574 47.9382C14.9991 47.0209 15.2491 46.1036 15.4246 45.1649C15.5942 44.2281 15.7477 43.2724 15.6607 42.298C15.6545 42.2271 15.5919 42.1749 15.5211 42.1812C15.4563 42.1869 15.407 42.2399 15.4039 42.3031L15.4033 42.3127Z" fill="#FF8EDE"/>
<path d="M16.6777 40.9575C17.761 39.8372 17.7222 38.3857 17.1094 37.6613C16.3416 36.7518 14.9785 37.3578 14.5145 38.4131C13.948 39.7052 14.8673 42.8356 16.6777 40.9575Z" fill="#FF8EDE"/>
<path opacity="0.25" d="M7.77946 51.9539C7.82257 52.4299 8.32 52.8288 8.77773 52.9951C9.33169 53.1959 9.84796 53.1606 10.1872 53.0274C10.3647 52.9573 10.3784 52.9083 10.4263 53.1665C10.5528 53.8465 11.0158 54.6213 11.7461 54.494C12.1764 54.419 12.6295 54.1093 12.906 53.8092C12.9654 53.7463 12.9997 53.7491 13.0417 53.8149C13.6817 54.8155 15.2165 54.9654 15.7108 54.3273C15.7546 54.2702 15.7638 54.2113 15.7238 54.146C15.3616 53.5559 15.2868 53.4651 15.1618 53.1476C15.1548 53.1285 15.1466 53.1101 15.1373 53.0912C15.1116 53.0952 15.0807 53.1019 15.0433 53.1099C14.1663 53.3038 13.3688 52.8978 12.9606 52.2022C11.8251 50.2616 15.1344 44.8419 13.5686 41.9116C13.362 42.1806 13.1617 42.4854 12.9815 42.8262C11.9664 44.7532 10.6909 50.2099 8.89837 51.2569C7.85898 51.8628 7.75975 51.7329 7.77946 51.9539Z" fill="#000E3F"/>
<path opacity="0.5" d="M15.6113 41.5973C16.0059 41.528 16.3728 41.2741 16.6778 40.9579C16.4103 40.9626 16.1064 40.8613 15.9731 40.6321C15.5589 39.9212 16.0716 39.1762 15.9474 37.9716C15.9231 37.7302 15.8803 37.4942 15.7766 37.2759C15.2484 37.4286 14.7541 37.8685 14.5146 38.4134C13.9481 39.7055 14.4367 41.8039 15.6113 41.5973Z" fill="#FC09B2"/>
<path d="M22.1788 23.7818C24.3578 23.0992 27.2718 21.9935 31.5806 20.7233C31.5149 20.6053 31.4722 20.4772 31.4527 20.3427C31.4427 20.2836 31.4395 20.2245 31.4395 20.1655C29.0932 20.858 26.5861 21.6718 23.4325 22.7711C21.4405 23.4636 19.2256 23.9395 17.4436 25.229C14.7856 27.1487 15.9603 29.8396 16.9022 32.0022C17.5487 33.4821 17.4305 35.4643 16.725 37.0328C16.4133 36.9081 16.0621 36.895 15.6978 36.9999C15.0776 37.1771 14.5263 37.676 14.2506 38.2995C13.916 39.0609 13.9127 40.0714 14.1917 40.823C13.9225 41.0593 13.6306 41.3612 13.3417 41.7353C13.112 42.0373 12.9054 42.3588 12.7281 42.6935C12.3901 43.3334 12.0389 44.3114 11.6353 45.4401C10.851 47.629 9.87647 50.3527 8.75412 51.009C8.31767 51.2617 8.05197 51.3831 7.89106 51.4553C7.68432 51.5506 7.49072 51.6391 7.49072 51.9213C7.49072 51.9378 7.49072 51.9607 7.49386 51.9804C7.52999 52.3873 7.80896 52.7778 8.26184 53.0568C8.84264 53.4145 9.57779 53.5228 10.1684 53.3389C10.3653 54.179 10.9724 54.9207 11.7961 54.7762C12.2358 54.7008 12.6558 54.4317 12.948 54.1692C13.3483 54.6549 13.9785 54.9665 14.6445 54.9961H14.7496C15.2616 54.9961 15.6913 54.8189 15.9375 54.5005C16.1278 54.2544 16.0163 54.0739 15.8882 53.8639C15.7931 53.7097 15.6355 53.4504 15.4025 52.9779C14.8414 51.6553 15.4025 49.3747 15.9473 47.1661C16.3904 45.371 16.8071 43.6713 16.6626 42.4143C16.6331 42.178 16.5675 41.8467 16.4723 41.5152C16.6134 41.4166 16.7513 41.2953 16.8858 41.1574C17.0761 40.9605 17.2566 40.7242 17.4109 40.4748C17.9195 39.6511 18.0278 38.3023 17.3288 37.4754C17.2927 37.4327 17.2534 37.3933 17.2139 37.354C18.0244 35.6279 18.1589 33.4423 17.4305 31.772C15.5927 27.5622 15.5697 25.859 22.1788 23.7818ZM8.06481 51.9279L7.77927 51.9542L8.06481 51.9148V51.9279ZM16.0915 42.4802C16.226 43.6353 15.8191 45.2859 15.3892 47.0318C14.8216 49.3256 14.2373 51.7015 14.8807 53.2176C15.13 53.7296 15.3007 54.0018 15.3991 54.166C15.4089 54.1824 15.4188 54.1989 15.4286 54.212C15.2712 54.3596 14.9922 54.4417 14.6705 54.422C14.2243 54.4023 13.6237 54.1923 13.2825 53.6607C13.1971 53.523 13.0856 53.4836 13.0101 53.477H12.9772C12.8754 53.477 12.7803 53.523 12.695 53.6148C12.4652 53.8642 12.0649 54.1465 11.6974 54.212C11.1396 54.3136 10.8015 53.6082 10.7097 53.1126C10.6801 52.9683 10.6506 52.8041 10.4964 52.7221C10.3488 52.6433 10.2141 52.7024 10.1353 52.7386L10.0829 52.7616C9.63989 52.9322 9.02954 52.8566 8.56352 52.568C8.29768 52.4072 8.12706 52.2037 8.07781 52.0036C8.09423 51.997 8.11065 51.9872 8.13035 51.9806C8.29768 51.9018 8.57994 51.7738 9.04267 51.5047C10.3455 50.7433 11.3168 48.0295 12.1765 45.634C12.5573 44.5708 12.9148 43.5667 13.2365 42.9594C13.3974 42.6543 13.5844 42.3622 13.7945 42.0865C14.0242 41.7878 14.2539 41.5418 14.4671 41.345C14.4802 41.3647 14.4933 41.3844 14.5098 41.4039C14.7625 41.7287 15.0938 41.8995 15.4549 41.8995C15.5206 41.8995 15.5927 41.8929 15.6616 41.8798C15.7602 41.8634 15.8585 41.8372 15.9569 41.801C16.0227 42.047 16.0686 42.2898 16.0915 42.4802ZM16.9218 40.1732C16.7906 40.3865 16.6331 40.59 16.4722 40.7573C16.4098 40.8196 16.3474 40.8787 16.2851 40.9312C16.1211 41.0756 15.9536 41.1806 15.7896 41.2463C15.714 41.2791 15.6387 41.3021 15.5631 41.3151C15.3301 41.3545 15.1332 41.2692 14.9593 41.0494C14.9431 41.0264 14.9266 41.0035 14.9101 40.9805C14.8083 40.8328 14.7296 40.6491 14.6738 40.4456C14.5065 39.8517 14.5327 39.087 14.7789 38.5292C14.9823 38.0665 15.4057 37.6825 15.8585 37.5513C15.9536 37.5218 16.0653 37.5022 16.1801 37.5022C16.2719 37.5022 16.3671 37.5154 16.4622 37.5448C16.6098 37.594 16.7543 37.686 16.8888 37.8467C16.9019 37.8631 16.9183 37.8829 16.928 37.8993C17.4075 38.5259 17.3057 39.5532 16.9218 40.1732Z" fill="#000E3F"/>
<path d="M37.0493 69.2181L39.366 70.3661C39.798 70.5803 40.3137 70.5223 40.686 70.2159C43.992 67.4948 60.526 54.9326 64.6787 52.4299C68.4216 50.1741 75.4017 45.7984 78.2663 44.3301C78.5645 44.1772 78.4642 43.7292 78.1295 43.7144L75.6735 43.6069L37.0493 69.2181Z" fill="#FF57D9"/>
<path d="M78.7834 40.8776C78.6757 41.5754 78.2797 42.1028 77.9273 42.4553C77.9273 42.4553 72.3766 45.9418 65.3391 50.4813C64.2135 51.2086 63.0478 51.965 61.8593 52.7328C52.7873 58.6384 42.466 65.5433 38.3798 68.9834C38.3798 68.9834 36.9531 70.7403 33.7873 66.0477C32.3739 63.9515 31.8996 62.4364 31.8095 61.3985C31.7224 60.4485 32.2283 59.5417 33.0725 59.0962C36.4264 57.3229 48.4343 50.962 58.5635 45.4267C59.6927 44.8085 60.7959 44.2025 61.8637 43.6142C66.7352 40.9269 70.8185 38.6101 72.7258 37.3718C73.6437 36.7775 74.7842 36.5963 75.823 36.9452C75.8305 36.9474 75.8414 36.9487 75.8495 36.9542C77.4606 37.5098 79.0468 39.1859 78.7834 40.8776Z" fill="#FF57D9"/>
<path d="M34.0807 58.4452C34.3322 58.4934 34.5881 58.5385 34.8395 58.6014C35.0819 58.6882 35.3315 58.765 35.5716 58.8632C35.8011 58.982 36.0384 59.0915 36.2614 59.2236C36.4757 59.3682 36.7003 59.5018 36.9071 59.6579C37.7382 60.2827 38.4238 61.0853 38.9581 61.9724C39.4858 62.8636 39.861 63.8516 40.0129 64.8808C40.0446 65.1387 40.0613 65.3988 40.0853 65.6564C40.0889 65.9162 40.0777 66.1766 40.0721 66.4353C40.0392 66.6935 39.9925 66.9498 39.9528 67.2045C39.8858 67.4553 39.8069 67.7026 39.7295 67.9472C39.7022 68.0335 39.61 68.0814 39.5236 68.054C39.4444 68.0288 39.3974 67.9489 39.4115 67.8692L39.4152 67.8484L39.5415 67.1338C39.5537 66.8918 39.5736 66.6522 39.5807 66.4129C39.5677 66.1722 39.566 65.9322 39.5483 65.6935C39.5106 65.4555 39.4813 65.2173 39.4384 64.9818C39.2421 64.042 38.8893 63.1326 38.394 62.3072C37.9056 61.4781 37.2801 60.73 36.5501 60.1053C36.368 59.9489 36.169 59.8142 35.9787 59.6662C35.7807 59.5305 35.5678 59.4193 35.3632 59.2914C35.1516 59.1786 34.9296 59.0855 34.7113 58.9798L34.0225 58.7493L34.0027 58.7426C33.9219 58.7156 33.8785 58.6282 33.9055 58.5475C33.9302 58.4736 34.006 58.4307 34.0807 58.4452Z" fill="#000E3F"/>
<path d="M36.9197 67.9084C36.7755 67.9084 36.6515 67.8 36.6347 67.6536C36.6168 67.4959 36.73 67.3539 36.8876 67.336C37.3897 67.2789 37.708 67.0348 37.8609 66.5896C38.2858 65.35 37.2908 62.7536 35.8519 61.3474C35.4552 60.9593 34.6847 60.3468 33.9907 60.604C33.7597 60.6892 33.6532 60.9568 33.6748 61.3991C33.7513 62.9819 35.5117 65.959 36.5285 66.226C36.6916 66.2677 36.7899 66.2254 36.8849 66.0743C37.1444 65.6613 36.8715 64.4179 36.3001 63.4132C35.8938 62.6989 35.4242 62.2576 35.0714 62.2576C35.0682 62.2576 35.0647 62.2576 35.0611 62.2579C34.9185 62.2614 34.9035 62.3024 34.8983 62.3158C34.7246 62.7878 35.908 64.5065 36.1863 64.7553C36.3042 64.861 36.3145 65.0427 36.2087 65.1609C36.1029 65.2788 35.9213 65.2891 35.8029 65.1833C35.5876 64.9904 34.0324 63.0064 34.3592 62.1174C34.4172 61.9603 34.5832 61.695 35.047 61.6835C35.0552 61.6835 35.064 61.6832 35.0722 61.6832C35.8586 61.6832 36.4905 62.5865 36.7992 63.1295C37.4013 64.1883 37.8065 65.6871 37.3709 66.38C37.1407 66.7454 36.7895 66.8886 36.3829 66.7812C35.0318 66.4268 33.1849 63.156 33.101 61.4269C33.0574 60.528 33.4525 60.1902 33.7918 60.065C34.526 59.7949 35.4006 60.1034 36.2534 60.9366C37.7218 62.3716 38.9534 65.1739 38.404 66.7758C38.1784 67.4334 37.6766 67.8243 36.9523 67.9064C36.9416 67.9077 36.9306 67.9084 36.9197 67.9084Z" fill="#000E3F"/>
<path opacity="0.75" d="M74.725 38.5524C74.1247 39.0126 73.4987 39.4266 72.864 39.8243C72.2308 40.2249 71.5823 40.5981 70.931 40.966C70.2748 41.3252 69.6153 41.6785 68.9407 42.0046C68.2678 42.3335 67.5858 42.6459 66.8779 42.9116C66.7413 42.9629 66.5888 42.8938 66.5374 42.757C66.4954 42.6452 66.5344 42.5227 66.6246 42.4537C67.2258 41.9953 67.8529 41.5834 68.4891 41.188C69.1237 40.7898 69.7734 40.4188 70.4264 40.0537C71.084 39.6973 71.7448 39.3464 72.4207 39.0227C73.095 38.6962 73.7782 38.3858 74.487 38.1217C74.6157 38.0737 74.759 38.1391 74.807 38.2679C74.8458 38.3731 74.8094 38.4876 74.725 38.5524Z" fill="white"/>
<path d="M79.0681 40.9216C79.3535 39.0708 77.6768 37.2856 75.954 36.6851L75.9146 36.672C74.8121 36.301 73.5912 36.4685 72.5707 37.1314C70.8905 38.2209 67.3038 40.285 61.9088 43.2614L61.725 43.363C60.6585 43.9506 59.5559 44.5576 58.4237 45.1746C48.7201 50.4776 37.369 56.4993 32.9389 58.8424C31.9806 59.3478 31.4261 60.3618 31.5213 61.425C31.7797 64.3911 35.0648 68.8625 36.9294 69.478C39.0902 70.5017 39.3137 70.7808 39.9091 70.7808C40.2536 70.7808 40.595 70.6626 40.8674 70.4362C44.441 67.4992 60.7702 55.1212 64.8262 52.6763C68.4601 50.4886 75.5685 46.0332 78.3988 44.5872C78.9592 44.2924 78.7679 43.4578 78.1428 43.4289L77.0008 43.3796C77.6834 42.9497 78.064 42.7101 78.0804 42.7003C78.1066 42.6663 78.8984 42.0021 79.0681 40.9216ZM61.817 43.9668C62.9163 45.0334 64.6326 47.1631 65.0297 50.32C62.9903 51.6543 62.3945 52.0442 62.2451 52.1419C62.2437 52.1428 62.2413 52.1445 62.2376 52.1469C62.2383 52.1465 62.2386 52.1462 62.2393 52.1458C62.229 52.1525 62.2217 52.1572 62.2159 52.1612C62.2164 52.1607 62.217 52.1605 62.2176 52.16C62.2153 52.1616 62.2127 52.1632 62.2102 52.1649C62.2087 52.1657 62.2072 52.1669 62.2062 52.1675C62.2062 52.1673 62.2063 52.1673 62.2065 52.1673C62.2062 52.1675 62.206 52.1676 62.2057 52.1677C62.2037 52.169 62.202 52.1702 62.2013 52.1707C62.2017 52.1705 62.2025 52.17 62.2032 52.1696C62.2023 52.1702 62.2019 52.1705 62.201 52.1709C62.2002 52.1716 62.2003 52.1715 62.201 52.1709C62.4242 48.4725 60.2386 46.3165 59.1031 45.4568C60.0284 44.9514 60.9342 44.4526 61.817 43.9668ZM37.0181 68.8971C35.401 68.2603 32.3305 64.1059 32.0957 61.3725C32.0203 60.539 32.4566 59.7482 33.2082 59.351C37.6153 57.021 48.8744 51.0453 58.5452 45.7652C59.5394 46.4577 62.0303 48.6168 61.5872 52.5679C35.488 69.5498 38.5291 69.5014 37.0181 68.8971ZM78.1363 44.0752C75.2295 45.5668 67.9031 50.1538 64.5308 52.184C60.2549 54.7599 43.6075 67.4368 40.503 69.993C39.7886 70.5828 39.0435 69.7836 38.1863 69.4613C39.1219 69.044 40.767 66.3057 76.1509 43.9143C77.7503 43.9853 78.296 43.9687 78.1363 44.0752ZM65.5645 49.9952C65.5645 49.9853 65.5612 49.9787 65.5612 49.9689C65.0985 46.9071 63.4676 44.8038 62.3419 43.6781C67.6614 40.7412 71.2088 38.6999 72.8823 37.6137C73.45 37.2429 74.0932 37.0526 74.7265 37.0526C75.0678 37.0526 75.4059 37.1084 75.7307 37.2167L75.7568 37.2265C77.7281 37.9081 79.6184 40.3144 77.7455 42.2309C75.6748 43.5132 68.5226 48.09 65.5645 49.9952Z" fill="#000E3F"/>
<path d="M65.891 45.7346C65.8606 46.1626 65.7952 46.8277 65.3521 47.0277C64.7055 47.3242 62.7402 47.2039 61.1783 46.8411C61.0795 46.8154 60.9806 46.7928 60.885 46.7671C60.9077 46.711 60.9239 46.6551 60.94 46.5957C60.9497 46.5693 60.9561 46.5396 60.9626 46.51C61.1713 45.6038 60.7384 44.7112 60.0278 44.1986C61.1625 42.9415 62.9932 41.4074 63.7982 41.1823C63.9231 41.1487 64.0416 41.1579 64.157 41.1967C64.6714 41.3747 65.0743 42.1885 65.2509 42.5659C65.7072 43.534 65.9703 44.6614 65.891 45.7346Z" fill="#FC09B2"/>
<path d="M66.6459 51.6303C66.5222 51.858 66.217 52.0013 65.9707 52.085C65.6554 52.1921 65.3525 52.1675 65.0301 52.2056C64.8262 52.2299 64.8588 52.1769 64.8269 52.3384C64.8078 52.4438 64.8813 52.6375 64.895 52.7493C64.9333 53.121 64.9129 53.5686 64.7931 53.9281C64.6282 54.4259 64.3478 54.3255 63.9122 54.101C62.209 53.219 60.4331 50.5308 59.6494 48.7582C59.556 48.5482 59.4626 48.3249 59.3726 48.0918C60.0429 47.92 60.6292 47.4724 60.8852 46.7667C60.9079 46.7106 60.9241 46.6546 60.9402 46.5952C61.0165 46.6737 61.0958 46.7555 61.1785 46.8406C62.0457 47.711 63.4055 48.9635 65.5695 50.4615C65.715 50.566 65.8503 50.6508 65.9725 50.7324C66.227 50.9021 66.4318 51.0522 66.6076 51.2915C66.7404 51.4685 66.6981 51.5312 66.6459 51.6303Z" fill="#FC09B2"/>
<path d="M58.3766 43.7635C57.3507 43.8945 56.6511 44.7081 56.4819 45.6075C56.4723 45.6569 56.466 45.7063 56.4598 45.7557C56.3807 45.7429 56.2983 45.7237 56.2159 45.7044C54.6508 45.3579 52.8266 44.6116 52.3693 44.0646C52.0578 43.6913 52.2879 43.0647 52.4468 42.6623C52.8392 41.6629 53.5647 40.7637 54.3967 40.0875C54.7209 39.8257 55.4383 39.2687 55.9783 39.3281C56.097 39.344 56.209 39.3861 56.305 39.471C56.9236 40.0172 57.8935 42.1473 58.3766 43.7635Z" fill="#FC09B2"/>
<path d="M57.2409 47.6696C57.0806 47.822 56.9168 47.9643 56.7596 48.097C55.286 49.3559 52.5148 51.0041 50.5998 51.0612C50.1095 51.0739 49.8132 51.046 49.8793 50.5224C49.9265 50.1471 50.1051 49.7346 50.3008 49.4176C50.3595 49.3251 50.5133 49.1828 50.5391 49.0773C50.5809 48.9191 50.5878 48.9816 50.4162 48.8707C50.1388 48.6946 49.8584 48.5875 49.6201 48.352C49.4348 48.1688 49.2193 47.9101 49.208 47.6468C49.2042 47.5416 49.1937 47.4626 49.3906 47.3594C49.6532 47.2231 49.9029 47.1755 50.2022 47.1342C50.3501 47.1137 50.508 47.093 50.6854 47.0656C53.2893 46.6557 55.0567 46.1157 56.2161 45.7044C56.308 45.671 56.3967 45.6408 56.4819 45.6074C56.4723 45.6568 56.4661 45.7062 56.4598 45.7556C56.4252 46.0455 56.4434 46.3381 56.524 46.6207C56.6682 47.0707 56.9235 47.4181 57.2409 47.6696Z" fill="#FC09B2"/>
<path d="M60.9628 46.5096C60.6165 48.1043 58.5271 48.6856 57.241 47.6696C57.2378 47.6729 57.2378 47.6729 57.2377 47.6696C57.0294 47.503 56.8505 47.2934 56.7141 47.0505C56.641 46.926 56.5809 46.7881 56.5308 46.6436C56.5307 46.6107 56.2091 45.6451 56.8553 44.7068C57.7071 43.4579 59.4577 43.4412 60.4284 44.5611V44.5644C60.4748 44.6168 60.5177 44.6692 60.5576 44.7216C60.9588 45.2526 61.104 45.9001 60.9628 46.5096Z" fill="#FC09B2"/>
<path opacity="0.5" d="M58.9267 44.9891C58.6813 45.0046 58.4328 45.1036 58.2237 45.2578C58.1202 45.3342 58.0241 45.4205 57.9547 45.5128C57.8821 45.6017 57.8385 45.6935 57.8214 45.7476L57.7958 45.8276C57.7376 46.0099 57.5427 46.1106 57.3604 46.0525C57.2105 46.0046 57.1158 45.8639 57.1192 45.7141C57.1257 45.4371 57.2407 45.2234 57.3691 45.0545C57.5036 44.8876 57.6595 44.7552 57.8321 44.6526C58.1736 44.4531 58.5929 44.341 59.0057 44.447C59.1526 44.4847 59.2413 44.6344 59.2034 44.7815C59.1732 44.8996 59.0707 44.9798 58.9553 44.9874L58.9267 44.9891Z" fill="white"/>
<g opacity="0.25">
<path opacity="0.25" d="M65.8912 45.7343C65.8607 46.1624 65.7954 46.8274 65.3523 47.0274C64.663 47.3407 62.4902 47.1886 60.8918 46.7667C60.8885 46.7667 60.8853 46.7667 60.8853 46.7667C60.908 46.7106 60.9241 46.6547 60.9402 46.5953C60.9499 46.5689 60.9564 46.5392 60.9628 46.5096C61.027 46.2295 61.0319 45.9465 60.9811 45.6802C60.9876 45.6769 60.9942 45.6769 61.0006 45.6735C61.8118 45.3957 62.7432 45.387 63.4941 44.9482C64.0615 44.6126 64.4599 44.0772 64.5481 43.3889C64.6299 42.7368 64.4414 42.0205 64.2273 41.3966C64.1939 41.3112 64.1705 41.2423 64.157 41.1963C64.6714 41.3743 65.0744 42.1881 65.251 42.5655C65.7074 43.5338 65.9705 44.6611 65.8912 45.7343Z" fill="#000E3F"/>
<path opacity="0.25" d="M66.6459 51.6302C66.5222 51.8579 66.217 52.0013 65.9707 52.085C65.6554 52.192 65.3525 52.1675 65.0301 52.2056C64.8262 52.2299 64.8588 52.1769 64.8269 52.3384C64.8078 52.4437 64.8813 52.6375 64.895 52.7493C64.9333 53.1209 64.9129 53.5685 64.7931 53.928C64.6282 54.4259 64.3478 54.3255 63.9122 54.1009C62.209 53.219 60.4331 50.5307 59.6494 48.7582C59.5593 48.5515 59.4659 48.3347 59.3758 48.1049C59.3758 48.1016 59.3758 48.0983 59.3726 48.0917C59.5335 48.0513 59.6912 47.9945 59.8389 47.918C59.8421 47.9213 59.8456 47.9278 59.8456 47.9311C60.4287 49.1815 61.4296 50.4231 63.1675 50.5019C63.8358 50.531 64.3355 50.4622 64.9349 50.5213C65.0699 50.5337 65.5244 50.597 65.6068 50.6227C65.7418 50.6615 65.8639 50.6969 65.9725 50.7325C66.227 50.9022 66.4318 51.0523 66.6076 51.2916C66.7404 51.4685 66.6981 51.5311 66.6459 51.6302Z" fill="#000E3F"/>
<path opacity="0.25" d="M56.8551 44.707C56.6691 44.9778 56.5426 45.2846 56.4817 45.6075C56.4722 45.6569 56.4659 45.7063 56.4596 45.7557C54.8453 45.4358 52.8531 44.6412 52.3693 44.0646C52.0578 43.6913 52.2879 43.0647 52.4468 42.6623C52.8392 41.6629 53.5647 40.7637 54.3967 40.0875C54.7209 39.8257 55.4383 39.2687 55.9783 39.3281C55.9423 39.3645 55.8932 39.4142 55.8278 39.4803C55.3632 39.9471 54.8827 40.5126 54.6724 41.1356C54.4524 41.795 54.5811 42.4492 54.9496 42.9967C55.4245 43.7114 56.2463 44.118 56.8551 44.707Z" fill="#000E3F"/>
<path opacity="0.25" d="M57.2376 47.6698C57.0771 47.822 56.9168 47.9645 56.7596 48.097C55.286 49.356 52.5148 51.0042 50.5998 51.0613C50.1095 51.074 49.8132 51.046 49.8793 50.5224C49.9265 50.1471 50.1051 49.7346 50.3008 49.4177C50.3595 49.3251 50.5133 49.1828 50.5391 49.0773C50.5809 48.9191 50.5878 48.9816 50.4162 48.8707C50.1388 48.6947 49.8584 48.5876 49.6201 48.352C49.4348 48.1688 49.2193 47.9101 49.208 47.6468C49.2042 47.5416 49.1937 47.4627 49.3906 47.3594C49.6532 47.2231 49.9029 47.1755 50.2022 47.1343C50.3175 47.1501 50.4426 47.1691 50.5809 47.1914C50.6666 47.2041 51.1051 47.3463 51.2306 47.395C51.7976 47.6023 52.2173 47.8797 52.8308 48.1427C54.401 48.8116 55.819 48.165 56.8802 47.3165C56.8835 47.3132 56.8835 47.3132 56.8868 47.3099C56.9896 47.4441 57.1087 47.5652 57.2376 47.6698Z" fill="#000E3F"/>
<path opacity="0.25" d="M60.9625 46.5094C60.6163 48.1042 58.5268 48.6854 57.2407 47.6695C57.2376 47.6727 57.2376 47.6727 57.2374 47.6695C57.0291 47.5028 56.8502 47.2933 56.7139 47.0504C56.7596 46.9876 56.8087 46.9315 56.8642 46.8784C57.1914 46.5605 57.6645 46.4032 58.1156 46.463C58.4516 46.5071 58.7815 46.6632 59.1169 46.5988C59.4554 46.5376 59.7171 46.2564 59.8864 45.9559C60.0558 45.6522 60.1593 45.3193 60.3352 45.0187C60.3971 44.9131 60.4722 44.8106 60.5572 44.7212C60.9585 45.2525 61.1037 45.8999 60.9625 46.5094Z" fill="#000E3F"/>
</g>
<path d="M66.8378 51.1173C66.6278 50.8383 66.3849 50.6611 66.1324 50.4938L66.0273 50.4248C65.9353 50.3626 65.837 50.3002 65.732 50.2247C64.0944 49.0926 62.9197 48.1015 62.0763 47.3074C62.7753 47.419 63.4841 47.4813 64.088 47.4813C64.6852 47.4813 65.1841 47.4189 65.4695 47.291C66.0864 47.0121 66.1488 46.1621 66.1783 45.7552C66.2572 44.6952 66.0176 43.5203 65.5122 42.4441C65.2496 41.8894 64.8328 41.1282 64.252 40.9247C64.0749 40.8656 63.8977 40.8557 63.7236 40.905C62.9394 41.1281 61.2001 42.5262 60.009 43.7962C59.6185 43.573 59.1689 43.4582 58.6864 43.4582H58.6767C58.6472 43.4582 58.6144 43.4582 58.5848 43.4615C58.063 41.801 57.1081 39.7959 56.4944 39.2578C56.36 39.1365 56.1959 39.0642 56.012 39.0445C55.3951 38.9723 54.6928 39.481 54.2171 39.8649C53.2916 40.6163 52.5696 41.5713 52.1793 42.559C52.0283 42.9397 51.7165 43.7305 52.1497 44.249C52.5599 44.738 53.8627 45.3385 55.2016 45.7389C54.0959 46.0868 52.6092 46.4739 50.6402 46.7824C50.5122 46.8021 50.394 46.8185 50.2858 46.8317L50.1643 46.8481C49.8656 46.8908 49.5704 46.9432 49.2585 47.1041C48.9502 47.2681 48.914 47.4617 48.9206 47.6489H49.2093L49.4817 47.6259C49.4817 47.6292 49.4784 47.6325 49.4784 47.6358L49.2093 47.6489L48.9206 47.6588V47.662C48.9336 47.9443 49.1011 48.2461 49.4195 48.5579C49.6098 48.745 49.8165 48.8598 50.0134 48.9714C50.0789 49.0042 50.1415 49.0404 50.2037 49.0764C50.1939 49.0928 50.1807 49.1059 50.1709 49.1158C50.1249 49.1716 50.0855 49.2241 50.0594 49.2667C49.8099 49.6637 49.6426 50.1067 49.5933 50.4875C49.5605 50.7698 49.6065 50.9765 49.7443 51.1274C49.9149 51.3145 50.1643 51.3506 50.4531 51.3506C50.5024 51.3506 50.5549 51.3506 50.6073 51.3473C52.7075 51.2882 55.6084 49.4571 56.944 48.3184C57.0523 48.2264 57.1573 48.1346 57.2623 48.0394C57.2754 48.0492 57.2886 48.0591 57.305 48.0689C57.748 48.3414 58.2534 48.4726 58.7521 48.4726C58.903 48.4726 59.0539 48.4594 59.2017 48.4364C59.2575 48.5841 59.3232 48.7286 59.3855 48.8729C60.0942 50.4808 61.9156 53.3884 63.7795 54.3531C64.0092 54.4746 64.2225 54.573 64.4327 54.573C64.5048 54.573 64.5803 54.5598 64.6558 54.5303C64.8428 54.4549 64.9773 54.2874 65.066 54.0183C65.1874 53.6574 65.23 53.1815 65.1775 52.7188C65.1742 52.6697 65.1578 52.604 65.1414 52.535C65.1381 52.5186 65.1348 52.5022 65.1282 52.4858C65.2038 52.4792 65.2759 52.4726 65.3448 52.4694C65.5746 52.4562 65.8108 52.4431 66.0634 52.3579C66.4836 52.2135 66.7657 52.0166 66.9002 51.7639L66.9068 51.7541C66.992 51.5864 67.0446 51.3961 66.8378 51.1173ZM63.8746 41.4595C63.9041 41.453 63.9304 41.4464 63.9566 41.4464C63.9895 41.4464 64.0256 41.453 64.0617 41.4661C64.2553 41.5351 64.5737 41.8008 64.9905 42.6868C65.4565 43.6778 65.6762 44.7509 65.6074 45.7123C65.5943 45.8632 65.5778 46.0897 65.5253 46.2998C65.4729 46.5066 65.3842 46.6969 65.2333 46.7658C64.6885 47.0153 62.8377 46.9168 61.3249 46.5755L61.2625 46.5131V46.5099C61.4266 45.732 61.2067 44.8919 60.6193 44.2685C60.5865 44.2356 60.5504 44.2029 60.5175 44.1668C60.5044 44.1537 60.4912 44.1438 60.4781 44.134C61.5578 43.0019 63.123 41.6695 63.8746 41.4595ZM52.5926 43.8814H52.5893C52.3759 43.6254 52.6024 43.0479 52.7139 42.7689C53.065 41.873 53.7279 41.0001 54.5779 40.3111C55.2769 39.7432 55.6739 39.612 55.8905 39.612C55.9102 39.612 55.9299 39.612 55.9463 39.6153C56.0152 39.6219 56.0677 39.6449 56.117 39.6876C56.701 40.2028 57.528 42.0635 58.0071 43.5467C57.4886 43.6845 57.0358 43.9898 56.6945 44.4392C56.4777 44.728 56.3235 45.0528 56.2383 45.3909C56.2252 45.3975 56.2088 45.4008 56.1956 45.4074C54.6861 45.0561 52.9765 44.3407 52.5926 43.8814ZM56.5731 47.8783C54.9718 49.2435 52.33 50.7235 50.5908 50.7728C50.3446 50.7826 50.2036 50.7695 50.1707 50.7432C50.1707 50.7432 50.1477 50.7005 50.1642 50.5595C50.2036 50.2641 50.3446 49.8933 50.5448 49.5683C50.5612 49.5421 50.5875 49.5125 50.6138 49.483C50.6926 49.3846 50.7844 49.2762 50.8172 49.1483L50.8271 49.1122C50.8632 48.981 50.8829 48.7972 50.6466 48.6724C50.6269 48.6626 50.6039 48.6495 50.5679 48.6265C50.476 48.5706 50.3842 48.5183 50.2922 48.469C50.1118 48.3672 49.9576 48.2787 49.8196 48.1475C49.6195 47.9506 49.5014 47.7634 49.4948 47.6355H49.485C49.4948 47.6322 49.5047 47.6223 49.5211 47.6158C49.7344 47.5043 49.9379 47.4614 50.243 47.4189L50.3612 47.4025C50.476 47.3861 50.5975 47.3696 50.7287 47.3499C53.2425 46.9529 54.9882 46.4345 56.1598 46.0276C56.1598 46.2606 56.1926 46.4969 56.2582 46.7264C56.3632 47.0842 56.5534 47.4058 56.8127 47.6716C56.7339 47.7406 56.6518 47.8094 56.5731 47.8783ZM58.9916 47.8783C58.5518 47.9276 58.0891 47.8488 57.692 47.6289C57.6625 47.6125 57.6362 47.5961 57.6067 47.5797C57.4655 47.4943 57.3408 47.3926 57.2324 47.2777C57.0323 47.0742 56.8846 46.8281 56.8027 46.5425C56.7633 46.4015 56.737 46.2504 56.7337 46.0995C56.7305 46.0043 56.7337 45.9125 56.7436 45.8173C56.7534 45.7189 56.7699 45.6237 56.7961 45.5286C56.8288 45.3908 56.8782 45.2594 56.9405 45.1315C56.9996 45.01 57.0717 44.8952 57.1538 44.7869C57.4163 44.4356 57.7707 44.1995 58.1743 44.0977C58.3351 44.055 58.5024 44.032 58.6765 44.032C58.6796 44.032 58.683 44.032 58.683 44.032C58.7059 44.032 58.729 44.032 58.7518 44.0353C59.0637 44.0419 59.3523 44.1107 59.6149 44.2355C59.7888 44.3176 59.9464 44.4258 60.0908 44.5571C60.1006 44.567 60.1105 44.5736 60.1203 44.5834C60.1466 44.6097 60.1729 44.636 60.1991 44.6622C60.5471 45.033 60.7307 45.5023 60.7372 45.9683C60.7407 45.9814 60.7407 45.9913 60.7407 46.0044C60.7407 46.1422 60.7243 46.2833 60.6947 46.4179C60.675 46.5066 60.6487 46.5918 60.616 46.6739C60.5832 46.7691 60.5372 46.8642 60.4847 46.9529C60.442 47.0317 60.3929 47.1038 60.3371 47.176C60.1369 47.432 59.8645 47.6256 59.5528 47.7437C59.3755 47.8159 59.1852 47.8619 58.9916 47.8783ZM66.3915 51.4946C66.3324 51.6063 66.1454 51.7211 65.8764 51.8129C65.6992 51.872 65.5187 51.8851 65.312 51.895C65.2069 51.9015 65.102 51.9081 64.9936 51.9213C64.9542 51.9245 64.9279 51.9278 64.9082 51.9278C64.6391 51.9377 64.5769 52.1116 64.5539 52.2429L64.5473 52.2823C64.5177 52.4103 64.5539 52.5515 64.5834 52.6728C64.5931 52.7122 64.6031 52.7483 64.6064 52.7779C64.6491 53.1585 64.6163 53.5556 64.521 53.8378C64.4783 53.9691 64.4389 53.9986 64.4389 53.9986C64.393 54.0117 64.2618 53.9592 64.0419 53.8444C62.4995 53.0437 60.7602 50.566 59.9103 48.6432C59.8579 48.525 59.8086 48.4069 59.7594 48.2887C60.163 48.1279 60.5241 47.8719 60.7898 47.5274C60.8916 47.3962 60.9801 47.2583 61.0491 47.1139C61.9253 47.9901 63.2805 49.2305 65.4037 50.6974C65.5119 50.7729 65.6137 50.8417 65.7089 50.9041L65.814 50.9731C66.0698 51.1437 66.234 51.2718 66.3784 51.4621C66.3849 51.4719 66.3915 51.4818 66.3948 51.4884L66.3915 51.4946Z" fill="#000E3F"/>
</g>
<defs>
<clipPath id="clip0">
<rect width="73.1" height="73.1" fill="white" transform="translate(6 6)"/>
</clipPath>
</defs>
</svg>
