<svg width="72" height="70" viewBox="0 0 72 70" fill="none" xmlns="http://www.w3.org/2000/svg">
<path d="M7.55092 58.1355C10.6523 57.8772 12.9571 55.1537 12.6988 52.0523C12.4405 48.9509 9.71695 46.6461 6.61556 46.9044C3.51417 47.1627 1.20939 49.8862 1.46768 52.9876C1.72598 56.089 4.44954 58.3938 7.55092 58.1355Z" fill="#FF984E"/>
<path d="M60.9827 57.5974H9.31353C8.80866 57.5974 8.39941 57.1881 8.39941 56.6832V22.5904C8.39941 22.0855 8.80866 21.6763 9.31353 21.6763H60.9827C61.4875 21.6763 61.8968 22.0855 61.8968 22.5904V56.6831C61.8969 57.1879 61.4875 57.5974 60.9827 57.5974Z" fill="#EF7926"/>
<path d="M58.5992 23.6934H10.2241V55.4845H58.5992V23.6934Z" fill="#FFE5D2"/>
<path d="M60.424 41.4126C59.7801 41.4126 59.2563 40.8886 59.2563 40.2448C59.2563 39.6009 59.7801 39.0771 60.424 39.0771C61.0678 39.0771 61.5916 39.6009 61.5916 40.2448C61.5914 40.8886 61.0678 41.4126 60.424 41.4126ZM60.424 39.1713C59.832 39.1713 59.3505 39.653 59.3505 40.2448C59.3505 40.8367 59.832 41.3184 60.424 41.3184C61.0159 41.3184 61.4975 40.8369 61.4975 40.2448C61.4975 39.653 61.0158 39.1713 60.424 39.1713Z" fill="#FFE5D2"/>
<path d="M54.4373 53.2883H14.2261C14.1482 53.2883 14.085 53.225 14.085 53.1472V30.0962C14.085 30.0183 14.1482 29.9551 14.2261 29.9551C14.304 29.9551 14.3672 30.0183 14.3672 30.0962V53.0062H54.4373C54.5152 53.0062 54.5785 53.0695 54.5785 53.1473C54.5785 53.2252 54.5152 53.2883 54.4373 53.2883Z" fill="#FFA766"/>
<path d="M18.4523 53.1301C18.4263 53.1301 18.4053 53.1089 18.4053 53.0831V30.7364C18.4053 30.7105 18.4265 30.6895 18.4523 30.6895C18.4781 30.6895 18.4992 30.7106 18.4992 30.7364V53.0831C18.4992 53.1089 18.4781 53.1301 18.4523 53.1301Z" fill="#FFA766"/>
<path d="M23.9591 53.1301C23.9331 53.1301 23.9121 53.1089 23.9121 53.0831V30.7364C23.9121 30.7105 23.9333 30.6895 23.9591 30.6895C23.9851 30.6895 24.0061 30.7106 24.0061 30.7364V53.0831C24.0061 53.1089 23.9849 53.1301 23.9591 53.1301Z" fill="#FFA766"/>
<path d="M29.4654 53.1301C29.4395 53.1301 29.4185 53.1089 29.4185 53.0831V30.7364C29.4185 30.7105 29.4397 30.6895 29.4654 30.6895C29.4914 30.6895 29.5124 30.7106 29.5124 30.7364V53.0831C29.5124 53.1089 29.4912 53.1301 29.4654 53.1301Z" fill="#FFA766"/>
<path d="M34.9723 53.1301C34.9463 53.1301 34.9253 53.1089 34.9253 53.0831V30.7364C34.9253 30.7105 34.9465 30.6895 34.9723 30.6895C34.9982 30.6895 35.0193 30.7106 35.0193 30.7364V53.0831C35.0193 53.1089 34.9981 53.1301 34.9723 53.1301Z" fill="#FFA766"/>
<path d="M34.9723 53.1301C34.9463 53.1301 34.9253 53.1089 34.9253 53.0831V30.7364C34.9253 30.7105 34.9465 30.6895 34.9723 30.6895C34.9982 30.6895 35.0193 30.7106 35.0193 30.7364V53.0831C35.0193 53.1089 34.9981 53.1301 34.9723 53.1301Z" fill="#FFA766"/>
<path d="M40.4786 53.1301C40.4527 53.1301 40.4316 53.1089 40.4316 53.0831V30.7364C40.4316 30.7105 40.4528 30.6895 40.4786 30.6895C40.5046 30.6895 40.5256 30.7106 40.5256 30.7364V53.0831C40.5256 53.1089 40.5044 53.1301 40.4786 53.1301Z" fill="#FFA766"/>
<path d="M45.9855 53.1301C45.9595 53.1301 45.9385 53.1089 45.9385 53.0831V30.7364C45.9385 30.7105 45.9597 30.6895 45.9855 30.6895C46.0114 30.6895 46.0325 30.7106 46.0325 30.7364V53.0831C46.0325 53.1089 46.0114 53.1301 45.9855 53.1301Z" fill="#FFA766"/>
<path d="M51.4918 53.1301C51.4659 53.1301 51.4448 53.1089 51.4448 53.0831V30.7364C51.4448 30.7105 51.466 30.6895 51.4918 30.6895C51.5178 30.6895 51.5388 30.7106 51.5388 30.7364V53.0831C51.5388 53.1089 51.5178 53.1301 51.4918 53.1301Z" fill="#FFA766"/>
<path d="M18.3245 45.0456C18.2964 45.0456 18.2687 45.0331 18.2503 45.0091C18.2184 44.9682 18.2258 44.909 18.2669 44.8772L29.4081 36.2329C29.4405 36.2078 29.4855 36.2068 29.5192 36.2298L40.4714 43.8073L53.4145 32.2032C53.4529 32.1687 53.5127 32.1717 53.5472 32.2104C53.5819 32.249 53.5788 32.3085 53.54 32.3432L40.5417 43.9967C40.5098 44.026 40.4615 44.0288 40.4256 44.0041L29.4688 36.4237L18.382 45.0257C18.3649 45.0392 18.3447 45.0456 18.3245 45.0456Z" fill="#EF7926"/>
<path d="M19.0286 44.9833C19.0286 45.3546 18.7277 45.6556 18.3564 45.6556C17.9851 45.6556 17.6841 45.3546 17.6841 44.9833C17.6841 44.612 17.9851 44.311 18.3564 44.311C18.7277 44.311 19.0286 44.612 19.0286 44.9833Z" fill="#EF7926"/>
<path d="M29.4174 37.1556C29.7887 37.1556 30.0897 36.8546 30.0897 36.4833C30.0897 36.112 29.7887 35.811 29.4174 35.811C29.0461 35.811 28.7451 36.112 28.7451 36.4833C28.7451 36.8546 29.0461 37.1556 29.4174 37.1556Z" fill="#EF7926"/>
<path d="M41.1351 43.8149C41.1351 44.1862 40.8341 44.4871 40.4628 44.4871C40.0915 44.4871 39.7905 44.1862 39.7905 43.8149C39.7905 43.4436 40.0915 43.1426 40.4628 43.1426C40.8341 43.1426 41.1351 43.4436 41.1351 43.8149Z" fill="#EF7926"/>
<path d="M54.0374 32.2572C54.0374 32.6285 53.7365 32.9295 53.3652 32.9295C52.9939 32.9295 52.6929 32.6285 52.6929 32.2572C52.6929 31.8859 52.9939 31.585 53.3652 31.585C53.7365 31.585 54.0374 31.8859 54.0374 32.2572Z" fill="#EF7926"/>
<path opacity="0.25" d="M10.2241 23.6934V55.4845L58.5992 23.6934C58.5992 23.6934 10.2241 23.7895 10.2241 23.6934Z" fill="#FFF5EE"/>
<path d="M61.2646 13H41.399C40.3602 13 39.5181 13.8422 39.5181 14.881V17.7783C39.5181 18.8171 40.3602 19.6592 41.399 19.6592H53.5847L52.5163 23.3731L55.7844 19.6592H61.2646C62.3034 19.6592 63.1454 18.8171 63.1454 17.7783V14.881C63.1454 13.8422 62.3034 13 61.2646 13Z" fill="#FEFFFD"/>
<path d="M47.3938 16.2656C47.3938 16.7253 47.0212 17.0979 46.5613 17.0979C46.1016 17.0979 45.729 16.7253 45.729 16.2656C45.729 15.8059 46.1016 15.4331 46.5613 15.4331C47.0212 15.4331 47.3938 15.8057 47.3938 16.2656Z" fill="#FF984E"/>
<path d="M52.3239 16.2656C52.3239 16.7253 51.9513 17.0979 51.4916 17.0979C51.032 17.0979 50.6592 16.7253 50.6592 16.2656C50.6592 15.8059 51.0318 15.4331 51.4916 15.4331C51.9513 15.4331 52.3239 15.8057 52.3239 16.2656Z" fill="#FF984E"/>
<path d="M56.9983 16.2656C56.9983 16.7253 56.6257 17.0979 56.1658 17.0979C55.7061 17.0979 55.3335 16.7253 55.3335 16.2656C55.3335 15.8059 55.7061 15.4331 56.1658 15.4331C56.6255 15.4331 56.9983 15.8057 56.9983 16.2656Z" fill="#FF984E"/>
<path opacity="0.08" d="M29.2412 21.1001H8.30322V31.7612H29.2412V21.1001Z" fill="#401A49"/>
<path d="M28.2793 16.6392H5.80566V30.5445H28.2793V16.6392Z" fill="#FFF5EE"/>
<path d="M17.0962 24.9898C17.0808 24.9898 17.0652 24.9849 17.0522 24.9754L5.76288 16.6985C5.72969 16.674 5.72247 16.6274 5.74695 16.594C5.77175 16.5608 5.81841 16.5541 5.85144 16.5781L17.0962 24.8224L28.2369 16.5782C28.2699 16.5536 28.3164 16.5605 28.3413 16.5938C28.366 16.627 28.3589 16.6737 28.3257 16.6983L17.1409 24.9752C17.1274 24.9849 17.1118 24.9898 17.0962 24.9898Z" fill="#FF984E"/>
<path d="M28.2805 30.6177C28.2657 30.6177 28.2506 30.6133 28.2376 30.6043L18.5879 23.8399C18.5542 23.816 18.546 23.7696 18.5697 23.7357C18.5937 23.7022 18.6406 23.6941 18.6738 23.7173L28.3235 30.4817C28.3572 30.5055 28.3654 30.552 28.3418 30.5859C28.3271 30.6066 28.3038 30.6177 28.2805 30.6177Z" fill="#FF984E"/>
<path d="M5.8067 30.618C5.78304 30.618 5.75987 30.6068 5.74525 30.5858C5.72176 30.552 5.73014 30.5055 5.76415 30.4818L15.5022 23.7174C15.5356 23.6939 15.5826 23.7023 15.6062 23.7363C15.6297 23.7702 15.6213 23.8167 15.5873 23.8403L5.84925 30.6047C5.83643 30.6136 5.82132 30.618 5.8067 30.618Z" fill="#FF984E"/>
<path d="M67.8196 29.5201C70.6133 29.5201 72.878 27.2554 72.878 24.4617C72.878 21.668 70.6133 19.4033 67.8196 19.4033C65.0259 19.4033 62.7612 21.668 62.7612 24.4617C62.7612 27.2554 65.0259 29.5201 67.8196 29.5201Z" fill="#FF984E"/>
</svg>
