<svg width="68" height="60" viewBox="0 0 68 60" fill="none" xmlns="http://www.w3.org/2000/svg">
<path d="M66.1403 41.4267C66.118 41.5389 66.091 41.6557 66.0686 41.7679C65.8664 42.7377 65.6061 43.7031 65.2873 44.6594C64.1198 48.202 62.1936 51.5606 59.5445 54.0525C57.7576 55.7453 55.6337 57.0383 53.1868 57.7208C52.3112 57.9632 51.4312 58.1833 50.5466 58.3808C42.9316 60.069 34.9528 60.0735 26.8933 59.9568C23.3058 59.903 19.6643 59.7189 16.189 58.9106C15.0081 58.6367 13.8453 58.291 12.7093 57.8554C6.82728 55.6013 3.177 51.035 1.37199 45.5887C1.03528 44.5739 0.765846 43.5278 0.554905 42.4637C0.294585 41.1571 0.132859 39.8235 0.0519953 38.4676C0.00708966 37.7088 -0.00633238 36.9499 0.00261561 36.1867C0.0519952 32.6486 0.240566 28.9353 0.828813 25.2985C1.54266 20.8218 2.84029 16.4621 5.17521 12.6636C9.10388 6.26973 16.5395 2.34554 23.6472 0.684196C23.8222 0.63929 23.9884 0.585437 24.1635 0.567541C36.6547 -0.801998 49.6354 -0.0341282 58.7007 6.69641C63.5903 10.3333 65.9836 16.5879 66.8592 23.278C67.685 29.5461 67.173 36.2002 66.1403 41.4267Z" fill="#FFCC58"/>
<path d="M37.5008 3.82662C39.0762 4.17553 40.7671 4.5165 42.2637 3.91293C42.4784 3.82628 42.7001 3.707 42.801 3.49857C43.0083 3.06997 42.5902 2.60242 42.1772 2.36584C40.7877 1.56992 39.023 1.57522 37.4867 1.85406C35.8048 2.15924 35.7387 3.43628 37.5008 3.82662Z" fill="#FFEAE6"/>
<path d="M47.604 5.34598C48.5 5.5435 49.393 5.75527 50.2942 5.92711C51.0467 6.07044 52.1027 6.39754 52.8663 6.22521C53.0419 6.1856 53.2109 6.06215 53.2492 5.88618C53.3069 5.62188 53.0648 5.39371 52.8374 5.24706C51.9986 4.70653 51.0051 4.32144 50.0692 3.9834C48.6519 3.47138 46.6941 2.74096 45.1917 3.222C44.5418 3.42995 44.366 4.07603 44.9146 4.55458C45.5269 5.08848 46.6698 5.14184 47.4309 5.30804C47.4887 5.32047 47.5465 5.33322 47.604 5.34598Z" fill="#FFEAE6"/>
<g opacity="0.13">
<g opacity="0.13">
<path opacity="0.13" d="M59.5443 54.0527C57.7574 55.7455 55.6335 57.0385 53.1866 57.721C52.311 57.9634 51.431 58.1835 50.5464 58.381C42.9314 60.0692 34.9526 60.0737 26.8931 59.957C23.3056 59.9032 19.6641 59.7191 16.1888 58.9108C15.0078 58.6369 13.8451 58.2912 12.709 57.8556C6.82706 55.6015 3.17678 51.0352 1.37177 45.5889C1.03506 44.5741 0.765628 43.528 0.554688 42.4639C1.15188 43.0836 1.78056 43.6717 2.43592 44.224C4.73489 46.1995 7.35698 47.8159 10.1004 49.1001C13.2119 50.5504 16.4808 51.6011 19.8167 52.4407C21.7609 52.93 23.7275 53.3476 25.6942 53.7294C32.5459 55.0585 39.5144 55.9834 46.4963 55.8217C47.1833 55.8037 47.8703 55.7768 48.5573 55.7364C52.2661 55.5297 55.9613 54.9955 59.5443 54.0527Z" fill="#5A314E"/>
</g>
</g>
<path d="M55.8874 49.5805C60.0092 49.5805 63.3506 46.2392 63.3506 42.1174C63.3506 37.9956 60.0092 34.6543 55.8874 34.6543C51.7657 34.6543 48.4243 37.9956 48.4243 42.1174C48.4243 46.2392 51.7657 49.5805 55.8874 49.5805Z" fill="#FF6969"/>
<path d="M11.6999 50.6938C15.8217 50.6938 19.1631 47.3525 19.1631 43.2307C19.1631 39.1089 15.8217 35.7676 11.6999 35.7676C7.57817 35.7676 4.23682 39.1089 4.23682 43.2307C4.23682 47.3525 7.57817 50.6938 11.6999 50.6938Z" fill="#FF6969"/>
<path d="M29.6109 24.7519C29.7622 17.6472 24.1256 11.765 17.021 11.6137C9.9164 11.4623 4.03431 17.0991 3.88295 24.2037C3.73159 31.3084 9.36828 37.1906 16.4729 37.3419C23.5774 37.4933 29.4595 31.8565 29.6109 24.7519Z" fill="#FFEAE6"/>
<path d="M26.3677 24.4869C26.5044 29.7336 22.36 34.0996 17.1134 34.2363C11.8667 34.373 7.50571 30.2286 7.36901 24.9819C7.23247 19.7402 11.3717 15.3742 16.6184 15.2377C17.6249 15.2115 18.6006 15.3408 19.52 15.6109L16.9337 20.8338L22.1295 16.8293C24.6158 18.4795 26.2841 21.2781 26.3677 24.4869Z" fill="#5A314E"/>
<path d="M55.2285 36.7618C62.0119 34.6456 65.7954 27.431 63.6792 20.6476C61.563 13.8641 54.3485 10.0805 47.5651 12.1967C40.7817 14.3128 36.9982 21.5274 39.1144 28.3109C41.2306 35.0943 48.4451 38.8779 55.2285 36.7618Z" fill="#FFEAE6"/>
<path d="M61.022 24.4869C61.1587 29.7336 57.0145 34.0996 51.7677 34.2363C46.521 34.373 42.16 30.2286 42.0233 24.9819C41.8868 19.7402 46.026 15.3742 51.2727 15.2377C52.2792 15.2115 53.2549 15.3408 54.1743 15.6109L51.588 20.8338L56.7838 16.8293C59.2701 18.4795 60.9384 21.2781 61.022 24.4869Z" fill="#5A314E"/>
<path d="M46.1413 46.0282C46.0677 47.0584 41.4782 53.0481 34.2975 53.0481C27.1167 53.0481 22.5768 47.7535 22.4868 47.0299C22.3887 46.2123 22.4172 45.3742 22.5072 44.5565C22.8669 41.3063 24.2242 38.1134 26.3828 35.7912C28.4965 33.5141 31.3786 32.0627 34.8415 32.1976C37.7728 32.3121 40.6345 33.6653 42.5845 35.8525C44.7187 38.2441 46.4111 42.4388 46.1413 46.0282Z" fill="#5A314E"/>
<path d="M46.1413 46.028C46.0677 47.0582 45.8306 48.0395 45.3973 48.9143C44.2485 51.2281 41.7956 52.3443 39.4081 52.937C36.3214 53.6974 33.0754 53.8161 29.9438 53.2723C27.2006 52.7939 24.298 51.6043 23.0756 49.1023C22.7567 48.4523 22.5768 47.7532 22.4868 47.0295C25.7083 45.0426 29.1996 43.7958 33.0304 43.5342C37.3599 43.2439 41.726 44.1352 45.7203 45.8318C45.8593 45.8931 46.0064 45.9584 46.1413 46.028Z" fill="#FF6969"/>
<path d="M9.17233 11.8197C9.07605 11.8197 8.97994 11.7862 8.90206 11.7175C8.73288 11.5682 8.71648 11.3098 8.86577 11.1405C10.6025 9.16911 13.2027 7.99609 15.8293 7.99609C15.8449 7.99609 15.8608 7.99609 15.8769 7.99609C16.1024 7.99725 16.2845 8.18135 16.2833 8.40737C16.2822 8.63206 16.0992 8.81384 15.8745 8.81384C15.8598 8.815 15.8442 8.81384 15.829 8.81384C13.4339 8.81384 11.0632 9.88346 9.47904 11.6812C9.39818 11.7731 9.28534 11.8197 9.17233 11.8197Z" fill="#5A314E"/>
<path d="M58.4624 12.098C58.3494 12.098 58.2364 12.0513 58.1558 11.9595C56.5717 10.1618 54.201 9.09216 51.8059 9.09216C51.7907 9.09216 51.7779 9.09249 51.7604 9.09216C51.5355 9.09216 51.3527 8.91055 51.3516 8.68569C51.3504 8.45967 51.5324 8.27574 51.758 8.27441C51.7739 8.27441 51.79 8.27441 51.8056 8.27441C54.4327 8.27441 57.0321 9.44743 58.7691 11.4188C58.9184 11.5882 58.902 11.8465 58.7328 11.9958C58.6548 12.0644 58.5585 12.098 58.4624 12.098Z" fill="#5A314E"/>
</svg>
