<svg width="68" height="60" viewBox="0 0 68 60" fill="none" xmlns="http://www.w3.org/2000/svg">
<path d="M65.2189 37.1063C64.8852 42.1112 63.072 46.7911 59.9858 50.5404C59.7072 50.8804 59.0924 50.8415 58.793 51.1656C58.3426 51.6533 58.1944 52.4935 57.6985 52.9419C55.3893 55.0317 52.5884 56.6912 49.3571 57.7756C48.0664 58.2059 46.758 58.5527 45.4366 58.8336C40.9015 59.7906 36.2084 59.9443 31.5811 59.9971C25.9178 60.0629 19.9953 59.0094 14.7403 56.8845C14.1081 56.6298 13.4891 56.3488 12.8789 56.0504C12.5327 55.8783 12.2222 54.9464 11.8851 54.7602C11.4144 54.5001 10.9215 54.9785 10.4687 54.6894V54.6849C6.88622 52.3932 3.94044 49.1885 2.38636 45.1451C1.1219 41.848 0.968256 38.5203 1.35459 35.188C1.58282 33.2257 1.99128 31.2631 2.47415 29.3052C4.26093 22.0173 7.11462 13.9921 12.4575 8.55256C22.0414 -1.20679 38.2851 -2.97179 49.4845 5.11499C57.5449 10.9364 62.7166 20.4149 64.7185 30.0295C65.2145 32.4175 65.3726 34.7971 65.2189 37.1063Z" fill="#FFCC58"/>
<path d="M66.1409 41.4265C66.1185 41.5388 66.0915 41.6554 66.0692 41.7677C65.8671 42.7376 65.6067 43.7029 65.2879 44.6593C64.1205 48.2019 62.1942 51.5604 59.5452 54.0524C57.7582 55.7453 55.6343 57.0384 53.1874 57.7208C52.3117 57.9633 51.4317 58.1833 50.5472 58.3809C42.932 60.0692 34.9533 60.0737 26.8936 59.9569C23.3061 59.9031 19.6647 59.7189 16.1893 58.9108C15.0084 58.637 13.8455 58.2913 12.7095 57.8557C6.82763 55.6016 3.17722 51.0354 1.37212 45.5889C1.03544 44.5742 0.765952 43.5279 0.554962 42.4639C0.294529 41.1572 0.1328 39.8237 0.0520255 38.4678C0.00711077 37.7089 -0.00629168 36.9501 0.0025826 36.1869C0.052025 32.6488 0.240559 28.9355 0.828797 25.2985C1.54272 20.8219 2.84036 16.4621 5.1752 12.6635C9.10397 6.26971 16.5395 2.34547 23.6473 0.684169C23.8224 0.639254 23.9885 0.585465 24.1636 0.567536C36.655 -0.802001 49.6355 -0.0341042 58.701 6.6964C63.5908 10.3334 65.9839 16.588 66.8596 23.2781C67.6854 29.5459 67.1736 36.2001 66.1409 41.4265Z" fill="#FFCC58"/>
<path d="M37.5015 3.82646C39.0773 4.17546 40.7685 4.51648 42.2652 3.91285C42.48 3.8261 42.7017 3.70693 42.8026 3.49847C43.0099 3.06979 42.5917 2.60217 42.1786 2.36546C40.7888 1.56932 39.0239 1.57475 37.4874 1.85365C35.8053 2.15864 35.739 3.43599 37.5015 3.82646Z" fill="#FFEAE6"/>
<path d="M47.6047 5.34568C48.5006 5.54327 49.3937 5.75498 50.295 5.92685C51.0474 6.07029 52.1036 6.39719 52.8671 6.22496C53.0428 6.18529 53.2118 6.06178 53.2502 5.88592C53.3079 5.62169 53.0656 5.39349 52.8383 5.24679C51.9994 4.70637 51.0061 4.32115 50.0701 3.98321C48.6528 3.47121 46.695 2.74081 45.1927 3.22165C44.5429 3.42974 44.3668 4.07575 44.9158 4.55424C45.5281 5.08814 46.6709 5.14139 47.4321 5.30765C47.4893 5.32014 47.5471 5.33282 47.6047 5.34568Z" fill="#FFEAE6"/>
<g opacity="0.06">
<path opacity="0.06" d="M45.4376 58.8334C40.9024 59.7904 36.2093 59.944 31.5821 59.9968C25.9187 60.0627 19.9963 59.0091 14.7413 56.8842C14.1091 56.6296 13.49 56.3485 12.8799 56.0501C12.0501 55.6374 11.2468 55.1852 10.4697 54.6891V54.6847C6.88719 52.3929 3.94142 49.1882 2.38733 45.1448C1.12287 41.8477 0.969232 38.52 1.35557 35.1877C1.92195 36.2283 2.44444 37.2249 2.91411 37.8526C4.77993 40.3375 6.90486 42.6248 9.2184 44.6926C13.8237 48.8063 19.1798 52.0638 24.9046 54.3599C31.4459 56.985 38.4001 58.3856 45.4376 58.8334Z" fill="#5A314E"/>
</g>
<path d="M14.7598 52.2251C18.9159 50.5035 20.8896 45.7387 19.168 41.5825C17.4464 37.4264 12.6816 35.4527 8.5254 37.1743C4.36924 38.8959 2.39561 43.6607 4.11719 47.8169C5.83877 51.9731 10.6036 53.9467 14.7598 52.2251Z" fill="#FF6969"/>
<path d="M55.0579 50.9761C59.5564 50.9761 63.2031 47.3293 63.2031 42.8308C63.2031 38.3323 59.5564 34.6855 55.0579 34.6855C50.5594 34.6855 46.9126 38.3323 46.9126 42.8308C46.9126 47.3293 50.5594 50.9761 55.0579 50.9761Z" fill="#FF6969"/>
<path d="M13.5922 37.4472C13.1412 37.351 12.4166 37.4952 11.9656 37.3992C11.1892 37.8169 10.668 38.6672 10.6458 39.5471C10.6272 40.4122 11.0525 41.2514 10.9674 42.1091C10.838 43.4216 9.5478 44.4677 9.62171 45.7876C9.69201 46.9706 10.8527 47.8727 10.9342 49.0593C11.0414 50.6194 9.24103 52.0094 9.76592 53.4846C9.92385 53.9198 10.2701 54.2736 10.4664 54.683C10.4674 54.6837 10.4685 54.6844 10.4695 54.6851V54.6892C10.4695 54.6894 10.4695 54.6894 10.4697 54.6896C11.2466 55.1856 12.05 55.6378 12.8797 56.0504C12.8797 56.0504 12.8799 56.0504 12.8799 56.0506C13.0354 55.7616 13.1351 55.4619 13.1044 55.1335C13.0267 54.3017 12.1506 53.7324 12.0026 52.9079C11.814 51.8395 12.9046 50.9708 13.1155 49.9023C13.4631 48.1426 11.3521 46.516 11.866 44.797C12.1986 43.699 13.5444 42.9152 13.3522 41.7877C13.2745 41.3294 12.9454 40.9597 12.742 40.542C12.2281 39.4915 12.6162 38.0866 13.5922 37.4472Z" fill="#FFEAE6"/>
<path d="M59.9866 50.5404C59.2886 51.3921 58.5246 52.1954 57.6993 52.9419C57.8662 52.5643 58.033 52.1824 58.0243 51.7784C57.9936 50.694 56.7555 50.0618 56.334 49.0609C55.6447 47.4013 57.3878 45.3862 56.536 43.8014C55.9916 42.7917 54.5121 42.2955 54.477 41.1497C54.4593 40.6888 54.7097 40.2585 54.8239 39.8151C55.0127 39.0819 54.8064 38.2785 54.3365 37.6859C54.0862 37.3654 53.7527 37.102 53.3706 36.9526C53.7964 36.7683 54.5341 36.7639 54.9554 36.5793C55.434 36.72 55.8597 37.0185 56.1802 37.4048C56.4172 37.6989 56.593 38.0503 56.6808 38.4189C56.8696 39.2619 56.6194 40.1663 56.8739 40.9916C57.2691 42.2516 58.7441 43.0198 58.9329 44.3237C59.0998 45.5002 58.1428 46.6153 58.3007 47.7962C58.4456 48.8501 59.4378 49.649 59.9866 50.5404Z" fill="#FFEAE6"/>
<path d="M9.78229 24.2081C7.22405 26.3538 5.56759 29.4849 5.86562 32.9379C5.96199 34.0556 6.28042 35.1949 7.01913 36.0392C9.49027 38.8631 15.3309 38.4481 18.717 38.885C20.4427 39.1076 22.2849 39.106 23.8143 38.2761C26.4278 36.8578 28.0057 33.4402 28.0979 30.5698C28.362 22.3515 18.6332 19.4085 12.2961 22.5631C11.396 23.011 10.5488 23.5654 9.78229 24.2081Z" fill="#FFEAE6"/>
<path d="M25.8017 34.9073C25.3497 35.6769 24.7297 36.3679 23.9301 36.7714C23.1979 37.1413 22.3649 37.2532 21.5505 37.3578C19.8395 37.5819 18.0912 37.8023 16.4027 37.4662C15.4276 37.2757 14.4974 36.902 13.515 36.7638C11.9609 36.5397 10.2276 36.8833 8.91638 36.0279C7.80316 35.2957 7.3436 33.8949 7.25032 32.5761C7.06736 30.0619 7.9712 27.488 9.68596 25.6239C11.9386 23.1734 15.2073 22.273 18.3117 22.7325C17.9344 24.5706 17.5534 26.4084 17.176 28.2465C18.1697 26.4048 19.1821 24.8844 20.3065 23.2219C22.1557 23.872 23.8442 25.0299 25.0807 26.6512C26.8627 28.9862 27.2811 32.3744 25.8017 34.9073Z" fill="#5A314E"/>
<path d="M57.754 23.4531C60.3121 25.5986 61.9687 28.7299 61.6707 32.1828C61.5743 33.3005 61.256 34.4397 60.5172 35.2841C58.046 38.1079 52.2054 37.693 48.8193 38.1299C47.0934 38.3525 45.2514 38.3509 43.722 37.521C41.1085 36.1027 39.5306 32.6849 39.4384 29.8147C39.1743 21.5964 48.9031 18.6534 55.2402 21.808C56.1403 22.2561 56.9875 22.8103 57.754 23.4531Z" fill="#FFEAE6"/>
<path d="M41.6851 34.2371C42.2329 35.0695 43.0064 35.7699 44.0257 36.2492C46.2367 37.2889 49.0028 37.1731 51.3378 36.6606C52.3321 36.4423 53.2765 36.0374 54.2798 35.8725C55.8668 35.606 57.6508 35.9171 58.9739 35.0094C60.0972 34.2328 60.5347 32.7866 60.5991 31.4333C60.7271 28.8531 59.7399 26.2375 57.9387 24.368C55.5727 21.9106 52.2022 21.0656 49.0324 21.61C49.4625 23.4842 49.77 25.2264 50.2002 27.1007C49.1384 25.2372 48.1917 23.8353 47.0001 22.1587C45.1209 22.8685 43.4183 24.095 42.1899 25.7856C40.4134 28.2283 40.0797 31.7981 41.6851 34.2371Z" fill="#5A314E"/>
<path d="M30.1983 39.5434C30.1445 39.5434 30.0899 39.5317 30.0382 39.5067C29.8545 39.4182 29.7773 39.1972 29.8657 39.0132C30.6253 37.4373 32.3102 36.3632 34.0587 36.3406C35.8049 36.2982 37.5205 37.3473 38.3204 38.9026C38.4137 39.0842 38.3422 39.3071 38.161 39.4004C37.9785 39.4949 37.7559 39.4222 37.663 39.2408C36.9884 37.9291 35.5386 37.0671 34.0685 37.0797C32.5935 37.099 31.172 38.0049 30.532 39.334C30.4682 39.4664 30.336 39.5434 30.1983 39.5434Z" fill="#5A314E"/>
<path d="M11.4921 21.7243C11.2925 21.7243 11.128 21.5654 11.1227 21.3646C11.1169 21.1604 11.2781 20.9904 11.4821 20.9849C13.7039 20.9246 15.9041 20.3196 17.8445 19.2355C18.0232 19.1352 18.248 19.1999 18.3478 19.3779C18.4473 19.5562 18.3835 19.7814 18.2053 19.881C16.161 21.023 13.843 21.6604 11.502 21.724C11.4988 21.7242 11.4955 21.7243 11.4921 21.7243Z" fill="#5A314E"/>
<path d="M53.9864 20.3092C51.679 20.3092 49.3804 19.5941 47.4827 18.2808C47.3146 18.1645 47.2728 17.9342 47.389 17.7664C47.505 17.5985 47.7346 17.5558 47.9035 17.6727C49.7539 18.9532 52.0139 19.6289 54.2609 19.5662C54.4787 19.5682 54.6353 19.7219 54.6406 19.9259C54.6459 20.1302 54.4849 20.3001 54.2806 20.3054C54.1824 20.308 54.0845 20.3092 53.9864 20.3092Z" fill="#5A314E"/>
</svg>
