<svg width="71" height="70" viewBox="0 0 71 70" fill="none" xmlns="http://www.w3.org/2000/svg">
<g clip-path="url(#clip0)">
<path d="M15.9243 39.4146C16.8669 43.6948 17.4773 48.4238 17.7881 51.8256C17.9821 53.9592 18.06 55.5708 18.0289 56.2229C18.0189 56.4282 17.9894 56.4625 17.782 56.4915C11.5687 57.3205 4.9157 57.0051 2.67064 51.1231C1.70001 48.5804 2.30211 44.825 4.72916 42.4105C5.06838 42.068 5.44898 41.7542 5.86281 41.4733C8.65761 39.5866 12.0686 39.36 15.376 39.1293C15.7641 39.1012 15.8483 39.0643 15.9243 39.4146Z" fill="#D9F7FA"/>
<path d="M70.7507 23.7145C70.3891 28.1541 65.2875 33.3794 61.7089 36.0236C58.2454 38.5832 57.0075 38.4193 54.4557 36.2727C54.3005 36.1426 54.1292 35.9944 53.9418 35.8338C52.0534 34.1955 48.6794 31.0416 47.8624 29.1707C47.6039 28.5786 47.6912 27.9331 47.8911 27.3158C48.7775 24.5798 54.764 17.592 59.0102 15.6647C59.2524 15.5534 59.4974 15.4532 59.7473 15.3635C60.5011 15.0925 61.2905 14.9191 62.124 14.8876C63.8568 14.8188 65.838 15.499 67.1258 16.3304C69.173 17.6526 69.7267 19.0989 69.9162 19.3398C69.9322 19.358 70.9352 21.4461 70.7507 23.7145Z" fill="#D9F7FA"/>
<path d="M53.3171 44.3341C49.919 45.7861 47.4557 43.6283 47.2922 44.3707C47.2356 44.6284 47.4435 44.6653 47.9446 44.9043C48.8148 45.3179 52.8178 46.9589 51.1674 48.3682C50.5777 48.8745 49.5484 48.927 48.7816 48.8358C45.7134 48.4688 44.7114 47.3326 44.5137 47.9109C44.4289 48.1515 44.6912 48.2286 44.9489 48.3716C45.5232 48.6854 46.6136 49.2212 47.4552 49.8384C48.2918 50.4505 48.8787 51.1418 48.4732 51.7696C47.9439 52.5876 46.7419 52.6454 45.7759 52.5412C44.1107 52.3596 43.1586 51.4211 42.9661 51.8647C42.8617 52.1018 43.0631 52.1899 43.2012 52.262C44.6956 53.0572 47.1417 54.1587 46.1565 55.4275C44.9984 56.9223 41.1272 56.4788 39.2656 56.1334C34.9659 55.3353 30.1189 54.043 26.2893 52.2312C25.8584 52.0278 26.6637 50.841 25.7231 43.7048C25.3947 41.2154 24.9655 41.2372 25.2579 40.9141C25.3096 40.8567 25.3613 40.7994 25.4142 40.744C27.3636 38.61 29.3009 37.0708 32.117 36.19C32.1605 36.1746 32.2089 36.1748 32.2542 36.1738C32.3363 36.1757 32.3145 36.2698 32.278 36.343C31.1596 38.6725 32.017 40.1435 30.7573 42.885C30.328 43.8185 30.3064 44.6466 31.0788 45.403C31.7651 46.0731 32.7517 46.297 33.8286 45.8764C35.4113 45.2561 37.049 42.1741 37.7546 40.6025C38.4133 39.1368 38.2347 38.6062 38.4456 38.7736C39.288 39.4464 39.9205 40.0833 41.3545 40.7343C42.4052 41.2076 43.3678 41.4504 44.3335 41.5217C46.6834 41.6959 49.7697 40.5581 51.8474 41.1626C52.7224 41.4187 53.4305 41.6443 53.9927 42.4616C54.5105 43.2111 54.013 44.0372 53.3171 44.3341Z" fill="#FFE3B2"/>
<path d="M56.5372 38.4297C55.7932 39.7577 55.2004 40.6081 54.0426 41.4832C53.9379 41.5629 53.8362 41.5626 53.723 41.4788C52.7903 40.7977 51.1271 40.3181 49.4473 40.5321C45.6632 41.0127 43.6165 41.7474 40.2163 39.5634C39.1936 38.9069 38.5575 38.0786 38.2051 38.0692C38.0634 38.0648 37.9689 38.1932 37.9131 38.5115C37.5728 40.4547 36.0308 43.0496 35.0885 44.2041C34.5294 44.889 33.9067 45.4817 33.0455 45.5999C31.7832 45.7725 30.6718 44.7437 30.9803 43.613C31.156 42.9665 31.8866 41.9826 32.0253 39.6924C32.1109 38.2933 32.2769 37.2857 32.9265 36.0707C35.5566 31.1628 40.9229 30.8493 47.2557 29.5401C47.8084 29.4247 47.2132 29.7251 49.2274 31.9215C50.3998 33.1983 53.0905 35.9525 55.1259 37.3744C55.6044 37.7055 56.0442 37.9657 56.422 38.1156C56.623 38.1963 56.6413 38.241 56.5372 38.4297Z" fill="#FFE3B2"/>
<path d="M60.5758 18.1606C63.2536 22.4902 63.5369 28.6455 61.5948 33.1993C61.4572 33.5213 60.9719 33.3648 61.0457 33.0237C62.1454 27.9226 61.9513 23.3519 60.0896 18.4003C59.9729 18.0929 60.4029 17.8824 60.5758 18.1606Z" fill="#D9F7FA"/>
<path d="M66.5557 20.3047C67.9327 22.8122 67.799 26.5149 66.1875 28.934C66.006 29.2066 65.5801 29.0164 65.6616 28.6993C66.4437 25.6543 66.5924 23.841 66.0441 20.4837L66.0438 20.4812C66.0193 20.3315 66.1209 20.1903 66.2708 20.1657C66.3885 20.1466 66.5012 20.2058 66.5557 20.3047Z" fill="#D9F7FA"/>
<g opacity="0.5">
<path opacity="0.5" d="M56.5372 38.4296C55.7932 39.7576 55.2003 40.608 54.0425 41.483C53.9378 41.5628 53.8361 41.5625 53.7229 41.4786C52.7902 40.7975 51.1271 40.318 49.4473 40.532C45.6632 41.0126 43.6164 41.7473 40.2162 39.5632C39.1936 38.9067 38.5575 38.0784 38.2051 38.069C38.417 37.5909 38.8348 37.2266 39.3472 37.0311C40.0777 36.7484 40.8368 36.9421 41.5443 37.1986C43.6733 37.9718 44.3983 39.2155 48.6414 37.983C50.0647 37.5696 51.4904 37.0586 52.9739 37.0537C53.745 37.0515 54.4741 37.1655 55.1262 37.3743C55.6046 37.7054 56.0445 37.9656 56.4223 38.1154C56.6229 38.1962 56.6412 38.2408 56.5372 38.4296Z" fill="#FACC7C"/>
</g>
<path opacity="0.5" d="M36.9118 34.55C35.3102 35.7753 34.2518 37.212 34.1356 39.7121L34.1353 39.7165C34.1228 39.9856 33.736 40.0198 33.6765 39.7569C33.3496 38.3097 33.727 36.6372 34.7165 35.3764C35.6624 34.2046 37.0557 33.4455 38.4597 32.9351C38.5734 32.8938 38.6989 32.9525 38.7402 33.066C38.8485 33.3635 38.4277 33.4058 36.9118 34.55Z" fill="white"/>
<g opacity="0.25">
<path opacity="0.25" d="M48.4732 51.7697C47.9439 52.5876 46.7419 52.6455 45.7759 52.5412C44.1107 52.3597 43.1586 51.4212 42.9661 51.8648C42.8617 52.1019 43.0631 52.19 43.2012 52.2621C44.6956 53.0573 47.1417 54.1588 46.1565 55.4276C44.9984 56.9224 41.1272 56.4789 39.2656 56.1335C34.9659 55.3354 30.1189 54.0431 26.2893 52.2313C25.8584 52.0279 26.6637 50.8411 25.7231 43.7049C25.3947 41.2155 24.9655 41.2373 25.2579 40.9142C25.3096 40.8568 25.3613 40.7995 25.4142 40.7441C27.088 44.1116 29.1763 47.5074 32.5984 48.9774C37.1859 50.948 42.6684 48.8147 47.4552 49.8383C48.2919 50.4506 48.8787 51.142 48.4732 51.7697Z" fill="#FACC7C"/>
<path opacity="0.25" d="M70.7501 23.7145C70.3885 28.1541 65.2869 33.3794 61.7083 36.0236C58.2448 38.5832 57.0069 38.4193 54.4551 36.2727C54.2999 36.1426 54.1286 35.9944 53.9412 35.8338C53.8867 35.189 53.9474 34.5459 54.1626 33.9187C54.7825 32.1056 56.5227 30.9411 58.2174 30.0521C59.9132 29.16 61.75 28.3463 62.9048 26.8175C64.4343 24.7895 64.375 21.8739 63.273 19.586C62.4697 17.9171 61.1959 16.5379 59.7465 15.3635C60.5004 15.0925 61.2898 14.9191 62.1232 14.8876C63.856 14.8188 65.8372 15.499 67.125 16.3304C69.1722 17.6526 69.7259 19.0989 69.9154 19.3398C69.9315 19.358 70.9346 21.4461 70.7501 23.7145Z" fill="#11CBE0"/>
<path opacity="0.25" d="M17.7881 51.8257C17.9821 53.9593 18.06 55.5709 18.0289 56.223C18.0189 56.4283 17.9894 56.4627 17.782 56.4917C11.5687 57.3206 4.9157 57.0052 2.67064 51.1233C1.70001 48.5805 2.30211 44.8251 4.72916 42.4106C4.9552 45.0548 6.06095 47.6254 7.85863 49.5833C9.06314 50.8958 10.6075 51.9596 12.3585 52.2963C14.0263 52.6186 15.7425 52.2605 17.4069 51.9063C17.534 51.8793 17.6612 51.8525 17.7881 51.8257Z" fill="#11CBE0"/>
</g>
<g opacity="0.18">
<path opacity="0.18" d="M25.7271 50.6648C25.7232 50.9535 25.7135 51.2349 25.7009 51.505C25.5627 54.2494 23.8959 55.6079 18.628 56.3628C18.5124 56.3765 18.507 56.2623 18.5135 56.1195C18.5297 55.6142 18.4612 54.0007 18.251 51.7247C19.6801 51.4205 21.108 51.1142 22.5389 50.809C23.57 50.5878 24.7441 50.4111 25.7271 50.6648Z" fill="#000E3F"/>
</g>
<path d="M69.4834 17.8167C69.0429 17.2696 68.5376 16.7785 67.9812 16.3521C66.1518 14.9578 63.8025 14.3162 61.5185 14.525C58.6864 14.7836 56.3553 16.4571 54.3437 18.3564C52.2057 20.3759 48.2917 24.5039 47.3949 27.3311C47.126 28.179 47.2546 28.6518 47.2682 28.8968C47.2803 29.1222 47.2455 29.0698 43.9923 29.7019C40.3498 30.4079 37.7218 30.9006 35.7067 32.3443C32.7846 34.4408 33.0842 35.552 32.2877 35.6729C31.2972 35.824 29.699 36.6322 29.0604 37.0293C26.5542 38.5847 25.4306 40.0557 24.9656 40.4979C24.7092 40.7408 24.8319 39.5933 22.3066 38.9708C21.5974 38.7967 19.7647 38.5291 17.6154 38.5655C13.908 38.6264 9.28602 38.9299 6.03883 40.7401C3.83139 41.9696 2.60447 44.5382 2.59193 44.5922C2.46339 45.242 1.36892 47.1793 1.90064 50.1064C2.13702 51.4074 2.63958 52.4051 3.40768 53.438C4.68477 55.1532 6.326 56.2552 8.91106 56.8316C10.7926 57.2515 12.6981 57.3503 14.6174 57.2622C16.6941 57.1686 18.7747 56.9107 20.7944 56.4099C22.8035 55.9138 25.2759 55.2684 25.9388 53.0235C26.1264 52.3968 25.7394 52.6272 28.2232 53.5764C32.0433 55.0395 41.316 57.8886 45.2033 56.6177C46.3078 56.2555 47.1872 55.3234 46.7329 54.2393C46.433 53.527 45.6276 53.2077 45.6721 53.0596C45.6879 53.0014 45.7442 53.0078 45.7883 53.015C48.8226 53.4182 50.1643 51.2451 48.0184 49.6644C47.2647 49.1099 47.298 49.1425 47.3213 49.106C47.3864 49.0068 49.14 49.6191 50.5532 49.2002C51.7085 48.8598 52.4883 47.878 51.7986 46.882C51.0353 45.7783 49.78 45.3937 49.8246 45.2509C49.8479 45.1815 52.5731 45.7428 54.0447 44.4178C54.7001 43.8299 54.8081 43.0501 54.5496 42.5496C54.2393 41.9439 54.2079 41.9636 54.3609 41.846C55.5549 40.9133 56.4196 39.7444 57.017 38.5209C57.2871 37.9721 57.5711 39.0829 60.3462 37.5002C64.4292 35.1722 71.0074 28.556 71.2405 23.547C71.3338 21.5326 70.7384 19.377 69.4834 17.8167ZM18.0292 56.2229C18.0192 56.4282 17.9897 56.4624 17.7823 56.4916C11.569 57.3205 4.91599 57.0051 2.67093 51.1232C1.56283 48.2235 2.50399 43.7423 5.86295 41.4731C8.65774 39.5864 12.0687 39.3599 15.3761 39.1292C15.7644 39.1014 15.8484 39.0644 15.9246 39.4146C17.4583 46.3757 18.1117 54.5255 18.0292 56.2229ZM25.7011 51.5049C25.5629 54.2493 23.8961 55.6078 18.6282 56.3627C18.5126 56.3763 18.5072 56.2622 18.5137 56.1194C18.5537 54.9094 18.0979 47.3623 16.4483 39.5566C16.3604 39.1484 16.3198 39.0837 16.5327 39.0776C18.481 39.0241 22.0375 38.9555 23.7345 40.0465C24.6194 40.6155 24.9906 42.1221 25.1541 43.1601C25.5344 45.5539 25.8276 48.9994 25.7011 51.5049ZM53.3171 44.3339C49.9189 45.7859 47.4557 43.6282 47.2922 44.3706C47.2356 44.6283 47.4434 44.6651 47.9446 44.9042C48.8147 45.3177 52.8178 46.9588 51.1673 48.368C50.5776 48.8743 49.5484 48.9269 48.7815 48.8356C45.7133 48.4687 44.7115 47.3325 44.5137 47.9108C44.4289 48.1514 44.6911 48.2285 44.9488 48.3715C46.0936 48.996 49.2886 50.507 48.4733 51.7695C47.944 52.5874 46.742 52.6453 45.776 52.541C44.1108 52.3595 43.1587 51.421 42.9662 51.8646C42.8618 52.1016 43.0632 52.1897 43.2013 52.2618C44.6957 53.057 47.1418 54.1586 46.1566 55.4273C44.9985 56.9222 41.1273 56.4785 39.2657 56.1332C34.966 55.3352 30.119 54.0429 26.2894 52.2311C25.8585 52.0276 26.6638 50.8408 25.7232 43.7047C25.3948 41.2153 24.9656 41.2371 25.258 40.914C27.2599 38.6918 29.2255 37.0937 32.117 36.1898C32.1604 36.1745 32.2088 36.1746 32.2542 36.1737C32.3363 36.1756 32.3145 36.2696 32.278 36.3428C31.1595 38.6724 32.017 40.1434 30.7573 42.8849C30.3281 43.8183 30.3063 44.6465 31.0788 45.4028C31.7651 46.073 32.7517 46.2968 33.8286 45.8764C35.4112 45.2561 37.049 42.1741 37.7546 40.6025C38.4132 39.1368 38.2347 38.6062 38.4455 38.7736C39.2879 39.4464 39.9204 40.0833 41.3544 40.7342C42.4052 41.2074 43.3678 41.4502 44.3334 41.5216C46.6835 41.6957 49.7697 40.558 51.8473 41.1624C52.7223 41.4186 53.4304 41.6441 53.9929 42.4615C54.5105 43.2109 54.0129 44.037 53.3171 44.3339ZM56.5373 38.4296C55.7933 39.7576 55.2005 40.608 54.0427 41.483C53.938 41.5628 53.8363 41.5625 53.7231 41.4786C52.7904 40.7975 51.1272 40.318 49.4474 40.532C45.6633 41.0126 43.6166 41.7473 40.2164 39.5632C38.7868 38.6462 38.1113 37.3893 37.9132 38.5114C37.5729 40.4545 36.0309 43.0495 35.0886 44.204C34.5295 44.8888 33.9068 45.4815 33.0456 45.5997C31.7833 45.7723 30.6719 44.7435 30.9804 43.6128C31.1561 42.9664 31.8867 41.9824 32.0254 39.6922C32.111 38.2932 32.277 37.2856 32.9266 36.0705C35.5567 31.1627 40.923 30.8492 47.2558 29.54C47.8085 29.4246 47.2135 29.7249 49.2275 31.9215C50.6725 33.4968 54.4293 37.3186 56.4222 38.1154C56.6229 38.1961 56.6414 38.2408 56.5373 38.4296ZM70.7505 23.7144C70.389 28.1541 65.2874 33.3794 61.7087 36.0237C58.2452 38.5833 57.0073 38.4192 54.4554 36.2728C52.7471 34.8341 48.7611 31.2266 47.8621 29.1709C47.6037 28.5789 47.691 27.9334 47.8908 27.3161C48.7773 24.58 54.7638 17.5922 59.01 15.6649C59.9847 15.2214 61.0136 14.9303 62.1238 14.8878C63.8565 14.819 65.8378 15.4994 67.1255 16.3308C69.1727 17.653 69.7264 19.0992 69.9159 19.3402C69.9319 19.3579 70.935 21.446 70.7505 23.7144Z" fill="#000E3F"/>
<path d="M31.1933 54.3932C31.1365 55.0981 30.952 55.4618 30.2364 55.6359C28.643 56.0278 27.8705 54.1869 28.4996 52.6742C28.9445 51.6064 30.3843 51.3631 31.329 51.876C32.0355 52.2596 31.3218 52.8265 31.1933 54.3932Z" fill="#FACC7C"/>
<path d="M34.9332 53.1178C34.5685 54.4096 34.7407 54.8618 34.7138 55.5171C34.6805 56.3151 33.632 57.0498 32.8873 56.9356C32.3148 56.8468 31.8748 56.4139 31.744 55.8557C31.062 52.9766 32.9932 50.3075 34.3836 51.4107C34.842 51.7741 35.0914 52.5633 34.9332 53.1178Z" fill="#FACC7C"/>
<path d="M41.316 53.2254C41.625 53.8497 41.6563 54.6071 41.4986 55.2755C41.0868 57.0288 39.7668 57.424 38.9136 56.5607C38.5342 56.1754 38.7205 55.9074 38.8462 55.4572C39.0697 54.6637 39.0421 53.5313 39.4149 52.985C39.941 52.2092 40.9295 52.4423 41.316 53.2254Z" fill="#FACC7C"/>
<path d="M37.658 56.7376C36.7444 58.1099 34.8227 57.2973 35.1787 54.3031C35.2743 53.4809 35.4714 52.5449 36.0435 51.9099C37.5164 50.2795 40.1333 53.0227 37.658 56.7376Z" fill="#FACC7C"/>
<path d="M39.4935 52.2569C39.1798 52.4325 39.0679 52.7289 38.9823 52.5254C38.173 50.5519 36.2455 50.6337 35.5053 51.7159C35.3158 51.9931 35.3037 51.9837 35.1604 51.6954C34.5598 50.4998 33.1388 50.3788 32.2924 51.3816C32.2122 51.4753 31.9793 51.8007 31.8264 51.6593C31.2318 51.1087 30.314 51.0149 29.5627 51.2314C27.0703 51.9473 27.3626 55.8657 29.5622 56.1412C30.0943 56.2082 30.6283 56.0482 31.0948 55.7982C31.2677 55.7066 31.245 55.8798 31.2983 56.0632C31.6168 57.1502 32.8577 57.7521 33.8979 57.2424C34.3544 57.0198 34.7626 56.4569 34.8962 56.5033C34.8962 56.5033 35.0945 56.8975 35.1495 57.0038C35.6172 57.9062 37.1122 58.2871 38.0664 56.9847C38.2247 56.7704 38.2694 56.536 38.5102 56.8265C39.0369 57.4599 40.0697 57.7333 40.862 57.1826C43.1239 55.6102 41.9003 50.9007 39.4935 52.2569ZM30.2363 55.6359C28.6429 56.0278 27.8704 54.1869 28.4994 52.6742C28.9443 51.6064 30.3841 51.3631 31.3289 51.876C32.0352 52.2597 31.3217 52.8267 31.193 54.3933C31.1362 55.0981 30.9517 55.4618 30.2363 55.6359ZM32.8875 56.9356C31.9172 56.7867 31.6709 55.777 31.6325 54.9417C31.5417 52.9651 32.975 50.2833 34.3839 51.4107C34.8421 51.7741 35.0915 52.5635 34.9333 53.118C34.5685 54.4098 34.7408 54.862 34.7139 55.5173C34.6806 56.3151 33.6321 57.05 32.8875 56.9356ZM37.6579 56.7376C36.7443 58.1098 34.8226 57.2972 35.1786 54.303C35.2743 53.4809 35.4713 52.5449 36.0435 51.9098C37.5163 50.2794 40.1332 53.0227 37.6579 56.7376ZM41.4982 55.2755C41.0864 57.0289 39.7664 57.424 38.9132 56.5608C38.5338 56.1755 38.7201 55.9074 38.8458 55.4572C39.0693 54.6637 39.0417 53.5313 39.4145 52.985C39.9407 52.2091 40.9292 52.4423 41.3158 53.2255C41.6247 53.8495 41.6561 54.607 41.4982 55.2755Z" fill="#000E3F"/>
<path d="M57.7772 10.7806C57.9227 10.6288 58.0194 10.5173 58.1269 10.4175C58.4843 10.086 58.9005 10.0341 59.3451 10.2534C59.702 10.4295 59.9561 10.717 60.1955 11.022C60.2971 11.1516 60.39 11.2906 60.5067 11.405C60.8365 11.7286 61.2698 11.6878 61.5441 11.3135C61.676 11.1337 61.7486 10.9243 61.8197 10.7153C61.9117 10.4449 61.9807 10.4399 62.1127 10.4511C62.2703 10.4647 62.3688 10.6145 62.3421 10.8313C62.2816 11.3176 62.1263 11.7728 61.692 12.0495C61.0486 12.4595 60.3021 12.3065 59.8386 11.6783C59.6517 11.4249 59.4572 11.1828 59.2141 10.985C58.922 10.7473 58.7688 10.7574 58.4993 11.0227C58.3687 11.1513 58.2553 11.2973 58.1283 11.4299C57.9077 11.6603 57.6491 11.8365 57.3308 11.8905C56.8497 11.972 56.4569 11.8035 56.1827 11.4036C55.994 11.1282 55.7821 10.8778 55.5324 10.6589C55.2417 10.4037 55.0987 10.4112 54.8518 10.7217C54.6926 10.922 54.5566 11.142 54.4223 11.3607C54.3397 11.4953 54.2307 11.5787 54.0811 11.6165C53.9209 11.657 53.78 11.5579 53.7712 11.3978C53.7641 11.2671 53.778 11.1364 53.8411 11.0227C54.0192 10.7021 54.1912 10.3742 54.4569 10.1146C54.9021 9.67934 55.3992 9.66001 55.8891 10.0396C56.1528 10.2439 56.3694 10.4912 56.5749 10.7502C56.609 10.7932 56.6319 10.8447 56.6643 10.8891C56.9976 11.3447 57.2339 11.3573 57.6366 10.9401C57.7005 10.8738 57.7583 10.802 57.7772 10.7806Z" fill="white"/>
<path d="M10.5566 61.9473C10.7065 61.8 10.8065 61.6913 10.917 61.5948C11.2842 61.2742 11.7018 61.2349 12.1395 61.4672C12.491 61.654 12.7363 61.9489 12.9666 62.261C13.0644 62.3935 13.153 62.5352 13.2662 62.6532C13.5861 62.9866 14.0205 62.9588 14.3058 62.593C14.4429 62.4171 14.5218 62.2101 14.5991 62.0032C14.6991 61.7357 14.7682 61.7327 14.8998 61.7479C15.057 61.7662 15.151 61.9188 15.1177 62.1346C15.0429 62.619 14.8739 63.0692 14.4315 63.3328C13.7761 63.7234 13.0346 63.5481 12.5901 62.9064C12.4109 62.6475 12.2237 62.3997 11.9866 62.1948C11.7018 61.9485 11.5485 61.9538 11.2711 62.2109C11.1367 62.3356 11.019 62.4781 10.8881 62.607C10.6607 62.8306 10.397 62.9992 10.0771 63.0435C9.59387 63.1106 9.20641 62.9303 8.94425 62.5224C8.76383 62.2414 8.55951 61.9847 8.31653 61.7585C8.0336 61.4947 7.89041 61.4979 7.6344 61.8009C7.46917 61.9964 7.32656 62.2121 7.18595 62.4267C7.09933 62.5587 6.98793 62.6388 6.8373 62.6721C6.67607 62.7078 6.53805 62.6045 6.53404 62.4442C6.53089 62.3133 6.54864 62.183 6.61508 62.0713C6.80279 61.756 6.98449 61.4336 7.25783 61.182C7.71587 60.7603 8.21329 60.7558 8.69167 61.1498C8.94911 61.3619 9.15831 61.6156 9.3559 61.8806C9.38869 61.9246 9.41002 61.9768 9.44109 62.0222C9.76054 62.4877 9.9965 62.5073 10.4114 62.1024C10.477 62.0383 10.537 61.9682 10.5566 61.9473Z" fill="white"/>
<path d="M71.0949 36.2672C70.9804 36.0909 70.8939 35.9714 70.8213 35.8438C70.5802 35.4201 70.6247 35.003 70.9397 34.6203C71.1926 34.3129 71.5305 34.1313 71.8821 33.9678C72.0315 33.8984 72.1881 33.8397 72.3263 33.7522C72.7167 33.505 72.7757 33.0738 72.4742 32.7214C72.3292 32.552 72.142 32.4333 71.9547 32.3165C71.7125 32.1653 71.7233 32.097 71.7644 31.9711C71.8137 31.8206 71.9821 31.7589 72.1868 31.8347C72.6466 32.0045 73.0542 32.2598 73.2243 32.7457C73.4765 33.4657 73.1572 34.1575 72.4398 34.4654C72.1505 34.5895 71.8704 34.7235 71.6223 34.9151C71.3243 35.1452 71.2989 35.2965 71.4957 35.6194C71.5912 35.7759 71.7075 35.9197 71.8075 36.0736C71.9815 36.3409 72.094 36.633 72.0739 36.9552C72.0434 37.4422 71.7895 37.7859 71.3376 37.9618C71.0263 38.0826 70.7342 38.2318 70.4641 38.4248C70.1493 38.6496 70.1238 38.7905 70.3698 39.1017C70.5286 39.3024 70.7116 39.4851 70.8939 39.6658C71.006 39.7769 71.0623 39.902 71.065 40.0564C71.0679 40.2216 70.9393 40.3363 70.7812 40.3083C70.6522 40.2854 70.5282 40.242 70.432 40.1546C70.1605 39.9079 69.8806 39.6657 69.6884 39.3478C69.3664 38.815 69.4611 38.3266 69.9423 37.9363C70.2013 37.7262 70.4917 37.5717 70.7908 37.4308C70.8403 37.4075 70.8959 37.3971 70.9464 37.3756C71.4662 37.1552 71.5323 36.928 71.2182 36.4406C71.1681 36.3631 71.1115 36.2905 71.0949 36.2672Z" fill="white"/>
<path d="M56.4278 53.206C56.4753 53.4107 56.5159 53.5526 56.5405 53.6974C56.6224 54.1779 56.4383 54.5548 56.0116 54.8069C55.6689 55.0095 55.2893 55.0648 54.9029 55.0985C54.7388 55.1126 54.5717 55.1145 54.4119 55.1496C53.9606 55.2485 53.7579 55.6337 53.9211 56.0679C53.9995 56.2767 54.135 56.4521 54.2712 56.6259C54.4471 56.8507 54.4138 56.9113 54.332 57.0155C54.2344 57.1402 54.0551 57.1407 53.8884 56.9996C53.5143 56.6831 53.2183 56.3039 53.2242 55.7892C53.2329 55.0263 53.7693 54.485 54.5487 54.4407C54.8631 54.4228 55.1721 54.3924 55.4706 54.2971C55.8293 54.1825 55.9047 54.0489 55.83 53.6782C55.7938 53.4985 55.7335 53.3237 55.692 53.1449C55.6198 52.8341 55.6137 52.5211 55.7427 52.2253C55.9377 51.778 56.2935 51.5415 56.7783 51.5306C57.1121 51.5232 57.4377 51.4828 57.7574 51.3936C58.13 51.2898 58.202 51.1661 58.0771 50.7896C57.9965 50.5466 57.8868 50.3125 57.7772 50.0804C57.7097 49.9377 57.6996 49.8009 57.7497 49.655C57.8034 49.4988 57.9634 49.435 58.1023 49.5152C58.2157 49.5807 58.3175 49.6638 58.3781 49.7789C58.5491 50.1035 58.7295 50.4267 58.8015 50.7911C58.9223 51.4017 58.6666 51.8284 58.081 52.031C57.7657 52.14 57.4401 52.1861 57.1109 52.2165C57.0564 52.2215 57.0007 52.2124 56.9457 52.2153C56.382 52.2451 56.2421 52.436 56.3711 53.0014C56.3917 53.0907 56.4201 53.1784 56.4278 53.206Z" fill="white"/>
<path d="M26.5314 19.0187C26.5276 18.8085 26.5178 18.6613 26.5238 18.5147C26.544 18.0277 26.8027 17.6975 27.2726 17.54C27.6501 17.4134 28.0328 17.4385 28.4177 17.4863C28.581 17.5067 28.745 17.5397 28.9085 17.5389C29.3705 17.5362 29.6492 17.202 29.5802 16.7432C29.547 16.5227 29.4512 16.323 29.3542 16.1245C29.2289 15.8679 29.2745 15.8157 29.376 15.7308C29.4976 15.6292 29.673 15.6662 29.8065 15.839C30.1064 16.2266 30.3167 16.6592 30.2036 17.1614C30.0358 17.9057 29.3983 18.3231 28.6269 18.2038C28.3156 18.1557 28.0072 18.1209 27.6952 18.1518C27.3204 18.1889 27.2188 18.3039 27.2145 18.6821C27.2123 18.8653 27.2348 19.0489 27.2381 19.2325C27.2438 19.5513 27.1846 19.8587 26.9967 20.1212C26.7128 20.518 26.3153 20.675 25.8389 20.5844C25.5109 20.522 25.184 20.4936 24.8527 20.5141C24.4666 20.5379 24.3704 20.6438 24.414 21.0381C24.4422 21.2926 24.5006 21.5444 24.5594 21.7941C24.5955 21.9479 24.577 22.0838 24.4974 22.2161C24.4124 22.3577 24.2424 22.3868 24.1234 22.2793C24.0262 22.1915 23.9439 22.089 23.9087 21.9638C23.8091 21.6107 23.7002 21.2571 23.7058 20.8855C23.7151 20.2629 24.0541 19.899 24.6693 19.8231C25.0003 19.7823 25.3282 19.8052 25.6567 19.8441C25.7111 19.8506 25.7636 19.8711 25.8179 19.8798C26.3754 19.9684 26.5521 19.8108 26.544 19.2309C26.5427 19.139 26.5332 19.0473 26.5314 19.0187Z" fill="white"/>
<path d="M25.5317 53.4088C26.0263 52.3988 25.8271 42.4008 24.2437 40.4319C22.977 38.8569 18.2252 38.7889 16.1705 38.9965C16.8277 40.4074 18.1828 51.1718 18.6321 56.4973C22.5605 55.9987 25.0371 54.4189 25.5317 53.4088Z" fill="#D9F7FA"/>
</g>
<defs>
<clipPath id="clip0">
<rect width="73.31" height="73.31" fill="white"/>
</clipPath>
</defs>
</svg>
