<svg width="77" height="76" viewBox="0 0 77 76" fill="none" xmlns="http://www.w3.org/2000/svg">
<circle r="43" transform="matrix(1 0 0 -1 43 43)" fill="white" fill-opacity="0.2"/>
<g clip-path="url(#clip0)">
<path d="M40.4223 59.0758C38.522 62.421 30.0071 64.8031 26.8446 62.8933C26.7632 62.8442 26.8064 63.0879 26.2944 61.3532C25.7427 59.4881 24.5477 55.3299 21.8631 46.0483C20.1668 40.1868 18.4773 34.3233 16.7761 28.4631C16.7061 28.2217 16.6696 28.0141 16.6573 27.8214C16.6216 27.2973 16.7681 26.8749 16.9204 26.1218C17.7831 21.8686 17.8255 21.6199 19.2045 14.9665C19.5151 13.4676 19.5699 12.6973 19.9619 12.9963C20.2389 13.205 19.8391 12.8229 25.5013 18.7014C29.4434 22.7919 30.1602 23.4639 30.3682 23.8489C30.4278 23.9607 30.4443 24.0486 30.4846 24.1878C30.5842 24.537 30.6844 24.8825 30.7819 25.225C40.8388 60.1856 40.7931 58.4174 40.4223 59.0758Z" fill="#6280FF"/>
<path d="M33.7143 46.4151C34.1241 47.4621 34.4905 48.5212 34.8411 49.5855C35.1948 50.6488 35.521 51.7205 35.839 52.7949C36.1482 53.872 36.4485 54.9521 36.7147 56.0421C36.9837 57.1313 37.2296 58.2272 37.4171 59.3384C37.4395 59.47 37.3251 59.6047 37.1617 59.6394C37.0132 59.6709 36.8752 59.6088 36.8348 59.4982C36.4478 58.4442 36.0991 57.3804 35.7616 56.3134C35.421 55.2471 35.1021 54.1745 34.7864 53.1006C34.4796 52.0242 34.1757 50.9463 33.9003 49.8598C33.6219 48.7742 33.3613 47.683 33.1523 46.5772C33.1282 46.4503 33.2367 46.3186 33.3945 46.2831C33.538 46.2507 33.6729 46.309 33.7143 46.4151Z" fill="#322BBF"/>
<path d="M26.4844 48.5114C26.8969 49.5579 27.2617 50.6182 27.6101 51.6832C27.9611 52.7474 28.2842 53.8199 28.6016 54.8939C28.91 55.9705 29.2126 57.049 29.4868 58.1354C29.7641 59.221 30.0244 60.3117 30.2369 61.4162C30.262 61.5472 30.1504 61.6834 29.9875 61.7203C29.8391 61.7541 29.6998 61.694 29.6569 61.5843C29.2454 60.5375 28.8815 59.4769 28.5352 58.4113C28.1858 57.3466 27.8642 56.2738 27.5489 55.199C27.2425 54.1217 26.9415 53.043 26.6689 51.9559C26.3931 50.8697 26.1343 49.7788 25.9228 48.674C25.8987 48.5471 26.0067 48.4153 26.1645 48.3795C26.3078 48.3473 26.4427 48.4054 26.4844 48.5114Z" fill="#322BBF"/>
<path d="M21.2006 30.077C21.5442 30.8789 21.8399 31.6947 22.1191 32.5153C22.4012 33.335 22.6552 34.1631 22.9038 34.9927C23.1432 35.8249 23.3767 36.6589 23.582 37.5011C23.7905 38.3423 23.9818 39.1887 24.1251 40.0489C24.147 40.1808 24.0322 40.3157 23.8687 40.3502C23.7241 40.3807 23.59 40.3225 23.5454 40.2179C23.2029 39.4158 22.9083 38.5995 22.6307 37.7783C22.3502 36.9582 22.0978 36.1297 21.8514 35.2994C21.6141 34.4665 21.3821 33.6321 21.1783 32.7895C20.9716 31.9477 20.7816 31.1011 20.6393 30.2406C20.6181 30.1128 20.7294 29.9822 20.8879 29.9489C21.0278 29.9197 21.1575 29.9757 21.2006 30.077Z" fill="#322BBF"/>
<path d="M28.3433 28.0072C28.6814 28.8039 28.9719 29.6142 29.2457 30.4291C29.5226 31.2432 29.771 32.0654 30.0141 32.8891C30.2482 33.7154 30.4763 34.5434 30.6762 35.3796C30.8793 36.215 31.065 37.0553 31.203 37.9095C31.2248 38.0414 31.1098 38.1763 30.9461 38.2107C30.8019 38.241 30.6676 38.1823 30.623 38.0776C30.2856 37.281 29.9962 36.4703 29.7242 35.6545C29.4489 34.8397 29.2017 34.0168 28.9607 33.1921C28.7286 32.3648 28.5021 31.5359 28.3037 30.699C28.1022 29.8629 27.9176 29.022 27.7808 28.1678C27.7601 28.0399 27.8723 27.9097 28.0306 27.8769C28.1704 27.848 28.2995 27.9044 28.3425 28.0055L28.3433 28.0072Z" fill="#322BBF"/>
<g opacity="0.5">
<path opacity="0.5" d="M40.4224 59.0757C38.522 62.4209 30.0072 64.8031 26.8447 62.8933C26.7632 62.8442 26.8065 63.0879 26.2944 61.3532C26.4604 60.3452 26.809 59.4169 27.5096 58.4539C30.1399 54.8424 33.7344 54.0418 34.1289 49.4973C34.8582 41.0926 27.5756 31.4011 30.6716 25.415C30.7045 25.3527 30.7413 25.2857 30.7818 25.2249C40.8389 60.1856 40.7932 58.4174 40.4224 59.0757Z" fill="#322BBF"/>
</g>
<path d="M30.3681 23.8487C30.3309 23.8958 30.2763 23.9462 30.2097 24.011C28.9752 25.2015 27.5757 26.1491 26.0319 26.8932C23.1839 28.2682 20.3067 28.4209 17.1534 27.9465C17.0145 27.925 16.8768 27.8887 16.742 27.844C16.7279 27.839 16.7143 27.8357 16.7005 27.8324C16.6846 27.8279 16.6709 27.8245 16.6573 27.8212C16.6216 27.2972 16.7681 26.8748 16.9204 26.1216C17.3234 24.1378 17.5479 23.0256 17.8113 21.7276C17.859 21.4975 17.9067 21.26 17.9584 21.0124C18.2343 19.6635 18.5837 17.966 19.2045 14.9665C19.5151 13.4676 19.5699 12.6973 19.9619 12.9963C20.2389 13.205 19.8391 12.8229 25.5013 18.7014C25.5352 18.7371 25.5693 18.7726 25.6028 18.8065C25.7773 18.9885 25.944 19.162 26.1049 19.3281C26.1485 19.3718 26.1909 19.4178 26.2324 19.4603C29.5356 22.8777 30.1747 23.4885 30.3681 23.8487Z" fill="#FFE3F7"/>
<g opacity="0.5">
<g opacity="0.5">
<path opacity="0.5" d="M30.3683 23.8487C30.331 23.8958 30.2765 23.9462 30.2099 24.0109C28.9754 25.2015 27.5759 26.1491 26.0321 26.8932C23.184 28.2682 20.3069 28.4208 17.1536 27.9464C17.0147 27.925 16.8769 27.8886 16.7422 27.8439C16.728 27.8389 16.7144 27.8356 16.7007 27.8323C17.2693 27.1347 18.0372 26.5485 18.7203 26.2776C21.028 25.3648 24.5638 26.4808 25.6872 23.472C26.1091 22.3442 25.7615 21.058 26.0772 19.8958C26.119 19.7455 26.1711 19.5996 26.2326 19.46C29.5358 22.8776 30.1748 23.4884 30.3683 23.8487Z" fill="#FC09B2"/>
</g>
</g>
<path d="M25.6029 18.8061C24.2053 19.9549 21.01 21.2288 17.9585 21.0122C18.2344 19.6632 18.5838 17.9658 19.2046 14.9662C19.5152 13.4674 19.57 12.6971 19.9621 12.996C20.239 13.2048 19.8392 12.8226 25.5014 18.7012C25.5353 18.7367 25.5694 18.7722 25.6029 18.8061Z" fill="#6280FF"/>
<path d="M50.4837 20.9986C50.349 20.792 50.2525 20.7102 50.1998 20.7353C49.8898 20.8789 51.3026 23.4064 48.4273 25.7662C44.1759 28.2781 39.9378 24.8928 38.8238 19.5253C41.8324 19.1444 44.1567 16.5772 43.9972 13.9808C43.7395 10.5776 40.218 10.0643 38.4898 11.9405C37.0558 13.5343 37.1467 16.2329 37.4521 18.3437C35.6821 18.1563 34.0451 17.0642 33.2083 15.7766C31.6217 13.3522 31.7337 9.34447 29.0713 7.51831C27.7099 6.60079 25.6429 6.41336 23.7843 7.28177C20.0941 9.0037 21.0949 12.7594 21.417 11.4199C21.4268 11.3841 21.5719 10.6482 21.5778 10.6137C22.1225 8.30739 25.1396 6.8326 27.7725 7.79422C31.5769 9.39001 29.9529 14.9302 33.7742 18.0248C34.8757 18.9037 36.243 19.4696 37.6792 19.5576C39.7366 29.0717 48.5954 29.0536 50.4722 24.177C50.8276 23.2795 50.8119 21.5085 50.4837 20.9986ZM41.5605 12.1915C42.3134 12.4646 42.6942 13.2666 42.7519 14.0658C42.8739 16.1384 40.8361 18.0558 38.6124 18.3335C38.2114 15.589 38.8294 11.4478 41.5605 12.1915Z" fill="#6280FF"/>
<g opacity="0.5">
<g opacity="0.5">
<path opacity="0.5" d="M20.729 15.5251C20.7612 15.8712 20.7543 16.2114 20.7337 16.5495C20.7155 16.8879 20.6776 17.2234 20.6286 17.5573C20.5788 17.8911 20.5174 18.2228 20.4363 18.5517C20.3579 18.8811 20.2652 19.2081 20.1332 19.5291C20.0812 19.6554 19.9369 19.7158 19.8105 19.6638C19.7224 19.6276 19.6663 19.5464 19.6581 19.4577L19.658 19.4558C19.6266 19.1097 19.6346 18.7698 19.6564 18.432C19.676 18.0938 19.715 17.7586 19.7657 17.4253C19.8175 17.092 19.8801 16.7605 19.9624 16.4319C20.0423 16.103 20.1359 15.7761 20.2687 15.4551C20.3191 15.3328 20.4594 15.2746 20.5818 15.3251C20.667 15.3603 20.721 15.4395 20.729 15.5251Z" fill="white"/>
</g>
</g>
<path d="M24.813 46.3884C24.1647 46.2588 23.8881 45.7484 24.0291 45.2862C24.4433 43.9276 26.936 43.7617 26.8826 45.1427C26.8567 45.8139 25.8467 46.5949 24.813 46.3884Z" fill="#FC09B2"/>
<path d="M33.4078 43.8959C33.8861 43.4396 33.8468 42.8604 33.4804 42.5453C32.4035 41.6192 30.2088 42.8126 30.9928 43.9508C31.3738 44.504 32.645 44.6233 33.4078 43.8959Z" fill="#FC09B2"/>
<path d="M26.6256 42.7374C26.5182 42.3241 27.1438 42.159 27.2526 42.5748C27.3549 42.9696 27.6386 43.3344 27.9754 43.5046C28.7994 43.9194 29.629 43.0512 29.306 41.9728C29.1835 41.5633 29.803 41.3749 29.9263 41.7871C30.1819 42.6404 29.9313 43.7568 28.9635 44.1449C27.9432 44.5545 26.8954 43.7761 26.6256 42.7374Z" fill="#000E3F"/>
<path d="M24.0092 43.2463C23.8295 42.8247 24.1595 42.2198 24.6363 42.0975C25.8732 41.7804 26.318 43.5859 25.122 43.8929C24.6707 44.0089 24.1136 43.739 24.0092 43.2463Z" fill="#000E3F"/>
<path d="M31.7906 41.953C31.309 42.1329 30.7623 41.7991 30.6323 41.3597C30.4785 40.8401 30.767 40.3245 31.2586 40.1804C31.7361 40.0404 32.2594 40.317 32.4108 40.7963C32.5667 41.2904 32.2196 41.8717 31.7906 41.953Z" fill="#000E3F"/>
<path d="M39.5103 53.8766C33.2603 33.0037 30.8438 24.0481 30.654 23.6962V23.6961C29.1601 21.8132 20.193 12.7646 20.1586 12.7386C19.9467 12.5773 19.7663 12.5949 19.6508 12.6384C19.3042 12.7704 19.2178 13.2159 19.0288 14.192C18.9234 14.7326 16.2219 27.6534 16.3345 27.8434C16.3345 27.8437 16.3345 27.8437 16.3345 27.8439C16.3391 27.9087 16.3865 28.1836 20.2524 41.6773L20.3034 41.8552C20.8811 43.8686 25.6554 60.4953 26.3586 62.5163C27.35 65.3662 38.2378 63.5771 40.7042 59.2354C40.7042 59.2351 40.7045 59.2347 40.7045 59.2344C40.9864 58.7832 41.0252 58.9347 39.5103 53.8766ZM19.8744 13.3594C20.0767 13.5602 29.391 23.1124 29.9541 23.8181C29.8262 23.9448 29.6276 24.1292 29.368 24.3493C25.4654 27.6047 21.749 28.311 17.203 27.6262C17.1489 27.6177 17.0835 27.6045 17.0083 27.5845C17.2971 25.6935 19.8217 13.5289 19.8744 13.3594ZM40.1407 58.9166C37.7904 63.0505 27.6667 64.3056 26.9703 62.3037C26.271 60.2949 21.4877 43.6347 20.9264 41.6793L20.8748 41.4989C18.89 34.5723 17.5162 29.7428 17.1065 28.2666C18.8307 28.3739 24.5284 29.7679 30.227 24.4582C39.7617 57.7887 40.4324 58.3982 40.1407 58.9166Z" fill="#000E3F"/>
<path d="M58.1598 17.7178C58.2409 17.5036 58.5129 16.8571 58.8011 16.7267C62.3101 15.1464 70.5886 18.2493 72.0158 21.6571C72.0523 21.744 72.161 21.5228 71.5502 23.2252C70.8953 25.0561 71.143 24.344 67.8334 33.4235C61.0551 52.0203 61.5173 50.8363 61.2795 51.2091C61.1194 51.4626 61.8162 50.88 51.6357 60.084C50.4998 61.1106 50.0018 61.7004 49.8619 61.2271C49.7615 60.8958 49.8579 61.4412 48.7559 53.3529C47.9892 47.7252 47.8055 46.757 47.8662 46.3256C47.8841 46.1989 47.9218 46.119 47.9709 45.9838C48.0982 45.6417 48.221 45.3038 48.3431 44.9685C51.837 35.429 54.1419 29.0398 55.6646 24.7779C55.7301 24.5978 55.7913 24.4215 55.8541 24.2487C56.4509 22.5696 56.9229 21.2418 57.2893 20.196C57.3166 20.1208 57.343 20.0483 57.366 19.9774C57.7214 18.9698 57.9755 18.2403 58.1598 17.7178Z" fill="#6280FF"/>
<path d="M57.8882 27.7647C58.5099 25.0975 60.0342 20.7345 61.4011 18.237C61.5095 18.0384 62.0238 18.2328 61.9661 18.4496C61.3199 20.9098 59.6769 25.5558 58.4375 27.9653C58.338 28.1594 57.8387 27.9767 57.8882 27.7647Z" fill="#322BBF"/>
<path d="M64.9624 30.3392C65.5793 27.6534 67.2052 23.1914 68.4245 20.7962C68.5272 20.595 69.0431 20.7837 68.9921 21.0027C68.3869 23.6223 66.7683 28.0774 65.5119 30.5393C65.4122 30.7334 64.9134 30.5513 64.9624 30.3392Z" fill="#322BBF"/>
<path d="M58.936 46.7249C59.4825 44.2164 60.9889 40.0508 62.1421 37.8221C62.2644 37.5857 62.7671 37.7682 62.7099 38.028C62.1665 40.5064 60.6586 44.6647 59.4855 46.9242C59.367 47.1531 58.8809 46.9759 58.936 46.7249Z" fill="#322BBF"/>
<path d="M55.1681 35.3652C55.291 35.129 55.7929 35.3114 55.7357 35.5717C55.1863 38.0386 53.6651 42.1622 52.497 44.3828C52.3773 44.6106 51.8921 44.4333 51.9478 44.1823C52.4943 41.7176 54 37.5933 55.1681 35.3652Z" fill="#322BBF"/>
<path d="M47.8656 46.3249C47.9236 46.3089 47.9972 46.3003 48.0893 46.2874C49.7886 46.0547 51.4776 46.1157 53.163 46.4261C56.2736 46.9969 58.6864 48.5716 60.9522 50.8156C61.0515 50.9148 61.1413 51.0256 61.2238 51.141C61.2324 51.1535 61.2414 51.1641 61.2506 51.1748C61.2607 51.1878 61.2699 51.1986 61.2789 51.2093C60.9984 51.6535 60.6309 51.9081 60.0634 52.4262C58.5674 53.7901 57.7298 54.5554 56.7512 55.4478C56.5768 55.6055 56.3982 55.769 56.2104 55.9385C55.1915 56.8646 53.9077 58.0287 51.6364 60.084C50.5011 61.1108 50.0022 61.7002 49.8622 61.2276C49.7618 60.8957 49.859 61.4401 48.7571 53.3529C48.7508 53.3041 48.7442 53.2553 48.7372 53.2082C48.7037 52.9582 48.6716 52.7198 48.6397 52.4908C48.6302 52.4298 48.6231 52.3678 48.6148 52.309C47.9646 47.6002 47.8093 46.73 47.8656 46.3249Z" fill="#FFE3F7"/>
<path d="M55.5726 33.5335C55.1083 33.0629 55.1653 32.4851 55.541 32.1813C56.6453 31.2882 58.803 32.5475 57.9848 33.6614C57.5871 34.2029 56.313 34.2836 55.5726 33.5335Z" fill="#322BBF"/>
<path d="M64.0881 36.2854C64.74 36.1755 65.032 35.6737 64.9051 35.2073C64.5322 33.8369 62.0457 33.5955 62.0572 34.9775C62.0628 35.6493 63.0486 36.4603 64.0881 36.2854Z" fill="#322BBF"/>
<g opacity="0.25">
<path opacity="0.25" d="M58.1596 17.7178C58.2407 17.5036 58.5127 16.8571 58.801 16.7267C62.31 15.1464 70.5884 18.2493 72.0157 21.6571C72.0522 21.744 72.1609 21.5228 71.5486 23.2271C70.8008 25.3002 65.4594 24.2895 64.0075 24.1745C52.3387 23.2508 56.4081 40.9635 48.5453 44.8803C48.483 44.9115 48.4113 44.9449 48.3433 44.9684C50.8583 38.1017 55.0299 26.6441 57.2892 20.1959C57.3157 20.1233 57.3429 20.0481 57.366 19.9772C57.7212 18.9698 57.9754 18.2403 58.1596 17.7178Z" fill="#000E3F"/>
</g>
<g opacity="0.5">
<g opacity="0.5">
<path opacity="0.5" d="M47.8656 46.3249C47.9236 46.3089 47.9972 46.3003 48.0893 46.2874C49.7886 46.0547 51.4776 46.1157 53.163 46.4261C56.2736 46.9969 58.6864 48.5716 60.9522 50.8156C61.0515 50.9148 61.1413 51.0256 61.2238 51.141C61.2324 51.1535 61.2414 51.1641 61.2506 51.1748C60.3799 51.4023 59.4141 51.4225 58.7026 51.2379C56.301 50.613 54.1051 47.6254 51.4226 49.3916C50.4164 50.053 49.9381 51.2964 48.9972 52.0484C48.8748 52.145 48.7466 52.2321 48.6146 52.3085C47.9646 47.6002 47.8093 46.73 47.8656 46.3249Z" fill="#FC09B2"/>
</g>
</g>
<path d="M48.7368 53.2079C50.5431 53.1053 53.8744 53.9626 56.21 55.9383C55.1911 56.8644 53.9073 58.0285 51.636 60.0837C50.5007 61.1105 50.0018 61.7 49.8618 61.2273C49.7614 60.8954 49.8587 61.4398 48.7567 53.3527C48.7504 53.3039 48.7438 53.255 48.7368 53.2079Z" fill="#7690FF"/>
<path d="M44.2968 71.3407C43.8301 71.3861 43.3546 71.381 42.885 71.2999C39.0328 70.6889 39.5793 67.072 37.4432 66.8761C37.3661 66.8966 36.5576 66.5874 35.5493 67.8648C34.6715 68.9667 33.8639 70.8033 32.4406 72.0618C30.1014 74.1139 27.0625 73.5326 26.2499 71.0685C25.9684 70.2245 25.914 69.4216 25.3686 68.9715C24.7403 68.4143 23.5526 68.3728 22.4882 69.4894C21.3351 70.6934 21.034 72.2602 20.6678 72.1294C20.2439 71.978 21.4173 69.0363 23.0549 68.1281C24.3775 67.3654 26.151 67.7555 26.7976 69.5101C27.2005 70.5592 27.1385 71.0818 27.9393 71.7582C28.3892 71.9942 28.8257 72.2703 29.6886 72.149C33.498 71.6302 33.5806 65.2541 37.6171 65.6543C39.8684 65.9251 40.1891 68.2565 41.1445 69.223C43.2842 71.6265 48.6269 70.3499 49.3172 64.5365C49.3855 63.9834 49.4853 63.699 49.6077 63.6966C50.3427 63.6771 49.6812 70.8931 44.2968 71.3407Z" fill="#6280FF"/>
<g opacity="0.75">
<path opacity="0.75" d="M50.7352 58.7331C50.9134 58.4347 51.1196 58.1641 51.336 57.9034C51.5503 57.6408 51.779 57.3923 52.0155 57.1517C52.2526 56.9117 52.498 56.68 52.7576 56.4624C53.0152 56.2429 53.2831 56.0335 53.5791 55.8521C53.6956 55.7808 53.8477 55.8173 53.9191 55.9337C53.9688 56.0149 53.9661 56.1136 53.9204 56.19L53.9196 56.1916C53.7406 56.4894 53.5336 56.7593 53.3166 57.0191C53.1011 57.2805 52.8719 57.5281 52.6344 57.7672C52.3958 58.0057 52.1497 58.2364 51.8892 58.4531C51.6306 58.6714 51.362 58.88 51.0655 59.0609C50.9527 59.1299 50.805 59.0941 50.736 58.981C50.6882 58.9026 50.6912 58.807 50.7352 58.7331Z" fill="white"/>
</g>
<path d="M62.0246 32.2788C62.3171 32.4566 62.3956 32.7162 62.3157 32.987C61.887 34.4396 59.5846 34.2318 59.0377 32.9701C58.8418 32.5185 58.7838 31.5646 59.4681 31.5012C59.8289 31.4678 61.0712 31.6991 62.0246 32.2788Z" fill="white"/>
<path d="M57.8301 29.8803C57.3668 29.7143 56.7545 30.0305 56.6671 30.4803C56.4776 30.9468 56.7879 31.4826 57.2265 31.6396C58.3815 32.0528 59.0406 30.3138 57.8301 29.8803Z" fill="#000E3F"/>
<path d="M64.3893 32.0032C63.9015 31.8472 63.3736 32.1126 63.2099 32.6291C63.0712 33.0659 63.3371 33.6487 63.8369 33.7697C64.2377 33.9428 64.851 33.6557 64.9987 33.1589C65.1418 32.6772 64.8631 32.1549 64.3893 32.0032Z" fill="#000E3F"/>
<path d="M70.3106 19.1715C67.6754 17.1372 62.0041 14.9288 58.6688 16.4304C58.6685 16.4305 58.6681 16.4306 58.6678 16.4306C58.1715 16.6295 58.2283 16.4932 56.4686 21.4637C53.4842 29.8923 47.5401 46.3143 47.545 46.28C47.545 46.2804 47.5447 46.2807 47.5447 46.2811C47.4489 46.9859 49.541 61.2845 49.5514 61.3194C49.6273 61.5753 49.7844 61.6675 49.9025 61.7C50.2875 61.8051 50.6765 61.4113 51.3212 60.813C52.0167 60.1669 61.3177 51.8089 61.5632 51.3578C61.8497 50.7927 71.4059 24.8017 72.1857 22.2476C72.5686 20.9932 70.691 19.465 70.3106 19.1715ZM50.1475 60.9859C50.0674 60.4832 48.2198 47.4917 48.182 46.594C48.3627 46.5666 48.6386 46.5344 48.9861 46.5098C54.027 46.1932 57.4411 47.7936 60.7235 51.0447C60.7913 51.1124 60.8251 51.1562 60.8562 51.1933C59.5166 52.5398 50.2753 60.8909 50.1475 60.9859ZM71.5669 22.0585C70.7336 24.7844 62.718 46.4852 61.172 50.5776C57.6655 47.1099 53.5689 45.2997 48.3521 45.9147C48.4924 45.5227 58.6217 17.1645 58.9347 17.0207C63.2634 15.0713 72.1867 20.0251 71.5669 22.0585Z" fill="#000E3F"/>
</g>
<defs>
<clipPath id="clip0">
<rect width="73.31" height="73.31" fill="white" transform="translate(9)"/>
</clipPath>
</defs>
</svg>
