<svg width="36" height="36" viewBox="0 0 36 36" fill="none" xmlns="http://www.w3.org/2000/svg">
<path d="M30.375 4.5C20.4716 4.5 15.5239 9.89438 13.1467 12.4875L9.7155 15.948C8.77204 16.8855 8.02409 18.0011 7.51504 19.2299C7.00598 20.4587 6.74594 21.7763 6.75 23.1064V24.75L9.03038 22.4696C9.17451 20.608 9.98069 18.8595 11.3029 17.541L14.805 14.0085C16.8705 11.7551 21.0701 7.17525 29.2219 6.77587C28.9721 11.8631 27.0956 15.4091 25.1741 17.8594L21.375 19.125H24.0952C23.4249 19.8457 22.723 20.5364 21.9915 21.195L20.889 22.2862L16.875 23.625H19.5379L18.4613 24.6904C17.7318 25.4242 16.864 26.006 15.9081 26.402C14.9522 26.7981 13.9272 27.0006 12.8925 26.9977H10.5941L21.0465 16.5454L19.4558 14.9546L4.5 29.9093L6.09075 31.5L8.343 29.2477H12.8936C14.2247 29.2513 15.5432 28.9905 16.7728 28.4807C18.0023 27.9709 19.1185 27.2221 20.0565 26.2778L23.5103 22.851C26.1034 20.4784 31.5 15.5306 31.5 5.625V4.5H30.375Z" fill="white"/>
</svg>
