<svg width="125" height="125" viewBox="0 0 125 125" fill="none" xmlns="http://www.w3.org/2000/svg">
<g clip-path="url(#clip0)">
<path d="M78.8297 26.0234L104.297 96.7472C104.778 98.0832 104.085 99.5571 102.749 100.038L45.0324 120.821C44.4757 121.022 43.9006 121.019 43.3786 120.851C42.9323 120.706 42.528 120.445 42.2201 120.09C42.0187 119.856 41.8525 119.581 41.7414 119.273L16.2743 48.5492C15.7931 47.2133 16.4867 45.7394 17.8227 45.2582L75.5387 24.475C76.8749 23.9938 78.3488 24.6874 78.8297 26.0234Z" fill="#FF8EDE"/>
<path d="M73.8417 28.858C74.9335 28.4649 76.1418 29.0332 76.5348 30.125L99.9132 95.0479C100.306 96.1397 99.738 97.3479 98.6462 97.741L46.7304 116.436C45.6386 116.829 44.4306 116.26 44.0373 115.169L20.6588 50.2457C20.2655 49.1539 20.8341 47.9456 21.9259 47.5525L73.8417 28.858Z" fill="white"/>
<path opacity="0.18" d="M78.887 26.1831L104.297 96.7473C104.778 98.0833 104.084 99.5571 102.748 100.038L45.0322 120.822C44.4756 121.022 43.9004 121.02 43.3784 120.851C43.4954 120.209 43.6375 119.58 43.8577 118.968C46.7969 110.866 64.4761 106.186 78.0479 101.298C82.2786 99.7749 88.8186 96.2586 90.502 91.3635C91.7583 87.7039 90.9609 84.9307 89.6851 81.7595C88.8228 79.6091 77.1934 48.979 74.0479 37.9033C72.8638 33.7307 73.7761 30.8616 75.3723 28.9033C76.3918 27.6599 77.6824 26.7844 78.887 26.1831Z" fill="#000E3F"/>
<path d="M23.2526 52.4239C23.756 53.8218 25.2973 54.5469 26.6952 54.0435C28.0932 53.5401 28.8185 51.9988 28.3149 50.6009C27.8114 49.2029 26.2702 48.4779 24.8722 48.981C23.4745 49.4847 22.7492 51.0259 23.2526 52.4239Z" fill="#FF8EDE"/>
<path d="M26.3088 60.9114C26.8122 62.3094 28.3535 63.0347 29.7514 62.5313C31.1494 62.0279 31.8745 60.4864 31.371 59.0884C30.8676 57.6905 29.3264 56.9651 27.9284 57.4688C26.5305 57.9722 25.8054 59.5135 26.3088 60.9114Z" fill="#FF8EDE"/>
<path d="M29.3649 69.3991C29.8683 70.797 31.4096 71.5221 32.8075 71.019C34.2055 70.5155 34.9306 68.974 34.4272 67.5761C33.9238 66.1781 32.3825 65.4528 30.9845 65.9562C29.5868 66.4596 28.8615 68.0011 29.3649 69.3991Z" fill="#FF8EDE"/>
<path d="M32.4216 77.8864C32.925 79.2843 34.4663 80.0097 35.8642 79.506C37.2622 79.0026 37.9873 77.4613 37.4838 76.0634C36.9804 74.6655 35.4392 73.9401 34.0412 74.4435C32.6433 74.9472 31.9182 76.4884 32.4216 77.8864Z" fill="#FF8EDE"/>
<path d="M35.4776 86.3738C35.981 87.7718 37.5223 88.4971 38.9202 87.9935C40.3182 87.4901 41.0433 85.9488 40.5399 84.5509C40.0364 83.1529 38.4952 82.4278 37.0972 82.931C35.6995 83.4346 34.9744 84.9759 35.4776 86.3738Z" fill="#FF8EDE"/>
<path d="M38.5339 94.8614C39.0373 96.2593 40.5786 96.9844 41.9765 96.481C43.3745 95.9776 44.0996 94.4361 43.5961 93.0381C43.0927 91.6402 41.5515 90.9148 40.1535 91.4185C38.7556 91.9222 38.0305 93.4634 38.5339 94.8614Z" fill="#FF8EDE"/>
<path d="M41.5905 103.349C42.0939 104.747 43.6352 105.472 45.0332 104.969C46.4311 104.465 47.1562 102.924 46.6528 101.526C46.1494 100.128 44.6081 99.4026 43.2102 99.9063C41.8122 100.409 41.0871 101.951 41.5905 103.349Z" fill="#FF8EDE"/>
<path d="M44.6467 111.836C45.1501 113.234 46.6913 113.96 48.0893 113.456C49.4872 112.953 50.2123 111.411 49.7089 110.013C49.2055 108.616 47.6642 107.89 46.2663 108.394C44.8686 108.897 44.1432 110.439 44.6467 111.836Z" fill="#FF8EDE"/>
<path d="M74.4731 36.8787L75.2341 33.3376L45.8296 43.926L48.6733 46.1689L47.9121 49.7092L77.3167 39.1209L76.2922 38.3127L74.4731 36.8787Z" fill="#322BBF"/>
<path d="M74.912 37.3479C74.3971 37.2097 73.8673 37.5152 73.7291 38.0303C73.6759 38.2285 73.6896 38.428 73.7543 38.6074C73.858 38.8946 74.0944 39.1282 74.4115 39.2134C74.9264 39.3516 75.4562 39.0462 75.5944 38.531C75.6476 38.333 75.6339 38.1333 75.5692 37.9541C75.4655 37.667 75.2291 37.4331 74.912 37.3479Z" fill="#6280FF"/>
<path d="M71.7715 36.9757C71.5735 36.9225 71.3738 36.9362 71.1944 37.0009C70.9073 37.1046 70.6734 37.3409 70.5884 37.6581C70.4502 38.1732 70.7556 38.7028 71.2708 38.8412C71.4688 38.8944 71.6685 38.8807 71.8479 38.816C72.1348 38.7125 72.3689 38.4759 72.4539 38.1588C72.5923 37.6437 72.2867 37.1141 71.7715 36.9757Z" fill="#6280FF"/>
<path d="M73.9539 34.6865C73.439 34.5484 72.9092 34.8538 72.771 35.3689C72.6328 35.8841 72.9383 36.4136 73.4534 36.552C73.9683 36.6902 74.4981 36.3848 74.6363 35.8697C74.7744 35.3545 74.469 34.8247 73.9539 34.6865Z" fill="#6280FF"/>
<path d="M72.7299 39.6371C72.5319 39.5839 72.3321 39.5975 72.1527 39.6622C71.8658 39.7657 71.6319 40.0023 71.5467 40.3195C71.4674 40.6149 71.5377 40.9125 71.7062 41.141L72.5726 40.829L73.4391 40.517C73.4169 40.1117 73.1432 39.7482 72.7299 39.6371Z" fill="#6280FF"/>
<path d="M69.5896 39.2647C69.0747 39.1265 68.5449 39.4319 68.4068 39.947C68.3538 40.145 68.3672 40.3448 68.4319 40.5242C68.5357 40.8111 68.772 41.0449 69.0891 41.1302C69.6043 41.2683 70.1338 40.9629 70.272 40.4478C70.3252 40.2498 70.3118 40.0498 70.2468 39.8706C70.1431 39.5838 69.9065 39.3499 69.5896 39.2647Z" fill="#6280FF"/>
<path d="M66.4487 38.8925C66.2507 38.8392 66.0508 38.8529 65.8716 38.9176C65.5847 39.0211 65.3508 39.2577 65.2656 39.5748C65.1274 40.09 65.4331 40.6195 65.948 40.7579C66.146 40.8112 66.346 40.7975 66.5252 40.7328C66.812 40.629 67.0459 40.3927 67.1309 40.0758C67.2693 39.5604 66.9639 39.0306 66.4487 38.8925Z" fill="#6280FF"/>
<path d="M70.3127 36.1794C70.5107 36.2327 70.7105 36.219 70.8899 36.1543C71.1768 36.0505 71.4106 35.8142 71.4959 35.4971C71.5693 35.2239 71.5151 34.9482 71.3735 34.7275L70.4907 35.0454L69.606 35.364C69.6521 35.7432 69.9211 36.0745 70.3127 36.1794Z" fill="#6280FF"/>
<path d="M68.6311 36.6033C68.1162 36.4651 67.5864 36.7705 67.4483 37.2857C67.3101 37.8008 67.6155 38.3303 68.1306 38.4688C68.6458 38.607 69.1753 38.3015 69.3135 37.7864C69.4517 37.2713 69.146 36.7415 68.6311 36.6033Z" fill="#6280FF"/>
<path d="M67.4071 41.5538C67.2091 41.5006 67.0091 41.5143 66.8299 41.579C66.5431 41.6825 66.309 41.9191 66.224 42.2362C66.1446 42.5316 66.215 42.8295 66.3834 43.0577L67.2501 42.7457L68.1166 42.4337C68.0941 42.0284 67.8204 41.6649 67.4071 41.5538Z" fill="#6280FF"/>
<path d="M64.2666 41.1814C63.7514 41.0432 63.2219 41.3489 63.0837 41.8638C63.0305 42.062 63.0439 42.2617 63.1088 42.4409C63.2124 42.7278 63.4489 42.9617 63.7658 43.0469C64.281 43.1851 64.8107 42.8796 64.9489 42.3645C65.0021 42.1665 64.9885 41.9668 64.9235 41.7876C64.82 41.5003 64.5837 41.2666 64.2666 41.1814Z" fill="#6280FF"/>
<path d="M61.126 40.8091C60.928 40.7561 60.7283 40.7695 60.5489 40.8342C60.262 40.9378 60.0281 41.1743 59.9429 41.4912C59.8047 42.0064 60.1101 42.5359 60.6253 42.6743C60.8233 42.7276 61.023 42.7139 61.2024 42.6492C61.4893 42.5457 61.7232 42.3091 61.8084 41.992C61.9466 41.4771 61.6411 40.9473 61.126 40.8091Z" fill="#6280FF"/>
<path d="M64.99 38.0962C65.1882 38.1494 65.3879 38.1357 65.5671 38.071C65.854 37.9675 66.0879 37.731 66.1728 37.4141C66.2463 37.1409 66.1921 36.8652 66.0505 36.6443L65.1677 36.9622L64.2827 37.2808C64.3296 37.6599 64.5986 37.9912 64.99 38.0962Z" fill="#6280FF"/>
<path d="M63.3084 38.52C62.7932 38.3819 62.2637 38.6873 62.1255 39.2024C61.9873 39.7176 62.2927 40.2471 62.8076 40.3855C63.3228 40.5237 63.8526 40.2183 63.9908 39.7031C64.1287 39.188 63.8233 38.6582 63.3084 38.52Z" fill="#6280FF"/>
<path d="M62.0843 43.4705C61.8864 43.4175 61.6866 43.4309 61.5072 43.4956C61.2203 43.5991 60.9864 43.8357 60.9012 44.1528C60.8219 44.4483 60.8922 44.7461 61.0604 44.9744L61.9271 44.6624L62.7938 44.3504C62.7716 43.9451 62.4977 43.5816 62.0843 43.4705Z" fill="#6280FF"/>
<path d="M58.9437 43.0982C58.4288 42.96 57.899 43.2654 57.7609 43.7805C57.7076 43.9788 57.7213 44.1782 57.786 44.3577C57.8898 44.6446 58.1261 44.8784 58.4432 44.9636C58.9581 45.1018 59.4879 44.7964 59.6261 44.2813C59.6793 44.0833 59.6656 43.8836 59.601 43.7041C59.4972 43.417 59.2606 43.1834 58.9437 43.0982Z" fill="#6280FF"/>
<path d="M55.8032 42.726C55.6052 42.6727 55.4055 42.6864 55.2261 42.7511C54.9392 42.8546 54.7051 43.0912 54.6201 43.4081C54.482 43.9232 54.7874 44.4528 55.3025 44.5912C55.5005 44.6444 55.7002 44.6307 55.8797 44.566C56.1665 44.4625 56.4004 44.226 56.4856 43.9091C56.6238 43.3939 56.3184 42.8641 55.8032 42.726Z" fill="#6280FF"/>
<path d="M59.6672 40.0129C59.8652 40.0662 60.0649 40.0527 60.2444 39.9878C60.5313 39.8843 60.7651 39.6477 60.8503 39.3308C60.9236 39.0576 60.8694 38.782 60.728 38.5613L59.8452 38.8792L58.9604 39.1978C59.0068 39.5767 59.2756 39.908 59.6672 40.0129Z" fill="#6280FF"/>
<path d="M57.9856 40.4368C57.4707 40.2986 56.9409 40.604 56.8028 41.1192C56.6646 41.6343 56.97 42.1638 57.4851 42.3023C58.0003 42.4407 58.5298 42.135 58.668 41.6199C58.8062 41.1048 58.5008 40.575 57.9856 40.4368Z" fill="#6280FF"/>
<path d="M56.7613 45.3873C56.5633 45.3341 56.3636 45.3478 56.1844 45.4125C55.8976 45.516 55.6634 45.7526 55.5785 46.0697C55.4991 46.3651 55.5694 46.663 55.7379 46.8912L56.6046 46.5792L57.4711 46.2672C57.4486 45.8619 57.1747 45.4982 56.7613 45.3873Z" fill="#6280FF"/>
<path d="M53.6209 45.0149C53.106 44.8767 52.5762 45.1822 52.438 45.6973C52.385 45.8953 52.3985 46.095 52.4632 46.2744C52.5667 46.5613 52.8032 46.7952 53.1204 46.8804C53.6353 47.0186 54.1651 46.7132 54.3032 46.198C54.3565 45.9998 54.3428 45.8001 54.2781 45.6209C54.1743 45.3338 53.938 45.0999 53.6209 45.0149Z" fill="#6280FF"/>
<path d="M50.4805 44.6427C50.2825 44.5895 50.0828 44.6032 49.9033 44.6678C49.6165 44.7714 49.3826 45.0079 49.2974 45.3248C49.1592 45.84 49.4646 46.3695 49.9798 46.5079C50.1778 46.5612 50.3777 46.5475 50.5569 46.4828C50.8438 46.379 51.0777 46.1427 51.1626 45.8258C51.3011 45.3104 50.9956 44.7809 50.4805 44.6427Z" fill="#6280FF"/>
<path d="M54.3445 41.9297C54.5427 41.9829 54.7422 41.9692 54.9216 41.9045C55.2085 41.801 55.4424 41.5645 55.5276 41.2476C55.6011 40.9744 55.5466 40.6987 55.4053 40.4778L54.5225 40.7957L53.6377 41.1143C53.6838 41.4932 53.9529 41.8247 54.3445 41.9297Z" fill="#6280FF"/>
<path d="M52.6629 42.3535C52.148 42.2154 51.6182 42.5208 51.48 43.0357C51.3418 43.5508 51.6472 44.0803 52.1624 44.2188C52.6775 44.3572 53.2071 44.0515 53.3452 43.5364C53.4834 43.0215 53.178 42.4917 52.6629 42.3535Z" fill="#6280FF"/>
<path d="M51.4388 47.3041C51.2408 47.2509 51.0411 47.2645 50.8617 47.3292C50.5746 47.4327 50.3409 47.6693 50.2557 47.9865C50.1764 48.2819 50.2467 48.5797 50.4152 48.808L51.2819 48.496L52.1483 48.184C52.1261 47.7787 51.8522 47.4149 51.4388 47.3041Z" fill="#6280FF"/>
<path d="M48.3308 47.7625L48.1025 48.824C48.5068 48.8008 48.8696 48.5271 48.9802 48.1145C49.0334 47.9163 49.02 47.7166 48.9551 47.5374C48.874 47.313 48.7117 47.1218 48.4927 47.0083L48.3308 47.7625Z" fill="#6280FF"/>
<path d="M49.0215 43.8464C49.2197 43.8997 49.4194 43.886 49.5986 43.8213C49.8855 43.7178 50.1194 43.4812 50.2046 43.1643C50.2781 42.8911 50.2239 42.6155 50.0823 42.3948L49.1995 42.7126L48.3145 43.0313C48.3611 43.4099 48.6301 43.7415 49.0215 43.8464Z" fill="#6280FF"/>
<path d="M47.3401 44.2703C47.0334 44.188 46.7236 44.2657 46.4922 44.4483L47.9634 45.6087C47.9863 45.5589 48.0076 45.5081 48.0222 45.4534C48.1606 44.938 47.855 44.4085 47.3401 44.2703Z" fill="#6280FF"/>
<path d="M45.042 59.0412L46.2644 61.1142C46.3157 61.2008 46.406 61.2567 46.5064 61.2638L48.907 61.432C49.1597 61.4498 49.2825 61.7496 49.1148 61.9396L47.521 63.7426C47.4544 63.818 47.429 63.9213 47.4534 64.0189L48.0352 66.3541C48.0965 66.6 47.8492 66.8095 47.6167 66.7084L45.4095 65.7499C45.3172 65.7099 45.211 65.7177 45.1258 65.7711L43.0848 67.046C42.8699 67.1803 42.5943 67.0099 42.6184 66.7577L42.8479 64.3622C42.8577 64.2621 42.8172 64.1635 42.7403 64.099L40.897 62.5519C40.7029 62.3891 40.7798 62.0744 41.0271 62.0192L43.3763 61.4972C43.4744 61.4755 43.5557 61.4066 43.5933 61.3134L44.4952 59.0822C44.5901 58.8471 44.9131 58.8231 45.042 59.0412Z" fill="#6280FF"/>
<path d="M75.3721 55.6812C78.2107 60.9883 76.2093 67.5901 70.9031 70.428C68.6607 71.6275 66.1871 71.9634 63.8633 71.5496C60.689 70.9844 57.7952 69.0235 56.1563 65.959C53.3182 60.6529 55.3191 54.0501 60.6253 51.2122C63.1121 49.8821 65.8836 49.6153 68.4187 50.2527C71.293 50.9759 73.8641 52.8619 75.3721 55.6812Z" fill="#FFCF00"/>
<path opacity="0.5" d="M75.3726 55.6812C78.2112 60.9883 76.2097 67.5901 70.9036 70.428C68.6611 71.6274 66.1875 71.9634 63.8638 71.5496C69.2212 70.4492 73.1877 66.0999 73.6445 61.0142C74.0183 56.8516 71.9919 52.738 68.4192 50.2524C71.2935 50.9758 73.8645 52.8618 75.3726 55.6812Z" fill="#FDD502"/>
<path d="M45.0478 60.8636L45.6933 61.9581C45.7204 62.004 45.768 62.0335 45.8209 62.0372L47.0885 62.126C47.2221 62.1353 47.2868 62.2938 47.1981 62.3939L46.3566 63.346C46.3214 63.3858 46.308 63.4405 46.3209 63.492L46.6281 64.7249C46.6605 64.8548 46.5299 64.9654 46.4071 64.9119L45.2416 64.4058C45.1928 64.3846 45.1369 64.3887 45.0917 64.4171L44.0141 65.0904C43.9005 65.1612 43.755 65.0714 43.768 64.9381L43.8893 63.6732C43.8944 63.6204 43.8732 63.5682 43.8324 63.5343L42.859 62.7174C42.7565 62.6314 42.7973 62.4652 42.9279 62.4361L44.1684 62.1605C44.2201 62.149 44.2631 62.1126 44.2829 62.0633L44.7592 60.8853C44.8092 60.7611 44.9796 60.7484 45.0478 60.8636Z" fill="#322BBF"/>
<path d="M16.3101 55.9719L25.7735 52.5642C26.2859 52.3797 26.5518 51.8147 26.3672 51.3023C26.1826 50.7898 25.6177 50.5239 25.1052 50.7085L15.6416 54.1162C15.1292 54.3008 14.8633 54.8657 15.0479 55.3782C15.2327 55.8906 15.7976 56.1565 16.3101 55.9719Z" fill="#FC09B2"/>
<path d="M19.366 64.4595L28.8294 61.0518C29.3418 60.8672 29.6077 60.3023 29.4231 59.7898C29.2386 59.2774 28.6736 59.0115 28.1612 59.1961L18.6976 62.6038C18.1851 62.7883 17.9195 63.3533 18.104 63.8657C18.2889 64.3782 18.8538 64.6441 19.366 64.4595Z" fill="#FC09B2"/>
<path d="M22.4229 72.9473L31.8862 69.5396C32.3987 69.355 32.6646 68.7901 32.48 68.2776C32.2954 67.7652 31.7305 67.4993 31.218 67.6839L21.7544 71.0916C21.242 71.2761 20.9761 71.8411 21.1607 72.3535C21.3455 72.866 21.9104 73.1319 22.4229 72.9473Z" fill="#FC09B2"/>
<path d="M25.4788 81.4346L34.9422 78.0269C35.4546 77.8423 35.7205 77.2774 35.5359 76.7649C35.3513 76.2525 34.7864 75.9866 34.2739 76.1712L24.8106 79.5789C24.2981 79.7634 24.0322 80.3284 24.2168 80.8408C24.4014 81.3533 24.9663 81.6189 25.4788 81.4346Z" fill="#FC09B2"/>
<path d="M28.5352 89.9221L37.9988 86.5144C38.5113 86.3298 38.7771 85.7649 38.5925 85.2527C38.408 84.7403 37.843 84.4744 37.3306 84.659L27.8672 88.0667C27.3548 88.2512 27.0889 88.8162 27.2735 89.3286C27.4578 89.8408 28.0227 90.1067 28.5352 89.9221Z" fill="#FC09B2"/>
<path d="M31.5913 98.4094L41.055 95.0017C41.5674 94.8172 41.8333 94.2522 41.6487 93.7398C41.4641 93.2273 40.8992 92.9614 40.3867 93.146L30.9234 96.5537C30.4109 96.7383 30.145 97.3032 30.3296 97.8157C30.5139 98.3281 31.0789 98.594 31.5913 98.4094Z" fill="#FC09B2"/>
<path d="M34.6475 106.897L44.1111 103.49C44.6235 103.305 44.8894 102.74 44.7048 102.228C44.5203 101.715 43.9553 101.449 43.4429 101.634L33.9795 105.042C33.4671 105.226 33.2012 105.791 33.3858 106.303C33.5701 106.816 34.1353 107.082 34.6475 106.897Z" fill="#FC09B2"/>
<path d="M37.7041 115.385L47.1677 111.977C47.6802 111.792 47.9461 111.227 47.7615 110.715C47.5769 110.202 47.012 109.937 46.4995 110.121L37.0361 113.529C36.5237 113.713 36.2578 114.278 36.4424 114.791C36.6267 115.303 37.1917 115.569 37.7041 115.385Z" fill="#FC09B2"/>
<path d="M73.2982 58.4726C73.6847 59.1948 73.2376 60.187 72.3001 60.6884C71.3626 61.1899 70.2894 61.011 69.9032 60.2888C69.5167 59.5666 69.9637 58.5744 70.9012 58.073C71.8387 57.5713 72.912 57.7502 73.2982 58.4726Z" fill="#FC09B2"/>
<path d="M63.0251 63.9673C63.4114 64.6894 62.9646 65.6816 62.0271 66.1831C61.0896 66.6845 60.0164 66.5056 59.6301 65.7834C59.2439 65.0612 59.6907 64.0691 60.6282 63.5676C61.5657 63.0659 62.6389 63.2448 63.0251 63.9673Z" fill="#FC09B2"/>
<path d="M35.2922 47.451L37.8142 49.215C37.9197 49.2887 38.0547 49.3058 38.1753 49.2609L41.0581 48.1832C41.3616 48.0697 41.6636 48.3536 41.5691 48.6634L40.6709 51.607C40.6333 51.7301 40.6587 51.8639 40.7388 51.9645L42.6545 54.3732C42.8562 54.6268 42.6797 55.0016 42.3555 55.0074L39.2783 55.0629C39.1497 55.0651 39.0303 55.1305 38.9592 55.2379L37.2605 57.8043C37.0815 58.0746 36.6704 58.0223 36.5649 57.7159L35.5613 54.8065C35.5193 54.6849 35.4202 54.5917 35.2961 54.5572L32.3306 53.7345C32.0183 53.6478 31.9409 53.2408 32.1997 53.0455L34.6567 51.192C34.7595 51.1146 34.8174 50.9916 34.8118 50.8629L34.6777 47.7882C34.6633 47.4647 35.0266 47.2652 35.2922 47.451Z" fill="#FC09B2"/>
<path d="M40.9244 73.629L43.5884 73.3883C43.6998 73.3783 43.7991 73.314 43.8541 73.2164L45.1661 70.8853C45.3043 70.64 45.6639 70.6593 45.7747 70.9183L46.827 73.3775C46.8709 73.4803 46.9627 73.555 47.0723 73.577L49.6949 74.1043C49.971 74.1598 50.0635 74.5079 49.8516 74.6932L47.838 76.4539C47.7537 76.5277 47.7112 76.638 47.7242 76.7491L48.033 79.4061C48.0655 79.6859 47.763 79.8814 47.5213 79.7371L45.2244 78.3661C45.1282 78.3087 45.0103 78.3023 44.9085 78.349L42.4769 79.4637C42.2208 79.5811 41.9415 79.3538 42.004 79.0792L42.5982 76.471C42.6231 76.3619 42.5926 76.2476 42.5169 76.1654L40.7051 74.1973C40.5142 73.9903 40.6439 73.6544 40.9244 73.629Z" fill="#FC09B2"/>
<path d="M57.0398 63.9394C56.0476 61.9946 56.0842 59.55 56.9228 57.4882C57.3411 56.4511 57.9648 55.5029 58.7288 54.7048C59.4915 53.9069 60.4038 53.2561 61.4138 52.8605C61.5642 52.8017 61.7339 52.8757 61.7927 53.0261C61.8357 53.1364 61.8074 53.257 61.73 53.3366L61.7271 53.3395C61.01 54.0747 60.3635 54.811 59.8074 55.6008C59.2517 56.3896 58.7954 57.2282 58.4348 58.103C58.0791 58.9799 57.8215 59.895 57.6831 60.8435C57.5444 61.7932 57.5232 62.7673 57.5742 63.7912L57.5745 63.7963C57.5823 63.9523 57.4622 64.0852 57.3059 64.093C57.1914 64.0993 57.0891 64.0356 57.0398 63.9394Z" fill="white"/>
<path d="M42.7898 74.5056L44.1748 74.3803C44.2326 74.3752 44.2844 74.3418 44.3129 74.291L44.9951 73.0791C45.0669 72.9514 45.2539 72.9616 45.3115 73.0962L45.8586 74.3747C45.8816 74.4282 45.9292 74.467 45.986 74.4785L47.3496 74.7527C47.4931 74.7815 47.5412 74.9624 47.4309 75.0588L46.384 75.9743C46.3403 76.0127 46.3181 76.07 46.3249 76.1277L46.4856 77.509C46.5024 77.6545 46.3452 77.7561 46.2194 77.6811L45.0254 76.9685C44.9755 76.9387 44.914 76.9353 44.861 76.9597L43.5969 77.5393C43.4638 77.6003 43.3186 77.4822 43.351 77.3393L43.6601 75.9834C43.6731 75.9267 43.6572 75.8674 43.6179 75.8244L42.676 74.8012C42.5766 74.6933 42.644 74.5188 42.7898 74.5056Z" fill="#FF8EDE"/>
<path d="M36.1718 49.3634L37.6189 50.3754C37.6794 50.4176 37.7568 50.4276 37.8259 50.4017L39.4799 49.7833C39.654 49.7181 39.8274 49.8812 39.7732 50.059L39.2578 51.7479C39.2363 51.8185 39.2507 51.8954 39.2968 51.953L40.396 53.3351C40.5117 53.4806 40.4104 53.6957 40.2243 53.6991L38.4589 53.7308C38.3852 53.7321 38.3166 53.7697 38.2758 53.8312L37.3012 55.3036C37.1987 55.4586 36.9626 55.4286 36.9021 55.2528L36.3261 53.5836C36.3022 53.5138 36.2453 53.4603 36.174 53.4406L34.4726 52.9686C34.2934 52.9188 34.249 52.6854 34.3974 52.5734L35.8071 51.5099C35.8659 51.4655 35.8994 51.3949 35.8962 51.3212L35.8193 49.5573C35.811 49.3712 36.0195 49.257 36.1718 49.3634Z" fill="#FF8EDE"/>
<path d="M105.218 96.4128L79.7532 25.6899C79.2471 24.2859 77.9029 23.3445 76.4117 23.3445C75.9981 23.3445 75.5953 23.4153 75.2088 23.5513L17.4876 44.3354C15.6483 44.9995 14.6903 47.0403 15.3543 48.8799L16.7257 52.6841L15.3106 53.1958C14.2874 53.5605 13.7596 54.6924 14.1241 55.7102C14.4071 56.4885 15.1473 57.0107 15.9747 57.0107C16.2032 57.0107 16.4261 56.9727 16.6439 56.8965L18.0589 56.3848L19.7786 61.1687L18.3636 61.6802C17.3458 62.0503 16.8126 63.1768 17.1827 64.2C17.46 64.9783 18.2059 65.5007 19.033 65.5007C19.2562 65.5007 19.4849 65.4573 19.6971 65.3811L21.1121 64.8694L22.8372 69.6587L21.4222 70.1702C20.4044 70.5347 19.8712 71.6667 20.2357 72.6846C20.5186 73.4629 21.2642 73.9853 22.086 73.9853C22.3148 73.9853 22.5377 73.9473 22.7557 73.8711L24.1705 73.3596L25.8956 78.1489L24.4808 78.6604C23.4576 79.0249 22.9298 80.1516 23.2943 81.1748C23.5772 81.9531 24.3175 82.4756 25.1446 82.4756C25.3731 82.4756 25.5963 82.4321 25.8087 82.3559L27.2237 81.8445L28.9488 86.6338L27.5338 87.1453C27.0384 87.3247 26.6468 87.6841 26.4234 88.1575C26.2005 88.6309 26.1732 89.1697 26.3526 89.6597C26.63 90.438 27.3758 90.9604 28.203 90.9604C28.4261 90.9604 28.6495 90.9224 28.867 90.8462L30.2821 90.3347L32.0072 95.124L30.5921 95.6355C30.0968 95.8096 29.6995 96.1689 29.4761 96.6477C29.2532 97.1211 29.2315 97.6545 29.4056 98.1497C29.6885 98.928 30.4288 99.4504 31.2559 99.4504C31.4847 99.4504 31.7076 99.407 31.92 99.3308L33.335 98.8193L35.0601 103.609L33.6451 104.12C32.6273 104.49 32.0941 105.617 32.4642 106.635C32.7415 107.413 33.4874 107.935 34.3145 107.935C34.5377 107.935 34.7662 107.897 34.9786 107.821L36.3934 107.309L38.1187 112.104L36.7037 112.61C35.6859 112.975 35.1527 114.101 35.5172 115.124C35.8001 115.903 36.5406 116.425 37.3675 116.425C37.596 116.425 37.8192 116.387 38.0372 116.306L39.4466 115.8L40.8179 119.604C40.9649 120.017 41.1878 120.398 41.4764 120.73C42.1566 121.509 43.1363 121.955 44.1595 121.955C44.5731 121.955 44.9759 121.884 45.3624 121.743L103.079 100.957C104.924 100.299 105.882 98.2578 105.218 96.4128ZM17.7271 55.4648L16.3121 55.9709C16.1978 56.0144 16.0892 56.0308 15.9749 56.0308C15.5721 56.0308 15.191 55.7805 15.0496 55.3777C14.8648 54.8662 15.1312 54.3 15.6429 54.1152L17.0579 53.6038L17.9776 53.2771L25.107 50.7083C25.2156 50.6702 25.3301 50.6484 25.439 50.6484C25.8419 50.6484 26.2227 50.8987 26.3697 51.3015C26.5494 51.8132 26.2882 52.3791 25.7713 52.5642L18.6473 55.1331L17.7271 55.4648ZM20.7803 63.9495L19.3653 64.4612C19.2567 64.4993 19.1424 64.521 19.0333 64.521C18.6307 64.521 18.2496 64.2707 18.1026 63.8679C17.9176 63.3564 18.1842 62.7905 18.6959 62.6052L20.1107 62.0937L21.036 61.7617L28.16 59.1985C28.2689 59.155 28.3831 59.1387 28.4974 59.1387C28.9002 59.1387 29.2811 59.3889 29.4227 59.7917C29.6075 60.3032 29.3409 60.8694 28.8292 61.0544L21.6998 63.6177L20.7803 63.9495ZM23.8389 72.4341L22.4239 72.9456C22.3096 72.989 22.201 73.0054 22.0865 73.0054C21.6839 73.0054 21.303 72.7551 21.1614 72.3523C20.9764 71.8408 21.243 71.2747 21.7545 71.0896L23.1695 70.5781L24.0892 70.2515L31.2186 67.6826C31.3275 67.6445 31.4417 67.6228 31.5504 67.6228C31.9532 67.6228 32.3341 67.8733 32.481 68.2759C32.6663 68.7876 32.3995 69.3535 31.8878 69.5386L24.7584 72.1074L23.8389 72.4341ZM26.8975 80.9241L25.4771 81.4355C25.3682 81.4736 25.254 81.4954 25.1448 81.4954C24.7423 81.4954 24.3612 81.2449 24.2142 80.8423C24.0345 80.3306 24.296 79.7646 24.8128 79.5796L26.2279 79.0681L27.1475 78.7417L34.2713 76.1728C34.3856 76.1294 34.4945 76.113 34.6087 76.113C35.0113 76.113 35.3924 76.3633 35.534 76.7661C35.7191 77.2778 35.4525 77.8437 34.9407 78.0288L27.817 80.592L26.8975 80.9241ZM29.9505 89.4084L28.5355 89.9199C28.4268 89.9634 28.3126 89.9797 28.2037 89.9797C27.7955 89.9797 27.42 89.7295 27.273 89.3267C27.088 88.8152 27.3546 88.249 27.866 88.064L29.2811 87.5525L30.2008 87.2205L37.3301 84.6572C37.439 84.6191 37.5533 84.5974 37.6619 84.5974C38.0701 84.5974 38.4459 84.8477 38.5926 85.2505C38.7779 85.7676 38.5111 86.3281 37.9993 86.5132L30.8699 89.082L29.9505 89.4084ZM33.004 97.8987L31.5889 98.4101C31.4801 98.4482 31.3658 98.47 31.2569 98.47C30.8543 98.47 30.4732 98.2195 30.3319 97.8169C30.1468 97.3054 30.4134 96.7393 30.9249 96.5542L32.3399 96.0481L33.2596 95.7161L40.389 93.1472C40.4976 93.1038 40.6119 93.0874 40.7208 93.0874C41.1236 93.0874 41.5045 93.3376 41.6461 93.7405C41.8311 94.2519 41.5699 94.8181 41.0528 95.0032L33.9234 97.5664L33.004 97.8987ZM36.0623 106.389L34.6473 106.895C34.5386 106.938 34.4244 106.955 34.3155 106.955C33.9073 106.955 33.5318 106.704 33.3848 106.302C33.2 105.79 33.4664 105.224 33.9781 105.039L35.3931 104.527L36.3128 104.201L43.4422 101.632C43.5511 101.594 43.6654 101.578 43.7796 101.578C44.1822 101.578 44.5577 101.828 44.7049 102.225C44.89 102.742 44.6231 103.303 44.1116 103.488L36.9822 106.057L36.0623 106.389ZM39.1153 114.879L37.7059 115.385C37.5916 115.423 37.4827 115.445 37.3685 115.445C36.9659 115.445 36.5848 115.194 36.4434 114.792C36.2581 114.28 36.525 113.714 37.0364 113.529L38.4515 113.023L39.3712 112.691L46.5006 110.122C46.6094 110.084 46.7237 110.062 46.8326 110.062C47.2354 110.062 47.6163 110.312 47.7633 110.715C47.9429 111.227 47.6817 111.793 47.17 111.978L40.0352 114.546L39.1153 114.879ZM102.747 100.037L45.0311 120.822C44.7427 120.925 44.4488 120.974 44.1605 120.974C43.4202 120.974 42.7071 120.647 42.2174 120.092C42.0159 119.858 41.8529 119.581 41.7386 119.271L40.3673 115.466L47.502 112.897C48.5198 112.533 49.0474 111.401 48.6829 110.383C48.4056 109.605 47.6597 109.082 46.8326 109.082C46.6041 109.082 46.3807 109.12 46.1685 109.202L39.0394 111.771L37.3143 106.981L44.4434 104.413C45.4613 104.042 45.9945 102.916 45.6243 101.893C45.347 101.12 44.6011 100.598 43.7796 100.598C43.5511 100.598 43.328 100.636 43.1102 100.712L35.9808 103.281L34.2557 98.4914L41.3851 95.9226C42.4083 95.5578 42.9361 94.426 42.5714 93.4082C42.2884 92.6299 41.5484 92.1074 40.721 92.1074C40.4925 92.1074 40.2694 92.1455 40.0572 92.2217L32.9278 94.7905L31.2025 90.0015L38.3319 87.438C38.8272 87.2583 39.2191 86.8992 39.4422 86.4258C39.6654 85.9468 39.6925 85.4136 39.5133 84.9182C39.2357 84.1455 38.4898 83.6174 37.6627 83.6174C37.4398 83.6174 37.211 83.6609 36.9989 83.7371L29.8695 86.3003L28.1444 81.511L35.2738 78.9478C35.7689 78.7681 36.1661 78.4089 36.3892 77.9355C36.6124 77.4622 36.6343 76.9287 36.46 76.4336C36.1771 75.6553 35.4368 75.1328 34.6097 75.1328C34.3812 75.1328 34.158 75.1709 33.9403 75.2471L26.8162 77.8159L25.0911 73.0322L32.2203 70.4634C32.7103 70.2839 33.1072 69.9246 33.3306 69.4456C33.5538 68.9722 33.5809 68.4387 33.4012 67.9436C33.1238 67.1653 32.3782 66.6428 31.5509 66.6428C31.3223 66.6428 31.0994 66.6863 30.887 66.7627L23.7576 69.3315L22.0325 64.5369L29.1617 61.9736C30.1795 61.6035 30.7127 60.477 30.3482 59.4592C30.0653 58.6809 29.3194 58.1587 28.4979 58.1587C28.2694 58.1587 28.0462 58.1968 27.8284 58.2729L20.6986 60.8364L18.9786 56.0527L26.1029 53.4839C27.1258 53.1191 27.6539 51.9927 27.2894 50.9695C27.0062 50.1912 26.2662 49.6687 25.4388 49.6687C25.2103 49.6687 24.9871 49.7124 24.775 49.7886L17.6456 52.3574L16.274 48.5478C15.795 47.2144 16.4864 45.7395 17.8197 45.2607L75.5408 24.4766C75.8292 24.373 76.1231 24.3242 76.4117 24.3242C77.462 24.3242 78.4525 24.9773 78.8336 26.0222L104.298 96.7451C104.777 98.0835 104.086 99.5586 102.747 100.037Z" fill="#000E3F"/>
<path d="M52.1566 89.8117C52.2284 90.0117 52.4166 90.136 52.6173 90.136C52.6727 90.136 52.7284 90.1264 52.7831 90.1067L76.0963 81.7117C76.3509 81.6199 76.4832 81.3393 76.3912 81.0849C76.2996 80.8298 76.0181 80.6987 75.7645 80.79L52.4513 89.185C52.1971 89.2763 52.0648 89.5571 52.1566 89.8117Z" fill="#000E3F"/>
<path d="M49.9594 90.3936C50.2683 89.7378 50.3027 89.001 50.0573 88.3194C49.5503 86.9114 47.9909 86.1792 46.5847 86.6856C45.9028 86.9312 45.3569 87.4275 45.0488 88.0833C44.74 88.739 44.7055 89.4759 44.9509 90.1575C45.1965 90.8399 45.6928 91.3853 46.3486 91.6941C46.716 91.867 47.1081 91.9539 47.5024 91.9539C47.8122 91.9539 48.1233 91.9002 48.4233 91.7918C49.1054 91.5464 49.6511 91.0501 49.9594 90.3936ZM46.7658 90.8076C46.3464 90.6104 46.0293 90.2618 45.8723 89.826C45.7155 89.3902 45.7378 88.9192 45.935 88.5005C46.1323 88.0813 46.4802 87.7639 46.916 87.6072C47.1096 87.5376 47.3071 87.5047 47.5022 87.5047C48.2126 87.5047 48.8808 87.9453 49.1352 88.6512C49.292 89.0869 49.2697 89.5579 49.0725 89.9771C48.8752 90.3965 48.5273 90.7137 48.0915 90.8704C47.6572 91.0276 47.1845 91.0049 46.7658 90.8076Z" fill="#000E3F"/>
<path d="M54.8764 97.3645C54.9482 97.5642 55.1362 97.6888 55.3371 97.6888C55.3923 97.6888 55.4482 97.6792 55.5029 97.6595L78.8161 89.2642C79.0708 89.1729 79.2031 88.8921 79.1111 88.6377C79.019 88.3826 78.7373 88.2508 78.4843 88.3428L55.1711 96.7381C54.9167 96.8294 54.7844 97.1099 54.8764 97.3645Z" fill="#000E3F"/>
<path d="M52.7769 95.8717C52.2703 94.4637 50.711 93.7308 49.3043 94.2379C47.8963 94.745 47.1634 96.3026 47.6705 97.7105C48.0684 98.816 49.1138 99.5047 50.2264 99.5047C50.5308 99.5047 50.8409 99.4532 51.1431 99.3443C52.5511 98.8372 53.284 97.2796 52.7769 95.8717ZM48.5921 97.379C48.2684 96.4793 48.7367 95.4837 49.6358 95.1595C49.8292 95.0899 50.0269 95.057 50.222 95.057C50.9327 95.057 51.6007 95.4976 51.8553 96.2035C52.179 97.1034 51.7108 98.0987 50.8114 98.4229C49.9129 98.7459 48.9163 98.2787 48.5921 97.379Z" fill="#000E3F"/>
<path d="M81.2038 95.895L57.8906 104.29C57.636 104.382 57.5036 104.662 57.5957 104.917C57.6675 105.117 57.8554 105.241 58.0564 105.241C58.1118 105.241 58.1675 105.232 58.2221 105.212L81.5354 96.8166C81.79 96.7251 81.9223 96.4445 81.8303 96.1899C81.7385 95.9353 81.4568 95.8029 81.2038 95.895Z" fill="#000E3F"/>
<path d="M54.0986 101.888C53.4428 101.579 52.7055 101.544 52.0237 101.79C51.3418 102.036 50.7959 102.532 50.4878 103.189C50.1789 103.844 50.1445 104.581 50.3899 105.263C50.7881 106.368 51.8335 107.057 52.9458 107.057C53.2502 107.057 53.56 107.006 53.8625 106.897C54.5444 106.651 55.0903 106.155 55.3984 105.499C55.7072 104.843 55.7417 104.107 55.4961 103.425C55.251 102.742 54.7544 102.196 54.0986 101.888ZM54.5122 105.081C54.3149 105.501 53.967 105.818 53.531 105.975C52.6323 106.298 51.6357 105.83 51.3115 104.931C51.1548 104.495 51.177 104.024 51.3742 103.605C51.5715 103.186 51.9197 102.869 52.3554 102.712C52.5473 102.643 52.7461 102.608 52.9443 102.608C53.1963 102.608 53.447 102.664 53.6814 102.775C54.1008 102.972 54.4179 103.32 54.5747 103.756C54.7317 104.192 54.7092 104.662 54.5122 105.081Z" fill="#000E3F"/>
<path d="M47.5873 46.5598L46.9543 49.5034C46.8793 49.8513 46.9992 50.2126 47.267 50.4468C47.4484 50.6055 47.6786 50.689 47.912 50.689C48.0236 50.689 48.1357 50.6699 48.2441 50.6309L77.6484 40.0425C77.9831 39.9219 78.2263 39.6294 78.2834 39.2781C78.3405 38.9268 78.2026 38.5723 77.923 38.3518L76.8986 37.5435L75.559 36.4871L76.1804 33.5955C76.2026 33.5132 76.215 33.4268 76.215 33.3372C76.215 32.7974 75.7797 32.3596 75.2407 32.3577C75.2385 32.3577 75.236 32.3577 75.2341 32.3577C75.2182 32.3577 75.2023 32.3582 75.1862 32.3589C75.0788 32.364 74.976 32.3865 74.8806 32.4233L45.4977 43.0039C45.1628 43.1245 44.9199 43.4172 44.8627 43.7686C44.8058 44.1199 44.9438 44.4744 45.2231 44.6948L47.5873 46.5598ZM75.2341 33.3374L74.4733 36.8784L76.2924 38.3125L77.3168 39.1208L47.9123 49.7092L48.6735 46.1687L45.8295 43.9258L75.2341 33.3374Z" fill="#000E3F"/>
<path d="M67.8306 58.7524C67.8455 58.7524 67.8608 58.7519 67.8762 58.7502C68.1458 58.7253 68.344 58.4865 68.3191 58.2175C68.2664 57.6528 68.4492 57.2085 68.7729 57.112C69.0994 57.0119 69.5361 57.2771 69.7402 57.4484C69.947 57.6218 70.2563 57.5959 70.4307 57.3881C70.6045 57.1809 70.5774 56.872 70.3706 56.698C70.147 56.5105 69.3528 55.9182 68.4934 56.1731C67.709 56.4069 67.2466 57.2651 67.3433 58.3078C67.3672 58.562 67.5803 58.7524 67.8306 58.7524Z" fill="#000E3F"/>
<path d="M60.2649 62.799C60.2798 62.799 60.2952 62.7986 60.3105 62.7968C60.5801 62.7719 60.7783 62.5332 60.7532 62.2641C60.7007 61.6992 60.8828 61.2551 61.207 61.1584C61.5393 61.0603 61.9697 61.3235 62.1743 61.4951C62.3806 61.6682 62.6904 61.6425 62.8647 61.4348C63.0386 61.2275 63.0115 60.9187 62.8047 60.7446C62.5798 60.5571 61.7795 59.9631 60.9275 60.2195C60.1431 60.4533 59.6807 61.311 59.7773 62.3545C59.8013 62.6086 60.0144 62.799 60.2649 62.799Z" fill="#000E3F"/>
<path d="M65.2697 64.2407C65.5476 64.3249 65.8315 64.3667 66.1137 64.3667C66.5842 64.3664 67.0503 64.2507 67.477 64.0227C68.1594 63.6577 68.6591 63.0488 68.8838 62.3081C69.1081 61.5673 69.0305 60.7834 68.6657 60.101C68.5376 59.8627 68.2426 59.7717 68.0024 59.9001C67.7644 60.0275 67.674 60.3244 67.8015 60.5627C68.0432 61.0144 68.0944 61.5334 67.946 62.0236C67.7973 62.5139 67.4668 62.9167 67.0144 63.1587C66.5622 63.3996 66.0429 63.4511 65.5539 63.3029C65.0639 63.1543 64.6606 62.8239 64.4191 62.372C64.291 62.1338 63.9956 62.0424 63.7558 62.1711C63.5178 62.2985 63.4275 62.5954 63.5549 62.834C63.9204 63.5168 64.5293 64.0161 65.2697 64.2407Z" fill="#000E3F"/>
<path d="M63.6916 72.5142C64.3777 72.6362 65.0784 72.6982 65.7734 72.6982C67.7114 72.6982 69.645 72.2119 71.3652 71.292C74.1623 69.7959 76.2092 67.3003 77.1296 64.2646C78.0495 61.229 77.7324 58.0164 76.2363 55.219C74.6609 52.2744 71.8989 50.1179 68.6577 49.3025C67.708 49.0635 66.7312 48.9424 65.7546 48.9424C63.8162 48.9426 61.8828 49.4287 60.1636 50.3481C57.3667 51.8442 55.3196 54.3398 54.3994 57.3757C53.4795 60.4116 53.7966 63.6238 55.2925 66.4209C57.0195 69.6506 60.081 71.8713 63.6916 72.5142ZM60.6255 51.2122C62.261 50.3372 64.0203 49.9224 65.7541 49.9224C66.656 49.9224 67.551 50.0347 68.4187 50.2529C71.2934 50.9761 73.8642 52.8621 75.3723 55.6814C78.2109 60.9885 76.2092 67.5903 70.9031 70.4282C69.2671 71.3032 67.5078 71.7187 65.7734 71.7187C65.1306 71.7187 64.4919 71.6616 63.8633 71.5498C60.689 70.9846 57.7952 69.0237 56.156 65.9592C53.3181 60.6531 55.3191 54.0503 60.6255 51.2122Z" fill="#000E3F"/>
<path d="M43.588 55.2012C43.8118 54.7258 43.7479 54.1751 43.4207 53.7637L41.6976 51.5974L42.5055 48.9495C42.6336 48.5295 42.5579 48.0872 42.2972 47.7351C42.0391 47.3862 41.6273 47.178 41.1964 47.178C41.0321 47.178 40.87 47.2073 40.7149 47.2654L38.1219 48.2346L35.8536 46.6482C35.6209 46.4858 35.3499 46.3999 35.0692 46.3999C34.6966 46.3999 34.3343 46.5547 34.076 46.8247C33.816 47.0962 33.682 47.4534 33.6983 47.8308L33.8189 50.5964L31.609 52.2637C31.1893 52.5803 30.9898 53.0979 31.0882 53.614C31.1864 54.1301 31.5618 54.5381 32.068 54.6787L34.7357 55.4187L35.6383 58.0356C35.8287 58.5879 36.3497 58.9592 36.9351 58.9592C37.3953 58.9592 37.8221 58.7295 38.0767 58.345L39.6048 56.0369L42.3724 55.9871C42.898 55.9778 43.3638 55.6768 43.588 55.2012ZM39.2779 55.0632C39.1492 55.0657 39.0301 55.1311 38.9588 55.2383L37.2598 57.8047C37.1812 57.9233 37.0579 57.98 36.9351 57.98C36.7786 57.98 36.6236 57.8882 36.5645 57.7163L35.5609 54.8069C35.5189 54.6853 35.4198 54.592 35.2957 54.5576L32.3302 53.7349C32.0179 53.6482 31.9405 53.241 32.1991 53.0459L34.6561 51.1924C34.7589 51.115 34.8167 50.9919 34.8114 50.8633L34.6771 47.7886C34.6668 47.5505 34.8602 47.3799 35.0692 47.3799C35.1444 47.3799 35.2218 47.4021 35.2921 47.4512L37.8138 49.2151C37.8804 49.2617 37.9588 49.2856 38.0382 49.2856C38.0841 49.2856 38.1307 49.2776 38.1751 49.261L41.0579 48.1833C41.1046 48.1658 41.1514 48.158 41.1966 48.158C41.4451 48.158 41.6488 48.4016 41.5689 48.6638L40.6707 51.6074C40.6331 51.7305 40.6585 51.8643 40.7386 51.9648L42.6546 54.3735C42.8563 54.6272 42.6795 55.002 42.3553 55.0078L39.2779 55.0632Z" fill="#000E3F"/>
<path d="M42.8177 60.6179L40.8143 61.063C40.3333 61.1699 39.9617 61.5337 39.8446 62.0122C39.7276 62.491 39.8892 62.9851 40.2667 63.302L41.8387 64.6216L41.6429 66.6643C41.6087 67.0242 41.7276 67.3836 41.9698 67.6502C42.2139 67.9187 42.5616 68.0728 42.9232 68.0728C43.1629 68.0728 43.398 68.0051 43.6031 67.8772L45.3436 66.7898L47.2261 67.6072C47.3895 67.6782 47.5621 67.7141 47.7391 67.7141C48.1304 67.7141 48.5091 67.5291 48.7518 67.2188C48.9962 66.9058 49.0816 66.5046 48.9857 66.1179L48.4893 64.1262L49.8482 62.5886C50.1746 62.2197 50.2615 61.7068 50.0748 61.2507C49.888 60.7944 49.4666 60.4895 48.9747 60.4553L46.9278 60.3118L45.8858 58.5442C45.6517 58.148 45.2379 57.9116 44.7789 57.9116C44.2515 57.9116 43.7838 58.2273 43.5865 58.7156L42.8177 60.6179ZM44.4949 59.0823C44.5457 58.9565 44.6622 58.8911 44.7791 58.8911C44.8804 58.8911 44.9822 58.9402 45.0421 59.0415L46.2642 61.1145C46.3155 61.2012 46.4058 61.2571 46.5064 61.2642L48.9068 61.4324C49.1597 61.4502 49.2825 61.75 49.1146 61.9399L47.5211 63.7429C47.4544 63.8184 47.429 63.9216 47.4532 64.0195L48.0352 66.3545C48.0855 66.5569 47.9268 66.7346 47.7393 66.7346C47.699 66.7346 47.6575 66.7266 47.6165 66.7087L45.4092 65.7502C45.3702 65.7332 45.3287 65.7249 45.2877 65.7249C45.231 65.7249 45.1746 65.7405 45.1256 65.7712L43.0848 67.0461C43.033 67.0786 42.9774 67.0933 42.9234 67.0933C42.7542 67.0933 42.5999 66.949 42.6185 66.7578L42.848 64.3623C42.8575 64.2622 42.8172 64.1636 42.7401 64.0989L40.897 62.5518C40.703 62.3887 40.7799 62.0742 41.0272 62.019L43.3763 61.4971C43.4747 61.4753 43.5557 61.4065 43.5933 61.3132L44.4949 59.0823Z" fill="#000E3F"/>
<path d="M47.0193 80.5786C47.2243 80.7012 47.458 80.7659 47.6948 80.7659C48.0713 80.7659 48.4311 80.604 48.6823 80.3218C48.9316 80.0417 49.0498 79.6667 49.0058 79.2927L48.7361 76.9705L50.4966 75.4309C50.8777 75.0979 51.0334 74.5874 50.9033 74.0984C50.7734 73.6094 50.3843 73.2437 49.8884 73.144L47.5957 72.6831L46.6758 70.533C46.4677 70.0466 45.9914 69.7324 45.4621 69.7324C44.9863 69.7324 44.5459 69.9902 44.3125 70.4053L43.1657 72.4426L40.8366 72.6531C40.3327 72.6985 39.9065 73.02 39.7246 73.4922C39.5422 73.9641 39.6418 74.4888 39.9846 74.8608L41.5688 76.5813L41.0493 78.8616C40.9594 79.2549 41.0517 79.6614 41.3027 79.9761C41.5554 80.293 41.9316 80.4749 42.3349 80.4749C42.5254 80.4749 42.7107 80.4341 42.8855 80.354L45.0115 79.3794L47.0193 80.5786ZM42.4768 79.4639C42.4294 79.4856 42.3811 79.4956 42.3347 79.4956C42.1291 79.4956 41.9531 79.3035 42.0041 79.0796L42.5984 76.4714C42.6233 76.3623 42.5927 76.2481 42.5171 76.1658L40.7053 74.1978C40.5144 73.9905 40.6443 73.6545 40.9248 73.6292L43.5888 73.3884C43.7004 73.3784 43.7995 73.3142 43.8547 73.2166L45.1667 70.8855C45.2322 70.769 45.3474 70.7124 45.4621 70.7122C45.5896 70.7122 45.717 70.7822 45.7751 70.9185L46.8274 73.3777C46.8713 73.4805 46.9631 73.5552 47.0727 73.5772L49.6953 74.1045C49.9714 74.1599 50.0642 74.5081 49.852 74.6934L47.8384 76.4541C47.7541 76.5278 47.7116 76.6382 47.7243 76.7493L48.0332 79.4062C48.0581 79.6208 47.886 79.7861 47.695 79.7861C47.6374 79.7861 47.5779 79.771 47.5215 79.7373L45.2243 78.3662C45.1709 78.3342 45.1106 78.3181 45.0503 78.3181C45.0019 78.3181 44.9536 78.3284 44.9087 78.3491L42.4768 79.4639Z" fill="#000E3F"/>
<path d="M107.409 23.7856L109.198 19.7162C110.492 19.225 111.999 19.3061 113.37 20.1374C113.486 20.2057 113.599 20.2814 113.711 20.3608C114.454 20.8857 114.989 21.5993 115.309 22.3996L113.518 26.4723C113.438 26.4199 113.354 26.3744 113.264 26.3347L107.682 23.8796C107.592 23.84 107.502 23.8093 107.409 23.7856Z" fill="#FF99E1"/>
<path d="M107.408 23.7856L109.198 19.7162C110.491 19.225 111.998 19.3061 113.369 20.1374C113.486 20.2057 113.599 20.2814 113.711 20.3608C114.454 20.8857 114.989 21.5993 115.309 22.3996L113.518 26.4723C113.437 26.4199 113.354 26.3744 113.263 26.3347L107.681 23.8796C107.591 23.84 107.501 23.8093 107.408 23.7856Z" fill="#6280FF"/>
<path d="M105.332 24.7712C102.295 24.178 97.6311 24.5776 96.5669 27.1465C91.2461 39.9878 90.0203 43.6855 87.2454 51.9729C87.1707 52.1963 87.3369 52.4687 87.626 52.5957C87.6492 52.5991 88.0667 52.7903 88.3032 52.511C88.6082 52.1514 89.2334 51.5898 90.1353 51.6423C91.272 51.7082 91.3706 50.5227 91.218 49.7834C90.9937 48.698 90.4168 47.81 90.752 46.7485C91.5237 44.3044 95.3994 35.1804 97.0667 32.0505C98.2351 29.8572 100.65 30.3313 102.765 30.6086L105.332 24.7712Z" fill="#6280FF"/>
<path d="M101.993 32.8729C102.682 31.3145 103.419 29.6514 104.21 27.8729C104.695 26.7789 105.203 25.6417 105.731 24.4571C106.027 23.7935 106.897 23.5362 107.681 23.8812L113.262 26.336C114.045 26.6802 114.444 27.4954 114.156 28.1624C112.801 31.2877 111.583 34.0814 110.481 36.6007C105.284 48.4742 102.638 54.2327 100.118 59.7503C98.9884 62.223 97.8834 64.6478 96.5858 67.5528C92.389 76.9698 92.358 76.4334 90.2059 80.0377C90.0995 80.2176 89.9874 80.4061 89.8697 80.6065C87.3466 84.8468 85.0004 87.2376 84.191 88.1888C84.1427 88.2442 84.0919 88.2933 84.0365 88.3365C84.0365 88.3365 84.0365 88.3365 84.0343 88.3375C83.7731 88.5408 83.4315 88.6063 83.0892 88.5655C82.9288 88.5479 82.7662 88.5057 82.6141 88.4444C82.149 88.2215 81.7743 87.8099 81.7345 87.3262C81.7338 87.3241 81.7338 87.324 81.7338 87.324C81.7281 87.254 81.7281 87.1827 81.7382 87.1102C81.8922 85.8707 82.069 82.5255 83.4889 77.8004C83.5572 77.5782 83.6205 77.3682 83.681 77.168C84.8832 73.1461 84.4669 73.4857 88.5702 64.0274C89.8263 61.1261 90.8629 58.6859 91.9152 56.1976C94.2848 50.5972 96.7403 44.7567 101.993 32.8729Z" fill="#6280FF"/>
<path opacity="0.75" d="M96.8057 29.4339C98.367 26.2708 101.992 25.8097 101.936 26.5352C101.905 26.9376 100.999 26.7791 99.3347 27.9547C97.6678 29.089 97.1553 30.078 96.8352 29.6915C96.774 29.6168 96.7659 29.5152 96.8057 29.4339Z" fill="white"/>
<path d="M81.7344 87.3257C81.774 87.8093 82.1487 88.2209 82.6141 88.4438C83.094 88.6367 83.6509 88.6348 84.0342 88.3372C83.9805 88.4507 83.9139 88.5566 83.8392 88.6555L82.1111 90.9214C81.9197 91.1736 81.6465 91.271 81.4168 91.1699C81.1853 91.0681 81.0726 90.801 81.1292 90.4893L81.6316 87.6843C81.6538 87.5627 81.6871 87.4419 81.7344 87.3257Z" fill="#FF99E1"/>
<path d="M91.9153 56.1975C92.0239 59.1597 91.7563 63.4595 93.2622 64.1182C94.8042 64.7944 97.8406 61.6614 100.118 59.7505C98.9885 62.2231 97.8835 64.6479 96.5859 67.553C92.3892 76.97 92.3582 76.4336 90.2061 80.0378C89.2983 79.5034 88.2358 78.9429 87.0271 78.4111C85.8198 77.8801 84.6902 77.4766 83.6812 77.168C84.8833 73.146 84.467 73.4856 88.5703 64.0273C89.8264 61.1257 90.863 58.6855 91.9153 56.1975Z" fill="#FF99E1"/>
<path d="M101.993 32.8726C103.105 30.356 104.343 27.5687 105.731 24.4569C106.027 23.7933 106.897 23.536 107.681 23.8809L113.262 26.3358C114.045 26.68 114.444 27.4952 114.156 28.1622C112.802 31.2874 111.584 34.0811 110.481 36.6004C109.45 35.8397 108.147 35.0255 106.566 34.3189C104.882 33.5675 103.31 33.1285 101.993 32.8726Z" fill="#FF99E1"/>
<path d="M109.198 19.7162L109.695 18.5861C109.733 18.4994 109.775 18.4144 109.819 18.3346L109.821 18.331C109.866 18.2475 109.913 18.1691 109.966 18.0888C110.321 17.5468 110.814 17.1303 111.379 16.8747C111.46 16.8371 111.543 16.8048 111.625 16.776C111.637 16.7682 111.651 16.7658 111.662 16.7619C111.733 16.7372 111.802 16.716 111.876 16.6964C111.881 16.6945 111.884 16.6959 111.886 16.6923C111.968 16.6723 112.055 16.6503 112.143 16.6371C112.229 16.6188 112.32 16.6071 112.409 16.5993C112.42 16.5951 112.432 16.5963 112.441 16.5961C112.518 16.5871 112.598 16.5829 112.679 16.5844C112.762 16.5819 112.843 16.5834 112.926 16.5897C112.935 16.5893 112.944 16.5888 112.951 16.5919C113.043 16.598 113.134 16.6076 113.226 16.6225C113.347 16.6413 113.465 16.6671 113.585 16.6984C113.621 16.7055 113.658 16.7177 113.696 16.7301C113.754 16.7467 113.809 16.767 113.865 16.7872C113.935 16.8139 114.006 16.8405 114.074 16.8705C114.298 16.9689 114.518 17.0958 114.736 17.2477C116.006 18.151 116.432 19.8468 115.805 21.2731L115.309 22.3996C114.989 21.5993 114.454 20.8859 113.711 20.3607C113.599 20.2814 113.486 20.2057 113.37 20.1373C111.999 19.306 110.492 19.2252 109.198 19.7162Z" fill="#FF99E1"/>
<path d="M100.072 54.3789C99.4936 54.9043 98.8908 54.8035 98.6338 54.3391C97.8777 52.9741 99.5847 50.4798 100.624 51.5169C101.13 52.021 100.996 53.5413 100.072 54.3789Z" fill="#FC09B2"/>
<path d="M104.459 44.407C104.455 43.6253 103.973 43.2493 103.457 43.3734C101.94 43.7383 101.255 46.6827 102.722 46.7479C103.435 46.7796 104.465 45.6534 104.459 44.407Z" fill="#FC09B2"/>
<g opacity="0.25">
<g opacity="0.25">
<path opacity="0.25" d="M104.21 27.8731C104.695 26.7791 105.203 25.6419 105.731 24.4573C106.027 23.7938 106.897 23.5365 107.681 23.8814L113.262 26.3363C114.045 26.6805 114.444 27.4957 114.156 28.1627C112.802 31.2879 111.584 34.0816 110.481 36.6009C105.284 48.4744 102.638 54.233 100.118 59.7506C98.9885 62.2232 97.8836 64.648 96.5859 67.553C92.3892 76.97 92.3582 76.4337 90.2061 80.0379C90.0996 80.2178 89.9876 80.4063 89.8699 80.6068C87.3467 84.847 85.0005 87.2379 84.1912 88.189C84.1428 88.2444 84.092 88.2935 84.0366 88.3367C84.0366 88.3367 84.0366 88.3367 84.0344 88.3377C83.7732 88.5411 83.4316 88.6065 83.0894 88.5657C90.9197 73.784 115.611 32.6676 104.21 27.8731Z" fill="#000E3F"/>
</g>
<g opacity="0.25">
<path opacity="0.25" d="M113.226 16.623C113.347 16.6418 113.465 16.6677 113.585 16.699C113.621 16.7061 113.658 16.7183 113.696 16.7307C113.754 16.7473 113.809 16.7676 113.865 16.7878C113.935 16.8145 114.006 16.8411 114.074 16.8711C114.298 16.9695 114.518 17.0964 114.736 17.2483C116.006 18.1516 116.432 19.8474 115.805 21.2737L113.518 26.4729C113.438 26.4204 113.354 26.375 113.264 26.3352L110.982 25.3315C111.844 24.095 112.958 22.1892 113.37 20.1379C113.607 18.9797 113.615 17.7766 113.226 16.623Z" fill="#000E3F"/>
</g>
</g>
<path d="M97.7404 50.7517C97.1198 50.4795 96.4996 50.779 96.2382 51.3286C95.9772 51.8674 96.2872 52.6511 96.8207 52.8088C97.3595 53.0972 98.0453 52.7871 98.2902 52.2754C98.5892 51.6499 98.2465 50.9695 97.7404 50.7517Z" fill="#000E3F"/>
<path d="M101.093 43.0511C100.527 42.8172 99.8627 43.0945 99.6178 43.6497C99.3674 44.221 99.6232 44.8907 100.233 45.1519C100.744 45.375 101.479 45.1248 101.692 44.5369C101.947 44.0686 101.675 43.2906 101.093 43.0511Z" fill="#000E3F"/>
<path d="M115.302 16.449C115.019 16.2532 114.742 16.0952 114.47 15.9756C114.383 15.9375 114.301 15.9048 114.214 15.8723C114.127 15.8396 114.056 15.8179 113.986 15.7961C113.925 15.7744 113.871 15.7581 113.811 15.7473C113.659 15.7092 113.517 15.6765 113.376 15.6548C113.273 15.6384 113.164 15.6277 113.055 15.6167C113.022 15.6167 112.989 15.6113 112.962 15.6113C112.891 15.606 112.821 15.606 112.755 15.606H112.647C112.554 15.606 112.462 15.6113 112.369 15.6167C112.336 15.6221 112.304 15.6221 112.271 15.6277C112.162 15.6387 112.059 15.6548 111.966 15.6768C111.863 15.6931 111.765 15.7148 111.667 15.7366C111.651 15.7419 111.629 15.7476 111.607 15.7529C111.52 15.7803 111.438 15.802 111.351 15.8345C111.33 15.8398 111.297 15.8508 111.253 15.8672C111.155 15.9053 111.063 15.9434 110.965 15.9868C110.23 16.3188 109.599 16.863 109.147 17.5542C109.076 17.6577 109.017 17.7556 108.962 17.8645C108.956 17.8699 108.951 17.8809 108.946 17.8862C108.897 17.9841 108.842 18.0876 108.799 18.1912L106.79 22.7573C106.045 22.8064 105.397 23.1655 105.016 23.7368C104.967 23.7205 104.924 23.7095 104.875 23.7041C104.178 23.6062 103.46 23.5518 102.73 23.5518C97.5549 23.5518 96.0637 25.8049 95.6611 26.7737C90.3928 39.4924 89.1464 43.2095 86.4201 51.3621L86.3168 51.6614C86.0771 52.3633 86.4692 53.158 87.2309 53.4954C87.2692 53.5117 87.3071 53.5225 87.3452 53.5334C87.4921 53.5825 87.6992 53.6423 87.9494 53.6423C88.3901 53.6423 88.7819 53.4627 89.0541 53.1416C89.2499 52.9075 89.5876 52.6191 90.0175 52.6191C90.0393 52.6191 90.0556 52.6191 90.0773 52.6245H90.2243C90.8447 52.6245 91.3835 52.3796 91.748 51.9333C92.423 51.1062 92.249 49.925 92.1779 49.5876C92.0964 49.2068 91.9877 48.8584 91.884 48.5481C91.6662 47.8733 91.552 47.4705 91.6828 47.0405C92.4394 44.6567 96.2978 35.5735 97.9306 32.5149C98.3715 31.6821 99.0517 31.3447 100.271 31.3447C100.685 31.3447 101.131 31.3828 101.56 31.4373C101.403 31.791 101.25 32.1394 101.098 32.4824C96.1127 43.7588 93.5983 49.7019 91.3832 54.9482L91.0134 55.8191C89.7831 58.7307 88.7819 61.071 87.6716 63.6397C84.2919 71.4331 83.9492 72.6411 83.2687 75.0522C83.1218 75.5747 82.9584 76.1624 82.7407 76.8862C82.7026 77.0278 82.6591 77.1638 82.6154 77.2998L82.55 77.512C81.0915 82.3611 80.7485 87.0252 80.7485 87.1775C80.6559 87.4658 80.6726 87.5256 80.1662 90.3176C80.0302 91.0796 80.373 91.7815 81.0205 92.0701C81.2058 92.1516 81.4016 92.1899 81.603 92.1899C82.0927 92.1899 82.5607 91.9451 82.8874 91.5151C84.5476 89.3274 84.6452 89.2512 84.8083 88.9573C85.9514 87.8252 88.5747 84.6961 90.7133 81.1094C90.7949 80.9624 90.8659 80.8372 90.9365 80.7229L91.0507 80.5325C91.4318 79.8904 91.7529 79.3787 92.0358 78.916C93.3527 76.7881 94.0168 75.7214 97.4782 67.9553C98.7951 65.0002 99.9438 62.4802 101.01 60.1565L101.375 59.3511C103.748 54.1699 106.431 48.2979 111.378 36.9941C112.483 34.4744 113.696 31.6824 115.057 28.5532C115.383 27.7803 115.226 26.9043 114.692 26.2349L116.7 21.6687C117.523 19.8015 116.935 17.6082 115.302 16.449ZM100.271 30.365C98.9702 30.365 97.7836 30.708 97.0654 32.0522C95.3998 35.1816 91.5251 44.303 90.7521 46.7466C90.4147 47.8132 90.9916 48.7004 91.2148 49.7834C91.3671 50.5017 91.2746 51.6448 90.2241 51.6448H90.1372C90.0939 51.6448 90.0556 51.6394 90.0175 51.6394C89.1794 51.6394 88.5915 52.1672 88.3032 52.51C88.205 52.6299 88.0744 52.6624 87.9494 52.6624C87.7861 52.6624 87.6391 52.5972 87.6281 52.5972C87.3398 52.4719 87.1711 52.1943 87.2473 51.9714C90.0227 43.6882 91.2473 39.9873 96.5644 27.1489C97.3537 25.2441 100.118 24.5313 102.731 24.5313C103.362 24.5313 103.988 24.5747 104.57 24.6509L103.313 27.4753L103.139 27.8672C102.747 28.7598 102.36 29.6196 101.996 30.4578L101.974 30.5012C101.408 30.4302 100.826 30.365 100.271 30.365ZM82.1098 90.9216C81.9685 91.1067 81.7834 91.2102 81.6039 91.2102C81.5385 91.2102 81.4787 91.1992 81.4135 91.1721C81.185 91.0686 81.0761 90.802 81.1306 90.492L81.4355 88.794C81.8872 89.2456 82.5078 89.5505 83.1606 89.5505L82.1098 90.9216ZM114.16 28.1609C112.799 31.2903 111.585 34.082 110.481 36.6018C105.283 48.4714 102.638 54.2351 100.119 59.7481C98.9865 62.2188 97.8818 64.646 96.5864 67.5522C92.3903 76.9675 92.3576 76.4341 90.2026 80.0369C90.0993 80.2166 89.9848 80.407 89.8706 80.6084C87.7534 84.1677 85.756 86.4209 84.6948 87.6182C84.1398 88.2495 84.1616 88.2332 84.0363 88.3364C84.0363 88.3364 84.0363 88.3364 84.031 88.3364C83.7968 88.5378 83.3559 88.603 83.2199 88.5706C83.1762 88.5706 83.1274 88.5706 83.0893 88.5652C82.3547 88.489 81.6743 87.874 81.7341 87.1121C81.854 86.2251 82.0498 82.5676 83.4865 77.8003C83.5573 77.5772 83.6225 77.3704 83.6772 77.169C84.8852 73.147 84.4663 73.4844 88.5698 64.0313C89.8269 61.125 90.8666 58.6868 91.9169 56.1997C94.2841 50.5996 96.7387 44.76 101.991 32.874C102.214 32.3733 102.442 31.8618 102.671 31.3447C102.742 31.1814 102.818 31.0183 102.889 30.855C103.313 29.8972 103.754 28.9067 104.211 27.8726C104.619 26.9529 105.044 25.9949 105.485 25.0044C105.555 24.8467 105.626 24.6833 105.702 24.52C105.708 24.4983 105.719 24.4766 105.729 24.4548C105.865 24.1555 106.116 23.9377 106.432 23.8289C106.595 23.7637 106.78 23.731 106.97 23.731C107.112 23.731 107.258 23.7473 107.411 23.7854C107.504 23.8071 107.591 23.8398 107.683 23.8779L113.262 26.3379C113.354 26.376 113.436 26.4194 113.517 26.4739C113.811 26.6643 114.034 26.9255 114.149 27.2195C114.274 27.5239 114.29 27.8616 114.16 28.1609ZM115.803 21.2708L113.915 25.5701C113.833 25.5212 113.746 25.4775 113.659 25.4395L108.075 22.9849C107.988 22.9414 107.901 22.9087 107.808 22.887L109.697 18.5876C109.735 18.5005 109.773 18.4133 109.817 18.3318H109.822C109.865 18.25 109.915 18.1685 109.964 18.0869C110.323 17.5481 110.813 17.1292 111.379 16.8733C111.46 16.8352 111.542 16.8027 111.624 16.7754C111.634 16.77 111.651 16.7644 111.662 16.7644C111.733 16.7371 111.803 16.7153 111.874 16.6992C111.88 16.6938 111.885 16.6938 111.885 16.6938C111.967 16.6721 112.054 16.6501 112.141 16.6394C112.228 16.6177 112.32 16.6067 112.407 16.6013C112.418 16.5959 112.435 16.5959 112.44 16.5959C112.511 16.5906 112.576 16.585 112.647 16.585H112.756C112.81 16.585 112.87 16.585 112.924 16.5903C112.93 16.5903 112.935 16.5903 112.935 16.5903H112.952C113.044 16.5957 113.131 16.6067 113.224 16.623C113.349 16.6394 113.463 16.6667 113.583 16.6992C113.621 16.7046 113.659 16.7156 113.697 16.7319C113.752 16.7483 113.811 16.7644 113.866 16.7864C113.937 16.8137 114.008 16.8408 114.073 16.8733C114.296 16.9714 114.519 17.0964 114.737 17.2488C116.005 18.1523 116.429 19.845 115.803 21.2708Z" fill="#000E3F"/>
<path d="M100.113 46.0605C99.8682 45.9516 99.5794 46.0659 99.4707 46.3164C99.3672 46.5612 99.4817 46.8498 99.7263 46.9584C100.363 47.2307 100.918 47.9055 100.684 48.613C100.597 48.8959 100.401 49.0974 100.118 49.2226C99.7212 49.3913 99.1877 49.3696 98.7688 49.1735C98.5186 49.0539 98.23 49.1572 98.1157 49.402C97.9961 49.6469 98.0996 49.9409 98.3442 50.0551C98.7087 50.2292 99.1169 50.3164 99.52 50.3164C99.8628 50.3164 100.206 50.2509 100.505 50.1203C101.044 49.8864 101.441 49.4619 101.621 48.9177C102.028 47.655 101.152 46.5014 100.113 46.0605Z" fill="#000E3F"/>
<path d="M26.5179 27.9644C27.1285 27.3216 27.6768 26.7947 27.9046 26.2425C28.1307 25.6946 27.4803 25.2059 27.0492 25.5372C26.3436 26.0789 25.5706 27.303 25.3558 27.2217C25.1441 27.1416 25.2386 26.8523 25.2359 26.6509C25.221 25.5301 25.3045 24.8455 25.1622 24.1136C25.054 23.5579 24.1461 23.6358 24.034 24.1167C23.9261 24.5811 23.9847 25.1023 23.9505 27.5035C23.939 28.2991 23.3004 27.6988 22.432 27.1272C21.939 26.803 21.1785 26.5789 20.9356 27.1138C20.7352 27.555 21.1246 27.8233 21.524 28.1031C23.6268 29.5755 23.6715 29.1604 20.6583 29.9969C20.1048 30.1504 19.4376 30.3875 19.6322 30.9466C19.8304 31.5171 20.4757 31.2781 21.7801 30.9839C21.9515 30.9454 22.1124 30.8501 22.2845 30.8252C22.6651 30.7703 23.0208 30.5728 23.4195 30.6268C23.4849 31.0957 23.0736 31.346 22.9119 31.7115C22.6529 32.2972 22.1619 32.5713 22.2982 33.2386C22.3512 33.4983 22.6163 33.6622 22.8573 33.5635C24.0333 33.0821 24.3006 31.1314 24.8018 32.2149C25.4493 33.615 25.5474 33.9627 25.9329 34.4866C26.2967 34.9808 26.9937 34.6568 26.879 34.0594C26.6886 33.0684 25.7064 31.3904 25.898 31.2041C26.098 31.0098 27.8639 32.587 28.5496 32.6102C29.0455 32.627 29.2681 32.1966 29.0345 31.8301C28.6793 31.273 28.3678 31.1653 26.973 30.1924C26.8646 30.1167 26.7066 30.0418 26.766 29.8748C26.8192 29.7251 26.9859 29.7139 27.1214 29.6939C27.8072 29.5933 29.356 29.3892 29.4273 29.3692C30.0977 29.1792 30.0045 28.0999 29.2396 28.1795C26.5811 28.4559 25.8765 28.7991 26.534 27.98C26.5284 27.9744 26.523 27.9695 26.5179 27.9644Z" fill="#FDD502"/>
<path d="M5.5798 32.286C6.20187 31.5929 7.08053 30.7399 6.51583 30.307C6.12252 30.0052 5.83444 30.367 5.47335 30.7826C5.26656 31.0206 4.75387 31.7555 4.61495 31.7071C4.42477 31.6412 4.54244 31.5416 4.47213 29.8605C4.45138 29.3683 4.4089 28.8033 3.92233 28.8736C3.25802 28.9696 3.43673 29.2074 3.4753 31.9696C3.48458 32.619 2.94967 32.1437 2.22823 31.6979C1.81857 31.4447 1.19332 31.2796 1.00753 31.7213C0.853967 32.0865 1.17989 32.297 1.51022 32.5145C3.259 33.6669 3.28634 33.3273 0.848107 34.079C0.400353 34.2171 -0.138465 34.4256 0.0331657 34.8773C0.329308 35.6573 2.41695 34.4547 3.11446 34.5289C3.17867 34.91 2.84908 35.1236 2.72555 35.4254C2.52755 35.909 2.13351 36.1429 2.26022 36.6849C2.39205 37.2496 3.03707 36.8668 3.36886 36.3788C4.22384 35.1214 3.93575 35.1805 4.92623 37.1114C5.12448 37.4979 5.40621 37.9571 5.78976 37.7609C6.20284 37.5494 5.99142 37.0631 5.79098 36.5963C4.90084 34.5255 4.60568 34.5199 6.77975 35.8299C7.73971 36.4083 8.33859 35.5687 7.09469 34.7938C5.24654 33.6422 5.38058 33.8026 7.561 33.4383C7.76608 33.4042 8.46408 33.3951 8.32052 32.7462C8.26779 32.5072 8.08175 32.3614 7.80441 32.3981C5.64474 32.6847 5.07589 32.9828 5.59323 32.298C5.58859 32.2941 5.58419 32.2901 5.5798 32.286Z" fill="#FDD502"/>
<path d="M7.73987 56.8351C8.5155 56.7628 9.18298 56.7313 9.65295 56.4977C10.1193 56.2657 9.97155 55.5665 9.49475 55.5365C8.71521 55.4872 7.49548 55.8497 7.40051 55.672C7.30676 55.4967 7.5365 55.3597 7.65124 55.225C8.28943 54.475 8.7406 54.0702 9.06946 53.5035C9.31921 53.0733 8.67346 52.5997 8.32141 52.8534C7.98205 53.098 7.72204 53.4735 6.30798 55.0458C5.84045 55.5658 5.76501 54.7989 5.52087 53.9188C5.3822 53.419 5.00866 52.8314 4.53894 53.0448C4.15027 53.2213 4.25427 53.6258 4.35608 54.0394C4.89587 56.2291 5.16565 55.9806 2.6886 54.7918C2.23352 54.5736 1.65515 54.3443 1.46032 54.827C1.25647 55.3324 1.87219 55.5584 2.85974 56.0936C2.99548 56.1671 3.1571 56.1971 3.28528 56.2804C3.56872 56.4642 3.91833 56.5392 4.151 56.8053C3.92297 57.1534 3.50622 57.0812 3.18811 57.2296C2.67785 57.4671 2.19494 57.3648 1.89905 57.8849C1.78406 58.0873 1.86462 58.3492 2.08093 58.4232C3.13635 58.784 4.44226 57.6483 4.14734 58.6551C3.69348 60.2035 3.27136 61.1397 3.90198 61.3165C4.38318 61.4515 4.57165 60.9125 4.75476 60.3971C5.56775 58.1036 5.33264 57.8763 6.0968 60.5145C6.42248 61.6388 7.52844 61.4781 7.10364 59.9256C6.48449 57.6615 6.47619 57.8902 8.46374 59.1952C8.59289 59.2801 8.71448 59.381 8.85315 59.4464C9.40588 59.7083 9.96936 58.9408 9.41662 58.5509C7.50573 57.202 6.82776 57.0187 7.74206 56.8546C7.74109 56.8478 7.74035 56.8417 7.73987 56.8351Z" fill="#FDD502"/>
<path d="M120.917 89.1094C121.604 89.6689 122.172 90.175 122.74 90.3601C123.304 90.5434 123.741 89.8574 123.378 89.4531C122.783 88.7912 121.503 88.1145 121.568 87.894C121.632 87.6767 121.928 87.7488 122.128 87.7307C123.245 87.6299 123.933 87.6606 124.653 87.4624C125.199 87.312 125.051 86.4126 124.563 86.3379C124.092 86.2661 123.576 86.3642 121.18 86.5144C120.386 86.5642 120.935 85.8811 121.439 84.9714C121.724 84.4551 121.889 83.6797 121.337 83.4785C120.882 83.3125 120.644 83.7214 120.396 84.1408C119.089 86.3503 119.506 86.3633 118.441 83.4231C118.246 82.883 117.959 82.2358 117.416 82.4726C116.862 82.7141 117.15 83.3391 117.543 84.6172C117.595 84.7851 117.702 84.9382 117.74 85.1079C117.824 85.4831 118.048 85.8225 118.025 86.2243C117.563 86.3254 117.282 85.9348 116.905 85.8015C116.301 85.5881 115.99 85.1196 115.335 85.3066C115.08 85.3794 114.937 85.6562 115.054 85.8889C115.624 87.0244 117.59 87.1416 116.548 87.7243C115.201 88.4773 114.862 88.6018 114.37 89.0263C113.905 89.427 114.281 90.0972 114.868 89.9368C115.842 89.6709 117.44 88.5627 117.64 88.7397C117.849 88.9241 116.412 90.8056 116.441 91.4914C116.463 91.987 116.909 92.176 117.256 91.915C117.784 91.5183 117.868 91.1992 118.731 89.7339C118.798 89.6201 118.861 89.4568 119.032 89.5032C119.185 89.5447 119.21 89.7102 119.24 89.8437C119.392 90.5198 119.715 92.0486 119.74 92.1179C119.981 92.772 121.05 92.5959 120.912 91.8396C120.433 89.2102 120.036 88.5339 120.903 89.1267C120.908 89.1206 120.912 89.115 120.917 89.1094Z" fill="#FDD502"/>
<path d="M110.872 72.9093C111.611 73.4764 112.528 74.287 112.917 73.6908C113.187 73.2752 112.805 73.016 112.363 72.6878C112.109 72.4998 111.338 72.0453 111.375 71.9029C111.426 71.7081 111.535 71.818 113.205 71.6187C113.694 71.5604 114.254 71.4747 114.147 70.9947C114 70.3397 113.777 70.536 111.026 70.7865C110.379 70.8453 110.812 70.2757 111.201 69.5221C111.422 69.0943 111.539 68.4581 111.084 68.3067C110.708 68.1815 110.524 68.5228 110.332 68.8687C109.317 70.7008 109.658 70.702 108.721 68.3284C108.549 67.8927 108.3 67.3714 107.863 67.577C107.108 67.9322 108.467 69.9215 108.447 70.6226C108.072 70.7159 107.833 70.4036 107.523 70.3038C107.026 70.1436 106.762 69.7686 106.232 69.9364C105.679 70.1112 106.11 70.7249 106.622 71.0182C107.941 71.7743 107.86 71.4915 106.011 72.627C105.641 72.8546 105.204 73.1705 105.429 73.5379C105.672 73.9337 106.141 73.6856 106.59 73.4498C108.587 72.4036 108.57 72.1087 107.43 74.3768C106.927 75.3783 107.81 75.911 108.488 74.6114C109.494 72.6805 109.345 72.8265 109.875 74.9725C109.925 75.1742 109.987 75.8695 110.623 75.6766C110.858 75.6056 110.989 75.409 110.931 75.1351C110.479 73.0037 110.139 72.4596 110.861 72.9227C110.865 72.9185 110.868 72.9139 110.872 72.9093Z" fill="#FDD502"/>
<path d="M112.104 109.503C112.243 110.317 112.331 111.02 112.616 111.499C112.899 111.973 113.627 111.76 113.62 111.253C113.609 110.425 113.126 109.164 113.306 109.049C113.484 108.936 113.648 109.167 113.799 109.278C114.645 109.892 115.109 110.336 115.736 110.638C116.211 110.867 116.659 110.145 116.362 109.793C116.076 109.454 115.658 109.21 113.88 107.842C113.292 107.39 114.097 107.248 115.008 106.918C115.525 106.731 116.116 106.288 115.852 105.808C115.634 105.411 115.215 105.554 114.785 105.696C112.513 106.445 112.798 106.71 113.854 103.993C114.048 103.494 114.243 102.864 113.717 102.697C113.166 102.522 112.977 103.192 112.491 104.28C112.425 104.43 112.406 104.603 112.328 104.746C112.157 105.06 112.106 105.436 111.844 105.704C111.457 105.491 111.499 105.044 111.316 104.72C111.024 104.199 111.093 103.68 110.518 103.41C110.295 103.304 110.024 103.411 109.964 103.646C109.668 104.791 110.975 106.08 109.887 105.85C108.212 105.496 107.187 105.126 107.052 105.807C106.948 106.327 107.534 106.483 108.094 106.634C110.586 107.308 110.807 107.04 108.079 108.063C106.916 108.499 107.176 109.656 108.784 109.08C111.128 108.241 110.885 108.251 109.667 110.459C109.587 110.603 109.491 110.74 109.433 110.892C109.201 111.498 110.058 112.031 110.426 111.415C111.697 109.284 111.836 108.552 112.084 109.505C112.09 109.505 112.097 109.504 112.104 109.503Z" fill="#FDD502"/>
</g>
<defs>
<clipPath id="clip0">
<rect width="125" height="125" fill="white"/>
</clipPath>
</defs>
</svg>
